<svg width="16" height="16" viewBox="0 0 16 16" fill="none" xmlns="http://www.w3.org/2000/svg">
<path d="M8.00004 11.3333C8.18893 11.3333 8.34737 11.2693 8.47537 11.1413C8.60337 11.0133 8.66715 10.855 8.66671 10.6666C8.66671 10.4777 8.60271 10.3195 8.47471 10.1919C8.34671 10.0644 8.18849 10.0004 8.00004 9.99992C7.81115 9.99992 7.65293 10.0639 7.52537 10.1919C7.39782 10.3199 7.33382 10.4781 7.33337 10.6666C7.33337 10.8555 7.39737 11.0139 7.52537 11.1419C7.65337 11.2699 7.8116 11.3337 8.00004 11.3333ZM7.33337 8.66659H8.66671V4.66659H7.33337V8.66659ZM8.00004 14.6666C7.07782 14.6666 6.21115 14.4915 5.40004 14.1413C4.58893 13.791 3.88337 13.3161 3.28337 12.7166C2.68337 12.1166 2.20849 11.411 1.85871 10.5999C1.50893 9.78881 1.33382 8.92214 1.33337 7.99992C1.33337 7.0777 1.50849 6.21103 1.85871 5.39992C2.20893 4.58881 2.68382 3.88325 3.28337 3.28325C3.88337 2.68325 4.58893 2.20836 5.40004 1.85859C6.21115 1.50881 7.07782 1.3337 8.00004 1.33325C8.92226 1.33325 9.78893 1.50836 10.6 1.85859C11.4112 2.20881 12.1167 2.6837 12.7167 3.28325C13.3167 3.88325 13.7918 4.58881 14.142 5.39992C14.4923 6.21103 14.6672 7.0777 14.6667 7.99992C14.6667 8.92214 14.4916 9.78881 14.1414 10.5999C13.7912 11.411 13.3163 12.1166 12.7167 12.7166C12.1167 13.3166 11.4112 13.7917 10.6 14.1419C9.78893 14.4921 8.92226 14.667 8.00004 14.6666Z" fill="#BF4009"/>
</svg>
