<svg width="110" height="110" viewBox="0 0 110 110" fill="none" xmlns="http://www.w3.org/2000/svg">
<g filter="url(#filter0_d_133_376)">
<ellipse cx="46.5155" cy="47" rx="46.5155" ry="47" transform="matrix(-1 0 0 1 98 4)" fill="white"/>
<path d="M51.5555 36.6547L42.8586 43.6984C41.4121 44.8664 41.1336 46.9688 42.2297 48.4691C43.3887 50.0684 45.6437 50.3828 47.198 49.1699L56.1195 42.234C56.7484 41.7488 57.6469 41.8566 58.141 42.4855C58.6352 43.1145 58.5184 44.0129 57.8895 44.507L56.0117 45.9625L68.5 57.4625V40.5H68.4371L68.0867 40.2754L61.5641 36.0977C60.1895 35.2172 58.5812 34.75 56.9461 34.75C54.9875 34.75 53.0828 35.4238 51.5555 36.6547ZM53.6039 47.8313L48.959 51.443C46.1289 53.6531 42.023 53.0781 39.9027 50.1672C37.9082 47.427 38.4113 43.5996 41.0437 41.4703L48.5188 35.4238C47.4766 34.9836 46.3535 34.759 45.2125 34.759C43.5234 34.75 41.8793 35.2531 40.4688 36.1875L34 40.5V60.625H36.5336L44.7453 68.118C46.5063 69.7262 49.2285 69.6004 50.8367 67.8395C51.3309 67.2914 51.6633 66.6535 51.834 65.9887L53.3613 67.3902C55.1133 68.9984 57.8445 68.8816 59.4527 67.1297C59.857 66.6895 60.1535 66.1773 60.3422 65.6473C62.0852 66.8152 64.457 66.5727 65.9215 64.9734C67.5297 63.2215 67.4129 60.4902 65.6609 58.882L53.6039 47.8313ZM23.9375 40.5C23.1469 40.5 22.5 41.1469 22.5 41.9375V60.625C22.5 62.2152 23.7848 63.5 25.375 63.5H28.25C29.8402 63.5 31.125 62.2152 31.125 60.625V40.5H23.9375ZM26.8125 57.75C27.1937 57.75 27.5594 57.9014 27.829 58.171C28.0985 58.4406 28.25 58.8063 28.25 59.1875C28.25 59.5687 28.0985 59.9344 27.829 60.204C27.5594 60.4736 27.1937 60.625 26.8125 60.625C26.4313 60.625 26.0656 60.4736 25.796 60.204C25.5265 59.9344 25.375 59.5687 25.375 59.1875C25.375 58.8063 25.5265 58.4406 25.796 58.171C26.0656 57.9014 26.4313 57.75 26.8125 57.75ZM71.375 40.5V60.625C71.375 62.2152 72.6598 63.5 74.25 63.5H77.125C78.7152 63.5 80 62.2152 80 60.625V41.9375C80 41.1469 79.3531 40.5 78.5625 40.5H71.375ZM74.25 59.1875C74.25 58.8063 74.4015 58.4406 74.671 58.171C74.9406 57.9014 75.3063 57.75 75.6875 57.75C76.0687 57.75 76.4344 57.9014 76.704 58.171C76.9735 58.4406 77.125 58.8063 77.125 59.1875C77.125 59.5687 76.9735 59.9344 76.704 60.204C76.4344 60.4736 76.0687 60.625 75.6875 60.625C75.3063 60.625 74.9406 60.4736 74.671 60.204C74.4015 59.9344 74.25 59.5687 74.25 59.1875Z" fill="#0F70B7"/>
</g>
<defs>
<filter id="filter0_d_133_376" x="-3.5" y="-2" width="117" height="117" filterUnits="userSpaceOnUse" color-interpolation-filters="sRGB">
<feFlood flood-opacity="0" result="BackgroundImageFix"/>
<feColorMatrix in="SourceAlpha" type="matrix" values="0 0 0 0 0 0 0 0 0 0 0 0 0 0 0 0 0 0 127 0" result="hardAlpha"/>
<feOffset dx="4" dy="4"/>
<feGaussianBlur stdDeviation="4"/>
<feComposite in2="hardAlpha" operator="out"/>
<feColorMatrix type="matrix" values="0 0 0 0 0.332048 0 0 0 0 0.332048 0 0 0 0 0.332048 0 0 0 0.25 0"/>
<feBlend mode="normal" in2="BackgroundImageFix" result="effect1_dropShadow_133_376"/>
<feBlend mode="normal" in="SourceGraphic" in2="effect1_dropShadow_133_376" result="shape"/>
</filter>
</defs>
</svg>
