<svg width="24" height="25" viewBox="0 0 24 25" fill="none" xmlns="http://www.w3.org/2000/svg">
<path d="M13.028 2.38159C14.153 2.38459 14.724 2.39059 15.217 2.40459L15.411 2.41159C15.635 2.41959 15.856 2.42959 16.123 2.44159C17.187 2.49159 17.913 2.65959 18.55 2.90659C19.21 3.16059 19.766 3.50459 20.322 4.05959C20.8305 4.55949 21.2239 5.16418 21.475 5.83159C21.722 6.46859 21.89 7.19459 21.94 8.25959C21.952 8.52559 21.962 8.74659 21.97 8.97159L21.976 9.16559C21.991 9.65759 21.997 10.2286 21.999 11.3536L22 12.0996V13.4096C22.0024 14.139 21.9948 14.8684 21.977 15.5976L21.971 15.7916C21.963 16.0166 21.953 16.2376 21.941 16.5036C21.891 17.5686 21.721 18.2936 21.475 18.9316C21.2246 19.5994 20.8311 20.2042 20.322 20.7036C19.8219 21.2119 19.2173 21.6053 18.55 21.8566C17.913 22.1036 17.187 22.2716 16.123 22.3216C15.8857 22.3328 15.6483 22.3428 15.411 22.3516L15.217 22.3576C14.724 22.3716 14.153 22.3786 13.028 22.3806L12.282 22.3816H10.973C10.2432 22.3841 9.51349 22.3764 8.78397 22.3586L8.58997 22.3526C8.35258 22.3436 8.11524 22.3333 7.87797 22.3216C6.81397 22.2716 6.08797 22.1036 5.44997 21.8566C4.78264 21.606 4.17818 21.2124 3.67897 20.7036C3.17001 20.2039 2.77619 19.5992 2.52497 18.9316C2.27797 18.2946 2.10997 17.5686 2.05997 16.5036C2.04883 16.2663 2.03883 16.029 2.02997 15.7916L2.02497 15.5976C2.00654 14.8684 1.9982 14.139 1.99997 13.4096V11.3536C1.99718 10.6242 2.00451 9.89479 2.02197 9.16559L2.02897 8.97159C2.03697 8.74659 2.04697 8.52559 2.05897 8.25959C2.10897 7.19459 2.27697 6.46959 2.52397 5.83159C2.77508 5.1635 3.16969 4.55862 3.67997 4.05959C4.17906 3.55107 4.78311 3.15758 5.44997 2.90659C6.08797 2.65959 6.81297 2.49159 7.87797 2.44159C8.14397 2.42959 8.36597 2.41959 8.58997 2.41159L8.78397 2.40559C9.51316 2.38782 10.2426 2.38016 10.972 2.38259L13.028 2.38159ZM12 7.38159C10.6739 7.38159 9.40211 7.90838 8.46443 8.84606C7.52675 9.78374 6.99997 11.0555 6.99997 12.3816C6.99997 13.7077 7.52675 14.9794 8.46443 15.9171C9.40211 16.8548 10.6739 17.3816 12 17.3816C13.326 17.3816 14.5978 16.8548 15.5355 15.9171C16.4732 14.9794 17 13.7077 17 12.3816C17 11.0555 16.4732 9.78374 15.5355 8.84606C14.5978 7.90838 13.326 7.38159 12 7.38159ZM12 9.38159C12.3939 9.38153 12.7841 9.45906 13.1481 9.60976C13.5121 9.76047 13.8428 9.98139 14.1214 10.2599C14.4001 10.5384 14.6211 10.8691 14.7719 11.2331C14.9227 11.597 15.0004 11.9871 15.0005 12.3811C15.0005 12.7751 14.923 13.1652 14.7723 13.5292C14.6216 13.8932 14.4007 14.2239 14.1221 14.5026C13.8436 14.7812 13.5129 15.0022 13.149 15.153C12.785 15.3039 12.3949 15.3815 12.001 15.3816C11.2053 15.3816 10.4423 15.0655 9.87965 14.5029C9.31704 13.9403 9.00097 13.1772 9.00097 12.3816C9.00097 11.5859 9.31704 10.8229 9.87965 10.2603C10.4423 9.69766 11.2053 9.38159 12.001 9.38159M17.251 5.88159C16.9194 5.88159 16.6015 6.01329 16.3671 6.24771C16.1327 6.48213 16.001 6.80007 16.001 7.13159C16.001 7.46311 16.1327 7.78105 16.3671 8.01548C16.6015 8.2499 16.9194 8.38159 17.251 8.38159C17.5825 8.38159 17.9004 8.2499 18.1348 8.01548C18.3693 7.78105 18.501 7.46311 18.501 7.13159C18.501 6.80007 18.3693 6.48213 18.1348 6.24771C17.9004 6.01329 17.5825 5.88159 17.251 5.88159Z" fill="white"/>
</svg>
