<svg width="32" height="32" viewBox="0 0 32 32" fill="none" xmlns="http://www.w3.org/2000/svg">
<path fill-rule="evenodd" clip-rule="evenodd" d="M8.22564 5.22563C10.2878 3.16347 13.0837 2.00344 16 2C18.9163 2.00344 21.7122 3.16347 23.7744 5.22563C25.8365 7.28778 26.9966 10.0837 27 13C27.0034 15.3821 26.2253 17.6996 24.785 19.597L24.784 19.6C24.784 19.6 24.483 19.994 24.439 20.047L16 30L7.56501 20.052C7.51601 19.995 7.21601 19.6 7.21601 19.6C5.77499 17.7018 4.99652 15.3832 5.00001 13C5.00345 10.0837 6.16348 7.28778 8.22564 5.22563ZM16 17C13.7909 17 12 15.2091 12 13C12 10.8001 13.776 9.01494 15.9724 9.00009C15.9917 8.99996 16.0111 8.99997 16.0304 9.00011C17.0857 9.00797 18.0438 9.4245 18.7543 10.0993C18.8073 10.1497 18.859 10.2015 18.9093 10.2548C19.5707 10.9555 19.9818 11.8951 19.9994 12.9305C19.9998 12.9537 20 12.9768 20 13C20 13.003 20 13.006 20 13.009C19.9951 15.214 18.2061 17 16 17Z" fill="#104B76"/>
</svg>
