<svg width="150" height="109" viewBox="0 0 150 109" fill="none" xmlns="http://www.w3.org/2000/svg">
<mask id="mask0_746_830" style="mask-type:luminance" maskUnits="userSpaceOnUse" x="6" y="36" width="63" height="70">
<path d="M6 98.4182L64.9815 105.996L68.5999 77.8297L39.1422 74.0458L28.9446 38.1504L13.9937 36.1934L6 98.4182Z" fill="white"/>
</mask>
<g mask="url(#mask0_746_830)">
<path d="M37.0946 80.9104C34.9581 82.2249 33.525 84.2302 33.0977 86.7941C32.7435 88.4974 32.7764 90.3484 32.7506 92.242C32.7179 94.3049 31.7511 96.2102 29.4896 96.5893C28.4806 96.7495 27.2803 96.64 26.0091 96.248L25.8738 95.9965C26.6075 95.7222 27.3402 95.4683 27.9091 95.0374C28.5895 94.5439 29.02 93.872 29.2779 93.0696C29.7272 91.5397 30.1494 89.8804 30.4941 88.2291C30.6764 87.3583 30.8973 86.4945 31.2096 85.682C31.8396 84.0697 32.9123 82.715 34.3957 81.7754C35.1364 81.3096 35.9833 80.9592 36.8731 80.6729L37.0946 80.9104Z" fill="url(#paint0_linear_746_830)"/>
<path d="M33.9304 78.9832C31.4227 79.0532 29.1791 80.073 27.5272 82.0803C26.3692 83.379 25.4714 84.9975 24.5022 86.6248C23.4425 88.3948 21.6526 89.5613 19.5044 88.7597C18.5507 88.3939 17.5654 87.6984 16.661 86.7232L16.6696 86.4375C17.4422 86.5666 18.2041 86.714 18.9118 86.624C19.7476 86.5375 20.4564 86.1707 21.0808 85.6043C22.2345 84.5037 23.4298 83.2783 24.5546 82.0203C25.1476 81.3571 25.7715 80.7194 26.4473 80.1714C27.7991 79.0905 29.4054 78.4538 31.1602 78.3805C32.0338 78.3474 32.9433 78.4674 33.8571 78.6643L33.9299 78.9803L33.9304 78.9832Z" fill="url(#paint1_linear_746_830)"/>
<path d="M32.1533 75.7313C29.9466 74.538 27.4937 74.2996 25.06 75.2119C23.4081 75.7572 21.8214 76.7111 20.1683 77.6357C18.3656 78.6387 16.2323 78.7541 14.7726 76.9852C14.1293 76.1917 13.6235 75.0968 13.3284 73.8004L13.478 73.5575C14.0826 74.0556 14.6688 74.5638 15.3268 74.8396C16.0946 75.1829 16.891 75.2188 17.7153 75.0417C19.265 74.6656 20.9127 74.2015 22.5154 73.6749C23.361 73.3972 24.2196 73.1572 25.0789 73.0206C26.7908 72.76 28.4992 73.0125 30.056 73.8267C30.8298 74.2346 31.5568 74.7937 32.2496 75.4211L32.1533 75.7313Z" fill="url(#paint2_linear_746_830)"/>
<path d="M32.2398 72.0277C30.9254 69.8911 28.92 68.4581 26.3561 68.0307C24.6529 67.6765 22.8018 67.7093 20.9081 67.6835C18.8454 67.6509 16.94 66.684 16.5608 64.4227C16.4007 63.4136 16.5102 62.2132 16.9022 60.942L17.1537 60.8069C17.4281 61.5404 17.6819 62.2731 18.1127 62.842C18.6062 63.5226 19.2783 63.953 20.0806 64.2108C21.6104 64.6601 23.2698 65.0823 24.9212 65.427C25.7919 65.6093 26.6558 65.8304 27.4681 66.1426C29.0804 66.7726 30.4352 67.8454 31.3748 69.3286C31.8407 70.0693 32.1911 70.9163 32.4773 71.8061L32.2398 72.0277Z" fill="url(#paint3_linear_746_830)"/>
<path d="M34.1672 68.8625C34.0972 66.3548 33.0773 64.1111 31.07 62.4592C29.7714 61.3013 28.1529 60.4033 26.5256 59.4342C24.7556 58.3745 23.5891 56.5845 24.3908 54.4364C24.7565 53.4827 25.4519 52.4975 26.4272 51.593L26.7129 51.6017C26.5838 52.3741 26.4365 53.1361 26.5264 53.8438C26.613 54.6796 26.9796 55.3884 27.5461 56.0129C28.6466 57.1665 29.8721 58.3618 31.1302 59.4867C31.7933 60.0796 32.431 60.7034 32.9791 61.3794C34.0599 62.731 34.6966 64.3375 34.7699 66.0922C34.803 66.9659 34.683 67.8753 34.4861 68.7891L34.17 68.8619L34.1672 68.8625Z" fill="url(#paint4_linear_746_830)"/>
<path d="M37.4189 67.0854C38.6123 64.8787 38.8506 62.4258 37.9383 59.9921C37.393 58.3402 36.4391 56.7535 35.5145 55.1004C34.5115 53.2977 34.3961 51.1644 36.165 49.7047C36.9587 49.0614 38.0534 48.5556 39.3499 48.2605L39.5927 48.4101C39.0946 49.0147 38.5864 49.6009 38.3106 50.2589C37.9673 51.0267 37.9314 51.8231 38.1085 52.6474C38.4846 54.1971 38.9487 55.8448 39.4753 57.4475C39.753 58.2931 39.993 59.1516 40.1296 60.011C40.3902 61.7228 40.1377 63.4313 39.3235 64.9881C38.9157 65.7618 38.3565 66.4889 37.7291 67.1817L37.4189 67.0854Z" fill="url(#paint5_linear_746_830)"/>
<path d="M41.1226 67.1729C43.2591 65.8584 44.6922 63.8532 45.1195 61.2891C45.4737 59.5859 45.4408 57.7349 45.4666 55.8411C45.4992 53.7784 46.4661 51.8732 48.7275 51.4939C49.7365 51.3337 50.9369 51.4432 52.2081 51.8353L52.3434 52.0868C51.6098 52.3611 50.8771 52.6151 50.3081 53.0459C49.6277 53.5394 49.1972 54.2113 48.9393 55.0137C48.49 56.5436 48.0679 58.2028 47.7231 59.8543C47.5408 60.7249 47.3199 61.5889 47.0076 62.4013C46.3776 64.0136 45.3048 65.3683 43.8215 66.3079C43.0808 66.7737 42.2339 67.1241 41.3441 67.4105L41.1226 67.1729Z" fill="url(#paint6_linear_746_830)"/>
<path d="M44.2877 69.0992C46.7956 69.0292 49.0391 68.0093 50.691 66.002C51.8491 64.7034 52.7469 63.0849 53.716 61.4576C54.7757 59.6876 56.5657 58.5211 58.7138 59.3228C59.6676 59.6885 60.6527 60.3839 61.5572 61.3592L61.5485 61.6449C60.7761 61.5158 60.0141 61.3685 59.3064 61.4584C58.4706 61.545 57.7618 61.9116 57.1374 62.4781C55.9837 63.5787 54.7884 64.8041 53.6635 66.062C53.0706 66.7253 52.4468 67.363 51.7708 67.911C50.4192 68.9919 48.8129 69.6285 47.0581 69.7019C46.1843 69.735 45.2749 69.615 44.3611 69.4181L44.2883 69.102L44.2877 69.0992Z" fill="url(#paint7_linear_746_830)"/>
<path d="M46.0649 72.3511C48.2715 73.5443 50.7245 73.7827 53.1581 72.8704C54.81 72.3252 56.3969 71.3712 58.0499 70.4466C59.8526 69.4437 61.986 69.3283 63.4456 71.0972C64.0888 71.8908 64.5946 72.9856 64.8897 74.2819L64.7403 74.5249C64.1356 74.0268 63.5493 73.5185 62.8914 73.2427C62.1235 72.8995 61.3272 72.8635 60.503 73.0407C58.9531 73.4168 57.3056 73.8808 55.7027 74.4075C54.8572 74.6852 53.9987 74.9252 53.1392 75.0618C51.4275 75.3223 49.7189 75.0699 48.1622 74.2557C47.3884 73.8479 46.6615 73.2887 45.9685 72.6612L46.0649 72.3511Z" fill="url(#paint8_linear_746_830)"/>
<path d="M45.9783 76.0557C47.2927 78.1922 49.298 79.6253 51.862 80.0526C53.5653 80.4067 55.4162 80.3739 57.3099 80.3997C59.3727 80.4324 61.278 81.3993 61.6573 83.6607C61.8173 84.6697 61.7079 85.87 61.3158 87.1412L61.0643 87.2765C60.79 86.5428 60.5361 85.8101 60.1053 85.2413C59.6118 84.5608 58.9399 84.1303 58.1374 83.8724C56.6076 83.4231 54.9483 83.0009 53.2969 82.6562C52.4261 82.4739 51.5623 82.253 50.7499 81.9408C49.1376 81.3108 47.7829 80.238 46.8433 78.7546C46.3774 78.0139 46.027 77.167 45.7407 76.2771L45.9783 76.0557Z" fill="url(#paint9_linear_746_830)"/>
<path d="M44.051 79.2197C44.121 81.7274 45.141 83.9711 47.1481 85.623C48.4468 86.7809 50.0654 87.6789 51.6926 88.648C53.4627 89.7077 54.6292 91.4977 53.8275 93.6458C53.4617 94.5995 52.7663 95.5847 51.7911 96.4892L51.5054 96.4805C51.6344 95.7081 51.7818 94.9461 51.6919 94.2384C51.6053 93.4026 51.2386 92.6938 50.6721 92.0695C49.5715 90.9157 48.3461 89.7204 47.0881 88.5955C46.4249 88.0026 45.7873 87.3788 45.2392 86.7028C44.1583 85.3512 43.5217 83.7447 43.4483 81.9901C43.4152 81.1163 43.5352 80.2069 43.7321 79.2931L44.0483 79.2203L44.051 79.2197Z" fill="url(#paint10_linear_746_830)"/>
<path d="M40.7992 80.997C39.606 83.2036 39.3676 85.6566 40.2799 88.0902C40.8252 89.7421 41.7791 91.3289 42.7037 92.982C43.7067 94.7847 43.8221 96.9181 42.0531 98.3777C41.2596 99.0209 40.1648 99.5267 38.8684 99.8219L38.6254 99.6723C39.1235 99.0677 39.6318 98.4815 39.9076 97.8235C40.2508 97.0556 40.2868 96.2593 40.1098 95.435C39.7335 93.8852 39.2695 92.2375 38.743 90.6348C38.4652 89.7893 38.2252 88.9308 38.0885 88.0713C37.828 86.3596 38.0804 84.651 38.8946 83.0943C39.3026 82.3205 39.8616 81.5935 40.4891 80.9006L40.7992 80.997Z" fill="url(#paint11_linear_746_830)"/>
</g>
<path fill-rule="evenodd" clip-rule="evenodd" d="M74.5642 49.6258C70.2682 49.6258 67.0776 46.3096 67.0776 42.1178V42.0759C67.0776 37.926 70.2049 34.5269 74.6891 34.5269C77.4419 34.5269 79.0893 35.4451 80.4445 36.7797L78.4011 39.1367C77.2753 38.1142 76.1288 37.4883 74.6685 37.4883C72.2072 37.4883 70.4349 39.5325 70.4349 42.0348V42.0769C70.4349 44.5801 72.1661 46.6652 74.6685 46.6652C76.3365 46.6652 77.3581 45.9975 78.5054 44.9554L80.5488 47.0192C79.0474 48.6256 77.3795 49.6258 74.5642 49.6258ZM46.8347 49.3754V37.7389H51.2753V34.7774H39.1805V37.7389H43.6228V49.3754H46.8347ZM53.7438 34.7774V49.3754L64.8586 49.3762V46.519H56.9343V43.4532H63.8166V40.596H56.9343V37.6345H64.7543V34.7774H53.7438ZM86.2924 40.0959L93.3609 49.3754H96.0934V34.7774H92.9242V43.7662L86.0839 34.7774H83.1224V49.3754H86.2924V40.0959ZM106.424 49.6258C101.921 49.6258 98.6881 46.2677 98.6881 42.1178V42.0759C98.6881 37.926 101.962 34.5269 106.467 34.5269C110.973 34.5269 114.203 37.8851 114.203 42.0348V42.0769C114.203 46.2266 110.93 49.6258 106.424 49.6258ZM110.846 42.0769C110.846 39.5744 109.011 37.4883 106.424 37.4883C103.838 37.4883 102.045 39.5325 102.045 42.0348V42.0769C102.045 44.5801 103.881 46.6652 106.467 46.6652C109.053 46.6652 110.846 44.622 110.846 42.1187V42.0769ZM39.1805 63.1965C39.1805 67.3882 42.3712 70.7044 46.6672 70.7044C49.4824 70.7044 51.1504 69.7043 52.6516 68.0978L50.6084 66.034C49.4611 67.0762 48.4395 67.7439 46.7715 67.7439C44.2691 67.7439 42.5378 65.6588 42.5378 63.1554V63.1135C42.5378 60.6112 44.3101 58.567 46.7715 58.567C48.2318 58.567 49.3781 59.1928 50.5041 60.2154L52.5474 57.8582C51.1923 56.5238 49.5449 55.6055 46.792 55.6055C42.3078 55.6055 39.1805 59.0047 39.1805 63.1546V63.1965ZM55.2254 70.4539V55.856H58.4374V67.5343H65.7154V70.4539H55.2254ZM68.2865 55.856V70.4539H71.4984V55.856H68.2865ZM86.559 70.4539V60.924L82.4511 67.159H82.3682L78.3014 60.9865V70.4539H75.1526V55.856H78.6151L82.452 62.0294L86.2899 55.856H89.7515V70.4539H86.5608H86.559ZM102.793 67.1805L104.127 70.454H107.486L101.229 55.7517H98.2677L92.0123 70.454H95.2857L96.6203 67.1805H102.793ZM97.7676 64.3437L99.7066 59.6099L101.646 64.3437H97.7676Z" fill="white"/>
<mask id="mask1_746_830" style="mask-type:luminance" maskUnits="userSpaceOnUse" x="84" y="3" width="60" height="63">
<path d="M143.804 3L84.338 3.14264L84.4057 31.5389L114.105 31.4685L130.123 65.7369H143.954L143.804 3Z" fill="white"/>
</mask>
<g mask="url(#mask1_746_830)">
<path d="M115.245 24.3954C117.193 22.8148 118.353 20.6404 118.444 18.0427C118.574 16.3079 118.302 14.4768 118.081 12.5958C117.846 10.5463 118.557 8.53151 120.75 7.86201C121.73 7.57228 122.935 7.52503 124.246 7.7488L124.413 7.98058C123.721 8.34786 123.027 8.69465 122.519 9.19566C121.908 9.77334 121.569 10.4954 121.417 11.3245C121.17 12.8998 120.967 14.5998 120.84 16.2821C120.772 17.1691 120.665 18.0544 120.461 18.9003C120.045 20.5807 119.157 22.0633 117.809 23.1875C117.135 23.7454 116.34 24.2029 115.495 24.6022L115.245 24.3954Z" fill="url(#paint12_linear_746_830)"/>
<path d="M118.632 25.8956C121.11 25.5008 123.202 24.1983 124.579 21.9936C125.559 20.5558 126.239 18.8343 126.989 17.0949C127.81 15.2024 129.433 13.8134 131.668 14.3296C132.661 14.5685 133.727 15.1302 134.752 15.9797L134.78 16.2641C133.997 16.2364 133.222 16.1893 132.533 16.3702C131.715 16.5645 131.06 17.0201 130.514 17.6628C129.513 18.9037 128.487 20.274 127.535 21.6674C127.033 22.402 126.497 23.1151 125.898 23.7463C124.698 24.9935 123.188 25.8332 121.457 26.1337C120.595 26.2798 119.678 26.279 118.746 26.2024L118.633 25.8983L118.632 25.8956Z" fill="url(#paint13_linear_746_830)"/>
<path d="M120.816 28.8895C123.159 29.7862 125.622 29.7042 127.917 28.4838C129.484 27.7288 130.934 26.5769 132.453 25.4457C134.11 24.2172 136.211 23.8258 137.888 25.3904C138.629 26.0938 139.272 27.1137 139.733 28.3608L139.616 28.6211C138.952 28.2057 138.304 27.7777 137.616 27.5896C136.811 27.3489 136.016 27.4168 135.222 27.6993C133.734 28.2734 132.161 28.9474 130.639 29.6774C129.837 30.0626 129.017 30.412 128.183 30.6591C126.519 31.1395 124.792 31.111 123.143 30.5057C122.323 30.2016 121.53 29.7416 120.761 29.2095L120.816 28.8895Z" fill="url(#paint14_linear_746_830)"/>
<path d="M121.211 32.5737C122.792 34.5216 124.966 35.6822 127.564 35.7732C129.299 35.9033 131.13 35.6306 133.011 35.4104C135.061 35.1751 137.076 35.8864 137.745 38.0795C138.034 39.0593 138.081 40.2636 137.858 41.5749L137.626 41.7417C137.258 41.0499 136.912 40.3563 136.411 39.8482C135.834 39.2375 135.111 38.8979 134.283 38.7463C132.707 38.4994 131.007 38.2962 129.325 38.1686C128.438 38.1009 127.552 37.9939 126.706 37.7898C125.026 37.3743 123.543 36.4864 122.419 35.1377C121.861 34.4636 121.404 33.6694 121.004 32.8243L121.211 32.5737Z" fill="url(#paint15_linear_746_830)"/>
<path d="M119.711 35.9614C120.106 38.4389 121.408 40.5312 123.613 41.9085C125.051 42.8882 126.772 43.5685 128.512 44.3182C130.404 45.1393 131.793 46.7626 131.277 48.9967C131.038 49.9898 130.476 51.0568 129.627 52.0803L129.342 52.1089C129.37 51.3262 129.417 50.5514 129.236 49.8614C129.042 49.0439 128.587 48.3887 127.944 47.843C126.703 46.842 125.333 45.8159 123.939 44.8637C123.205 44.3618 122.492 43.826 121.86 43.227C120.613 42.0271 119.773 40.517 119.473 38.7866C119.327 37.9245 119.328 37.0071 119.404 36.0756L119.708 35.9624L119.711 35.9614Z" fill="url(#paint16_linear_746_830)"/>
<path d="M116.717 38.1456C115.821 40.4884 115.903 42.9515 117.123 45.2461C117.878 46.8134 119.03 48.2629 120.161 49.7821C121.39 51.4393 121.781 53.5397 120.216 55.2165C119.513 55.9574 118.493 56.601 117.246 57.0618L116.986 56.9451C117.401 56.2809 117.829 55.6337 118.017 54.9455C118.258 54.1397 118.19 53.3453 117.907 52.551C117.333 51.063 116.659 49.4897 115.929 47.9687C115.544 47.1664 115.195 46.3463 114.948 45.5118C114.467 43.8483 114.496 42.1215 115.101 40.4724C115.405 39.6522 115.865 38.8587 116.397 38.0903L116.717 38.1456Z" fill="url(#paint17_linear_746_830)"/>
<path d="M113.034 38.5405C111.086 40.1212 109.925 42.2955 109.834 44.8932C109.704 46.6281 109.977 48.4591 110.197 50.3401C110.432 52.3897 109.721 54.4044 107.528 55.0739C106.548 55.3636 105.344 55.4109 104.033 55.1871L103.866 54.9554C104.558 54.5881 105.251 54.2413 105.759 53.7402C106.37 53.1625 106.71 52.4405 106.861 51.6114C107.108 50.0362 107.311 48.336 107.439 46.6539C107.507 45.7668 107.614 44.8816 107.818 44.0356C108.233 42.3552 109.121 40.8727 110.47 39.7485C111.144 39.1904 111.938 38.7331 112.783 38.3337L113.034 38.5405Z" fill="url(#paint18_linear_746_830)"/>
<path d="M109.645 37.0401C107.168 37.435 105.076 38.7374 103.698 40.942C102.719 42.38 102.038 44.1014 101.289 45.8408C100.468 47.7333 98.8441 49.1222 96.6101 48.606C95.617 48.3671 94.5499 47.8055 93.5265 46.9559L93.498 46.6716C94.2807 46.6991 95.0553 46.7464 95.7454 46.5655C96.5629 46.3712 97.2181 45.9156 97.7637 45.2728C98.7647 44.0318 99.7908 42.6617 100.743 41.2683C101.245 40.5337 101.781 39.8205 102.38 39.1894C103.58 37.9422 105.09 37.1024 106.82 36.802C107.682 36.6558 108.6 36.6567 109.531 36.7333L109.644 37.0374L109.645 37.0401Z" fill="url(#paint19_linear_746_830)"/>
<path d="M107.461 34.0466C105.118 33.1497 102.655 33.2317 100.361 34.4523C98.7933 35.2073 97.3438 36.359 95.8248 37.4904C94.1675 38.7189 92.0672 39.1102 90.3903 37.5457C89.6495 36.8423 89.0058 35.8224 88.5449 34.5752L88.6616 34.315C89.3258 34.7304 89.973 35.1582 90.6612 35.3463C91.4672 35.5871 92.2615 35.5193 93.0558 35.2367C94.5437 34.6625 96.117 33.9886 97.638 33.2585C98.4403 32.8734 99.2604 32.5239 100.095 32.277C101.758 31.7965 103.485 31.825 105.134 32.4304C105.955 32.7343 106.748 33.1943 107.517 33.7266L107.461 34.0466Z" fill="url(#paint20_linear_746_830)"/>
<path d="M107.066 30.3629C105.486 28.4151 103.311 27.2544 100.714 27.1634C98.9788 27.0333 97.1476 27.3062 95.2667 27.5263C93.2172 27.7617 91.2023 27.0502 90.5329 24.8572C90.2431 23.8775 90.196 22.673 90.4196 21.3617L90.6515 21.1951C91.0188 21.8868 91.3656 22.5803 91.8665 23.0884C92.4442 23.6991 93.1664 24.0389 93.9954 24.1903C95.5706 24.4374 97.2707 24.6406 98.9529 24.768C99.8399 24.8357 100.725 24.9428 101.571 25.147C103.252 25.5624 104.734 26.4503 105.858 27.7991C106.416 28.473 106.874 29.2674 107.273 30.1125L107.066 30.3629Z" fill="url(#paint21_linear_746_830)"/>
<path d="M108.567 26.9746C108.172 24.4971 106.869 22.4048 104.665 21.0274C103.227 20.0477 101.505 19.3675 99.766 18.6178C97.8733 17.7967 96.4844 16.1734 97.0006 13.9393C97.2395 12.9462 97.8011 11.8791 98.6507 10.8557L98.935 10.8271C98.9075 11.6099 98.8602 12.3846 99.0411 13.0746C99.2356 13.8921 99.6911 14.5473 100.334 15.0928C101.575 16.094 102.945 17.1201 104.338 18.0721C105.073 18.5742 105.786 19.1098 106.417 19.7089C107.665 20.9089 108.504 22.419 108.805 24.1494C108.951 25.0115 108.95 25.9288 108.873 26.8604L108.569 26.9736L108.567 26.9746Z" fill="url(#paint22_linear_746_830)"/>
<path d="M111.56 24.7903C112.457 22.4475 112.375 19.9844 111.155 17.6896C110.399 16.1225 109.248 14.6729 108.116 13.1538C106.888 11.4966 106.497 9.39625 108.061 7.71939C108.764 6.97856 109.784 6.33492 111.032 5.87402L111.292 5.99081C110.876 6.65496 110.449 7.30217 110.26 7.99039C110.02 8.79629 110.087 9.5906 110.37 10.3849C110.944 11.8728 111.618 13.4462 112.348 14.9671C112.733 15.7695 113.083 16.5896 113.33 17.424C113.81 19.0875 113.782 20.8144 113.177 22.4635C112.872 23.2837 112.412 24.0771 111.88 24.8456L111.56 24.7903Z" fill="url(#paint23_linear_746_830)"/>
</g>
<defs>
<linearGradient id="paint0_linear_746_830" x1="41.0483" y1="83.6537" x2="23.475" y2="101.696" gradientUnits="userSpaceOnUse">
<stop stop-color="#E3312D"/>
<stop offset="0.22" stop-color="#E95F32"/>
<stop offset="0.56" stop-color="#F18F34"/>
<stop offset="0.86" stop-color="#FDC800"/>
<stop offset="0.9" stop-color="#FDCB03"/>
<stop offset="0.95" stop-color="#FDD70E"/>
<stop offset="0.99" stop-color="#FEE921"/>
<stop offset="1" stop-color="#FFEF26"/>
</linearGradient>
<linearGradient id="paint1_linear_746_830" x1="-81.6512" y1="-198.113" x2="-104.023" y2="-188.817" gradientUnits="userSpaceOnUse">
<stop stop-color="#E3312D"/>
<stop offset="0.22" stop-color="#E95F32"/>
<stop offset="0.56" stop-color="#F18F34"/>
<stop offset="0.86" stop-color="#FDC800"/>
<stop offset="0.9" stop-color="#FDCB03"/>
<stop offset="0.95" stop-color="#FDD70E"/>
<stop offset="0.99" stop-color="#FEE921"/>
<stop offset="1" stop-color="#FFEF26"/>
</linearGradient>
<linearGradient id="paint2_linear_746_830" x1="31.7545" y1="80.5265" x2="7.34226" y2="74.3291" gradientUnits="userSpaceOnUse">
<stop stop-color="#E3312D"/>
<stop offset="0.22" stop-color="#E95F32"/>
<stop offset="0.56" stop-color="#F18F34"/>
<stop offset="0.86" stop-color="#FDC800"/>
<stop offset="0.9" stop-color="#FDCB03"/>
<stop offset="0.95" stop-color="#FDD70E"/>
<stop offset="0.99" stop-color="#FEE921"/>
<stop offset="1" stop-color="#FFEF26"/>
</linearGradient>
<linearGradient id="paint3_linear_746_830" x1="35.9289" y1="66.6916" x2="13.1188" y2="76.4605" gradientUnits="userSpaceOnUse">
<stop stop-color="#E3312D"/>
<stop offset="0.22" stop-color="#E95F32"/>
<stop offset="0.56" stop-color="#F18F34"/>
<stop offset="0.86" stop-color="#FDC800"/>
<stop offset="0.9" stop-color="#FDCB03"/>
<stop offset="0.95" stop-color="#FDD70E"/>
<stop offset="0.99" stop-color="#FEE921"/>
<stop offset="1" stop-color="#FFEF26"/>
</linearGradient>
<linearGradient id="paint4_linear_746_830" x1="37.7777" y1="59.0861" x2="18.0189" y2="61.1411" gradientUnits="userSpaceOnUse">
<stop stop-color="#E3312D"/>
<stop offset="0.22" stop-color="#E95F32"/>
<stop offset="0.56" stop-color="#F18F34"/>
<stop offset="0.86" stop-color="#FDC800"/>
<stop offset="0.9" stop-color="#FDCB03"/>
<stop offset="0.95" stop-color="#FDD70E"/>
<stop offset="0.99" stop-color="#FEE921"/>
<stop offset="1" stop-color="#FFEF26"/>
</linearGradient>
<linearGradient id="paint5_linear_746_830" x1="32.6237" y1="66.6864" x2="38.821" y2="42.2752" gradientUnits="userSpaceOnUse">
<stop stop-color="#E3312D"/>
<stop offset="0.22" stop-color="#E95F32"/>
<stop offset="0.56" stop-color="#F18F34"/>
<stop offset="0.86" stop-color="#FDC800"/>
<stop offset="0.9" stop-color="#FDCB03"/>
<stop offset="0.95" stop-color="#FDD70E"/>
<stop offset="0.99" stop-color="#FEE921"/>
<stop offset="1" stop-color="#FFEF26"/>
</linearGradient>
<linearGradient id="paint6_linear_746_830" x1="279.768" y1="249.354" x2="294.495" y2="230.118" gradientUnits="userSpaceOnUse">
<stop stop-color="#E3312D"/>
<stop offset="0.22" stop-color="#E95F32"/>
<stop offset="0.56" stop-color="#F18F34"/>
<stop offset="0.86" stop-color="#FDC800"/>
<stop offset="0.9" stop-color="#FDCB03"/>
<stop offset="0.95" stop-color="#FDD70E"/>
<stop offset="0.99" stop-color="#FEE921"/>
<stop offset="1" stop-color="#FFEF26"/>
</linearGradient>
<linearGradient id="paint7_linear_746_830" x1="42.2357" y1="64.7477" x2="66.476" y2="57.9087" gradientUnits="userSpaceOnUse">
<stop stop-color="#E3312D"/>
<stop offset="0.22" stop-color="#E95F32"/>
<stop offset="0.56" stop-color="#F18F34"/>
<stop offset="0.86" stop-color="#FDC800"/>
<stop offset="0.9" stop-color="#FDCB03"/>
<stop offset="0.95" stop-color="#FDD70E"/>
<stop offset="0.99" stop-color="#FEE921"/>
<stop offset="1" stop-color="#FFEF26"/>
</linearGradient>
<linearGradient id="paint8_linear_746_830" x1="46.4638" y1="67.5558" x2="70.876" y2="73.7533" gradientUnits="userSpaceOnUse">
<stop stop-color="#E3312D"/>
<stop offset="0.22" stop-color="#E95F32"/>
<stop offset="0.56" stop-color="#F18F34"/>
<stop offset="0.86" stop-color="#FDC800"/>
<stop offset="0.9" stop-color="#FDCB03"/>
<stop offset="0.95" stop-color="#FDD70E"/>
<stop offset="0.99" stop-color="#FEE921"/>
<stop offset="1" stop-color="#FFEF26"/>
</linearGradient>
<linearGradient id="paint9_linear_746_830" x1="52.062" y1="75.3762" x2="52.6839" y2="90.6966" gradientUnits="userSpaceOnUse">
<stop stop-color="#E3312D"/>
<stop offset="0.22" stop-color="#E95F32"/>
<stop offset="0.56" stop-color="#F18F34"/>
<stop offset="0.86" stop-color="#FDC800"/>
<stop offset="0.9" stop-color="#FDCB03"/>
<stop offset="0.95" stop-color="#FDD70E"/>
<stop offset="0.99" stop-color="#FEE921"/>
<stop offset="1" stop-color="#FFEF26"/>
</linearGradient>
<linearGradient id="paint10_linear_746_830" x1="48.349" y1="77.1832" x2="55.1876" y2="101.423" gradientUnits="userSpaceOnUse">
<stop stop-color="#E3312D"/>
<stop offset="0.22" stop-color="#E95F32"/>
<stop offset="0.56" stop-color="#F18F34"/>
<stop offset="0.86" stop-color="#FDC800"/>
<stop offset="0.9" stop-color="#FDCB03"/>
<stop offset="0.95" stop-color="#FDD70E"/>
<stop offset="0.99" stop-color="#FEE921"/>
<stop offset="1" stop-color="#FFEF26"/>
</linearGradient>
<linearGradient id="paint11_linear_746_830" x1="45.5944" y1="81.3967" x2="39.3971" y2="105.808" gradientUnits="userSpaceOnUse">
<stop stop-color="#E3312D"/>
<stop offset="0.22" stop-color="#E95F32"/>
<stop offset="0.56" stop-color="#F18F34"/>
<stop offset="0.86" stop-color="#FDC800"/>
<stop offset="0.9" stop-color="#FDCB03"/>
<stop offset="0.95" stop-color="#FDD70E"/>
<stop offset="0.99" stop-color="#FEE921"/>
<stop offset="1" stop-color="#FFEF26"/>
</linearGradient>
<linearGradient id="paint12_linear_746_830" x1="115.559" y1="24.8111" x2="117.301" y2="2.22537" gradientUnits="userSpaceOnUse">
<stop stop-color="#29235C"/>
<stop offset="0.22" stop-color="#2D2E83"/>
<stop offset="0.56" stop-color="#1D71B8"/>
<stop offset="0.86" stop-color="#1D71B8"/>
</linearGradient>
<linearGradient id="paint13_linear_746_830" x1="118.453" y1="14.3061" x2="139.973" y2="15.5071" gradientUnits="userSpaceOnUse">
<stop stop-color="#29235C"/>
<stop offset="0.22" stop-color="#2D2E83"/>
<stop offset="0.56" stop-color="#1D71B8"/>
<stop offset="0.86" stop-color="#1D71B8"/>
</linearGradient>
<linearGradient id="paint14_linear_746_830" x1="120.551" y1="24.411" x2="145.56" y2="27.3876" gradientUnits="userSpaceOnUse">
<stop stop-color="#29235C"/>
<stop offset="0.22" stop-color="#2D2E83"/>
<stop offset="0.56" stop-color="#1D71B8"/>
<stop offset="0.86" stop-color="#1D71B8"/>
</linearGradient>
<linearGradient id="paint15_linear_746_830" x1="120.816" y1="32.6386" x2="143.402" y2="34.3795" gradientUnits="userSpaceOnUse">
<stop stop-color="#29235C"/>
<stop offset="0.22" stop-color="#2D2E83"/>
<stop offset="0.56" stop-color="#1D71B8"/>
<stop offset="0.86" stop-color="#1D71B8"/>
</linearGradient>
<linearGradient id="paint16_linear_746_830" x1="119.219" y1="36.0757" x2="135.291" y2="36.5739" gradientUnits="userSpaceOnUse">
<stop stop-color="#29235C"/>
<stop offset="0.22" stop-color="#2D2E83"/>
<stop offset="0.56" stop-color="#1D71B8"/>
<stop offset="0.86" stop-color="#1D71B8"/>
</linearGradient>
<linearGradient id="paint17_linear_746_830" x1="121.196" y1="37.8797" x2="118.219" y2="62.8888" gradientUnits="userSpaceOnUse">
<stop stop-color="#29235C"/>
<stop offset="0.22" stop-color="#2D2E83"/>
<stop offset="0.56" stop-color="#1D71B8"/>
<stop offset="0.86" stop-color="#1D71B8"/>
</linearGradient>
<linearGradient id="paint18_linear_746_830" x1="117.045" y1="40.5489" x2="101.963" y2="60.7191" gradientUnits="userSpaceOnUse">
<stop stop-color="#29235C"/>
<stop offset="0.22" stop-color="#2D2E83"/>
<stop offset="0.56" stop-color="#1D71B8"/>
<stop offset="0.86" stop-color="#1D71B8"/>
</linearGradient>
<linearGradient id="paint19_linear_746_830" x1="50.316" y1="76.6668" x2="45.5806" y2="68.511" gradientUnits="userSpaceOnUse">
<stop stop-color="#29235C"/>
<stop offset="0.22" stop-color="#2D2E83"/>
<stop offset="0.56" stop-color="#1D71B8"/>
<stop offset="0.86" stop-color="#1D71B8"/>
</linearGradient>
<linearGradient id="paint20_linear_746_830" x1="107.728" y1="38.5251" x2="82.7188" y2="35.5485" gradientUnits="userSpaceOnUse">
<stop stop-color="#29235C"/>
<stop offset="0.22" stop-color="#2D2E83"/>
<stop offset="0.56" stop-color="#1D71B8"/>
<stop offset="0.86" stop-color="#1D71B8"/>
</linearGradient>
<linearGradient id="paint21_linear_746_830" x1="90.8623" y1="30.4757" x2="91.1372" y2="18.2248" gradientUnits="userSpaceOnUse">
<stop stop-color="#29235C"/>
<stop offset="0.22" stop-color="#2D2E83"/>
<stop offset="0.56" stop-color="#1D71B8"/>
<stop offset="0.86" stop-color="#1D71B8"/>
</linearGradient>
<linearGradient id="paint22_linear_746_830" x1="97.3049" y1="27.1731" x2="98.5061" y2="5.65204" gradientUnits="userSpaceOnUse">
<stop stop-color="#29235C"/>
<stop offset="0.22" stop-color="#2D2E83"/>
<stop offset="0.56" stop-color="#1D71B8"/>
<stop offset="0.86" stop-color="#1D71B8"/>
</linearGradient>
<linearGradient id="paint23_linear_746_830" x1="107.262" y1="25.0788" x2="110.239" y2="0.0694214" gradientUnits="userSpaceOnUse">
<stop stop-color="#29235C"/>
<stop offset="0.22" stop-color="#2D2E83"/>
<stop offset="0.56" stop-color="#1D71B8"/>
<stop offset="0.86" stop-color="#1D71B8"/>
</linearGradient>
</defs>
</svg>
