<svg width="110" height="80" viewBox="0 0 110 80" fill="none" xmlns="http://www.w3.org/2000/svg">
<mask id="mask0_749_1771" style="mask-type:luminance" maskUnits="userSpaceOnUse" x="8" y="25" width="47" height="53">
<path d="M8.43323 71.5229L51.6863 77.0796L54.3398 56.4247L32.7375 53.6498L25.2593 27.3265L14.2952 25.8914L8.43323 71.5229Z" fill="white"/>
</mask>
<g mask="url(#mask0_749_1771)">
<path d="M31.2359 58.6837C29.6692 59.6477 28.6182 61.1182 28.3049 62.9984C28.0451 64.2476 28.0692 65.6049 28.0503 66.9936C28.0263 68.5063 27.3173 69.9035 25.6589 70.1816C24.9189 70.299 24.0387 70.2188 23.1065 69.9313L23.0073 69.7469C23.5453 69.5457 24.0827 69.3595 24.4999 69.0436C24.9988 68.6817 25.3146 68.1889 25.5036 67.6005C25.8331 66.4786 26.1427 65.2617 26.3955 64.0507C26.5292 63.4122 26.6912 62.7787 26.9203 62.1829C27.3823 61.0006 28.1689 60.0071 29.2567 59.3181C29.7999 58.9765 30.4209 58.7195 31.0735 58.5095L31.2359 58.6837Z" fill="url(#paint0_linear_749_1771)"/>
<path d="M28.9155 57.2705C27.0765 57.3218 25.4312 58.0697 24.2198 59.5417C23.3706 60.4941 22.7122 61.681 22.0015 62.8743C21.2243 64.1723 19.9118 65.0277 18.3364 64.4399C17.6371 64.1716 16.9145 63.6617 16.2513 62.9465L16.2576 62.737C16.8241 62.8316 17.3829 62.9397 17.9018 62.8737C18.5148 62.8103 19.0345 62.5413 19.4925 62.1259C20.3385 61.3189 21.215 60.4202 22.0399 59.4977C22.4748 59.0113 22.9323 58.5437 23.4279 58.1418C24.4192 57.3491 25.5972 56.8823 26.884 56.8285C27.5247 56.8042 28.1916 56.8922 28.8617 57.0366L28.9151 57.2684L28.9155 57.2705Z" fill="url(#paint1_linear_749_1771)"/>
<path d="M27.6123 54.8857C25.9941 54.0107 24.1952 53.8359 22.4106 54.5049C21.1992 54.9047 20.0356 55.6043 18.8233 56.2823C17.5013 57.0178 15.9369 57.1025 14.8664 55.8053C14.3947 55.2233 14.0238 54.4205 13.8074 53.4698L13.9171 53.2916C14.3604 53.6569 14.7903 54.0296 15.2729 54.2319C15.8359 54.4836 16.4199 54.5099 17.0244 54.38C18.1609 54.1042 19.3692 53.7639 20.5445 53.3777C21.1646 53.1741 21.7943 52.9981 22.4244 52.8979C23.6798 52.7068 24.9326 52.8919 26.0743 53.489C26.6417 53.7882 27.1749 54.1982 27.6829 54.6583L27.6123 54.8857Z" fill="url(#paint2_linear_749_1771)"/>
<path d="M27.6757 52.1698C26.7119 50.6029 25.2412 49.5521 23.361 49.2386C22.112 48.9789 20.7545 49.0029 19.3659 48.984C17.8532 48.9601 16.4559 48.2511 16.1778 46.5928C16.0604 45.8528 16.1407 44.9725 16.4282 44.0403L16.6126 43.9412C16.8138 44.4791 17 45.0164 17.3159 45.4336C17.6778 45.9327 18.1706 46.2483 18.759 46.4374C19.8809 46.7669 21.0977 47.0765 22.3088 47.3293C22.9473 47.4629 23.5808 47.6251 24.1765 47.854C25.3589 48.316 26.3523 49.1027 27.0414 50.1905C27.3831 50.7336 27.64 51.3548 27.8499 52.0072L27.6757 52.1698Z" fill="url(#paint3_linear_749_1771)"/>
<path d="M29.0891 49.8486C29.0378 48.0096 28.2899 46.3643 26.8179 45.1529C25.8655 44.3037 24.6786 43.6452 23.4853 42.9346C22.1873 42.1574 21.3319 40.8447 21.9198 39.2695C22.188 38.5701 22.6979 37.8476 23.4131 37.1843L23.6226 37.1907C23.528 37.7571 23.42 38.3159 23.4859 38.8349C23.5494 39.4478 23.8183 39.9676 24.2337 40.4256C25.0407 41.2716 25.9394 42.1481 26.862 42.973C27.3483 43.4078 27.8159 43.8653 28.2179 44.361C29.0105 45.3522 29.4774 46.5303 29.5311 47.8171C29.5554 48.4577 29.4674 49.1247 29.323 49.7948L29.0912 49.8482L29.0891 49.8486Z" fill="url(#paint4_linear_749_1771)"/>
<path d="M31.4738 48.5454C32.3489 46.9272 32.5236 45.1283 31.8546 43.3437C31.4547 42.1323 30.7552 40.9687 30.0772 39.7564C29.3416 38.4344 29.257 36.87 30.5542 35.7995C31.1362 35.3278 31.939 34.9569 32.8898 34.7405L33.0679 34.8502C32.7026 35.2935 32.3299 35.7234 32.1276 36.206C31.8759 36.769 31.8495 37.353 31.9795 37.9575C32.2553 39.094 32.5956 40.3023 32.9818 41.4776C33.1854 42.0977 33.3614 42.7273 33.4616 43.3575C33.6527 44.6128 33.4675 45.8657 32.8705 47.0074C32.5714 47.5748 32.1613 48.108 31.7012 48.616L31.4738 48.5454Z" fill="url(#paint5_linear_749_1771)"/>
<path d="M34.1898 48.6096C35.7565 47.6457 36.8075 46.1751 37.1208 44.2948C37.3806 43.0458 37.3565 41.6884 37.3754 40.2997C37.3993 38.787 38.1084 37.3898 39.7667 37.1116C40.5067 36.9942 41.387 37.0745 42.3192 37.3621L42.4184 37.5465C41.8804 37.7477 41.3431 37.9339 40.9259 38.2498C40.4269 38.6117 40.1112 39.1044 39.9221 39.6929C39.5926 40.8148 39.283 42.0315 39.0302 43.2426C38.8965 43.8811 38.7345 44.5146 38.5055 45.1104C38.0435 46.2928 37.2567 47.2862 36.169 47.9753C35.6258 48.3169 35.0048 48.5738 34.3522 48.7838L34.1898 48.6096Z" fill="url(#paint6_linear_749_1771)"/>
<path d="M36.5109 50.0223C38.3499 49.9709 39.9952 49.223 41.2066 47.751C42.0559 46.7987 42.7143 45.6118 43.4249 44.4184C44.202 43.1204 45.5147 42.265 47.09 42.8529C47.7894 43.1211 48.5119 43.6311 49.1751 44.3463L49.1688 44.5558C48.6023 44.4611 48.0435 44.3531 47.5245 44.419C46.9116 44.4825 46.3918 44.7514 45.934 45.1668C45.0879 45.9739 44.2114 46.8725 43.3865 47.795C42.9516 48.2814 42.4942 48.749 41.9985 49.1509C41.0073 49.9436 39.8293 50.4104 38.5425 50.4643C37.9017 50.4885 37.2348 50.4005 36.5647 50.2561L36.5113 50.0244L36.5109 50.0223Z" fill="url(#paint7_linear_749_1771)"/>
<path d="M37.8141 52.4068C39.4323 53.2818 41.2312 53.4566 43.0158 52.7876C44.2272 52.3878 45.3909 51.6882 46.6031 51.0102C47.9251 50.2747 49.4896 50.19 50.56 51.4872C51.0317 52.0692 51.4026 52.872 51.619 53.8227L51.5094 54.0009C51.066 53.6356 50.6361 53.2629 50.1536 53.0606C49.5905 52.8089 49.0065 52.7826 48.4021 52.9125C47.2655 53.1883 46.0573 53.5286 44.8819 53.9148C44.2618 54.1184 43.6322 54.2944 43.002 54.3946C41.7467 54.5857 40.4938 54.4006 39.3521 53.8035C38.7847 53.5044 38.2516 53.0943 37.7435 52.6342L37.8141 52.4068Z" fill="url(#paint8_linear_749_1771)"/>
<path d="M37.7506 55.1235C38.7145 56.6903 40.1851 57.7412 42.0654 58.0546C43.3144 58.3143 44.6718 58.2902 46.0605 58.3092C47.5732 58.3332 48.9704 59.0422 49.2486 60.7005C49.3659 61.4405 49.2856 62.3207 48.9982 63.2529L48.8137 63.3521C48.6126 62.8141 48.4263 62.2768 48.1104 61.8597C47.7485 61.3606 47.2558 61.0449 46.6673 60.8558C45.5454 60.5263 44.3286 60.2167 43.1176 59.9639C42.479 59.8302 41.8456 59.6682 41.2498 59.4393C40.0674 58.9773 39.074 58.1906 38.3849 57.1027C38.0433 56.5596 37.7864 55.9385 37.5764 55.286L37.7506 55.1235Z" fill="url(#paint9_linear_749_1771)"/>
<path d="M36.3373 57.4441C36.3886 59.2831 37.1366 60.9284 38.6085 62.1398C39.5609 62.989 40.7479 63.6475 41.9411 64.3581C43.2392 65.1353 44.0946 66.4479 43.5067 68.0232C43.2384 68.7226 42.7285 69.4451 42.0134 70.1084L41.8039 70.102C41.8984 69.5356 42.0065 68.9767 41.9406 68.4578C41.8771 67.8448 41.6081 67.3251 41.1927 66.8672C40.3857 66.0211 39.487 65.1446 38.5645 64.3197C38.0781 63.8848 37.6106 63.4274 37.2086 62.9317C36.4159 61.9405 35.9491 60.7624 35.8953 59.4757C35.871 58.8349 35.959 58.168 36.1034 57.4979L36.3353 57.4445L36.3373 57.4441Z" fill="url(#paint10_linear_749_1771)"/>
<path d="M33.9526 58.7472C33.0776 60.3654 32.9028 62.1642 33.5718 63.9489C33.9717 65.1603 34.6712 66.3239 35.3492 67.5362C36.0848 68.8582 36.1694 70.4226 34.8722 71.493C34.2903 71.9647 33.4874 72.3356 32.5367 72.5521L32.3585 72.4424C32.7238 71.999 33.0965 71.5691 33.2988 71.0866C33.5505 70.5235 33.5769 69.9395 33.447 69.335C33.1711 68.1986 32.8308 66.9902 32.4448 65.8149C32.241 65.1949 32.065 64.5653 31.9648 63.935C31.7738 62.6797 31.9589 61.4268 32.5559 60.2852C32.8551 59.7178 33.2651 59.1846 33.7252 58.6765L33.9526 58.7472Z" fill="url(#paint11_linear_749_1771)"/>
</g>
<path fill-rule="evenodd" clip-rule="evenodd" d="M58.7136 35.7417C55.5633 35.7417 53.2234 33.3098 53.2234 30.2359V30.2052C53.2234 27.1619 55.5168 24.6692 58.8052 24.6692C60.824 24.6692 62.0321 25.3426 63.0258 26.3213L61.5274 28.0498C60.7018 27.2999 59.861 26.8409 58.7901 26.8409C56.9851 26.8409 55.6855 28.34 55.6855 30.175V30.2059C55.6855 32.0416 56.955 33.5707 58.7901 33.5707C60.0133 33.5707 60.7625 33.081 61.6039 32.3168L63.1023 33.8302C62.0013 35.0083 60.7782 35.7417 58.7136 35.7417ZM38.3787 35.5581V27.0247H41.6351V24.8529H32.7656V27.0247H36.0233V35.5581H38.3787ZM43.4453 24.8529V35.5581L51.5962 35.5587V33.4634H45.7851V31.2152H50.8321V29.1199H45.7851V26.9482H51.5197V24.8529H43.4453ZM67.3143 28.7532L72.4979 35.5581H74.5017V24.8529H72.1776V31.4447L67.1614 24.8529H64.9897V35.5581H67.3143V28.7532ZM82.0777 35.7417C78.775 35.7417 76.4045 33.2791 76.4045 30.2359V30.2052C76.4045 27.1619 78.8051 24.6692 82.1091 24.6692C85.4131 24.6692 87.7824 27.1319 87.7824 30.175V30.2059C87.7824 33.249 85.3818 35.7417 82.0777 35.7417ZM85.3204 30.2059C85.3204 28.3707 83.9743 26.8409 82.0777 26.8409C80.1812 26.8409 78.8665 28.34 78.8665 30.175V30.2059C78.8665 32.0416 80.2126 33.5707 82.1091 33.5707C84.0056 33.5707 85.3204 32.0723 85.3204 30.2366V30.2059ZM32.7656 45.6936C32.7656 48.7675 35.1055 51.1994 38.2558 51.1994C40.3203 51.1994 41.5435 50.466 42.6444 49.2879L41.146 47.7744C40.3047 48.5387 39.5555 49.0283 38.3323 49.0283C36.4972 49.0283 35.2276 47.4992 35.2276 45.6634V45.6327C35.2276 43.7977 36.5273 42.2986 38.3323 42.2986C39.4032 42.2986 40.2438 42.7576 41.0695 43.5074L42.568 41.7789C41.5742 40.8002 40.3661 40.1269 38.3474 40.1269C35.059 40.1269 32.7656 42.6196 32.7656 45.6628V45.6936ZM44.5319 51.0157V40.3106H46.8873V48.8746H52.2245V51.0157H44.5319ZM54.11 40.3106V51.0157H56.4654V40.3106H54.11ZM67.5099 51.0157V44.0271L64.4974 48.5994H64.4366L61.4542 44.0729V51.0157H59.1451V40.3106H61.6843L64.498 44.8377L67.3125 40.3106H69.851V51.0157H67.5112H67.5099ZM79.4146 48.6152L80.3933 51.0158H82.8561L78.268 40.2341H76.0962L71.5089 51.0158H73.9094L74.8881 48.6152H79.4146ZM75.7294 46.5349L77.1514 43.0635L78.5733 46.5349H75.7294Z" fill="white"/>
<mask id="mask1_749_1771" style="mask-type:luminance" maskUnits="userSpaceOnUse" x="65" y="1" width="45" height="47">
<path d="M109.49 1.54956L65.8811 1.65416L65.9307 22.4781L87.7104 22.4265L99.4569 47.5566H109.6L109.49 1.54956Z" fill="white"/>
</mask>
<g mask="url(#mask1_749_1771)">
<path d="M88.546 17.2396C89.9745 16.0805 90.8256 14.486 90.8923 12.581C90.9878 11.3087 90.7877 9.96595 90.6263 8.58653C90.4536 7.08356 90.9754 5.60608 92.5836 5.11512C93.302 4.90265 94.1853 4.86799 95.147 5.03209L95.2691 5.20207C94.7619 5.47141 94.2533 5.72572 93.8806 6.09313C93.4327 6.51676 93.1837 7.04629 93.0726 7.65428C92.8915 8.80946 92.7424 10.0562 92.649 11.2898C92.5992 11.9403 92.5208 12.5895 92.3711 13.2099C92.0665 14.4422 91.4153 15.5294 90.4262 16.3538C89.932 16.763 89.3495 17.0984 88.7297 17.3912L88.546 17.2396Z" fill="url(#paint12_linear_749_1771)"/>
<path d="M91.0303 18.3397C92.8471 18.0502 94.3814 17.0951 95.3914 15.4783C96.1099 14.4238 96.6087 13.1614 97.1586 11.8859C97.7606 10.498 98.9511 9.47949 100.59 9.858C101.318 10.0332 102.1 10.4451 102.851 11.0681L102.872 11.2767C102.298 11.2563 101.729 11.2218 101.224 11.3544C100.624 11.497 100.144 11.831 99.7433 12.3023C99.0092 13.2124 98.2568 14.2172 97.5586 15.239C97.1906 15.7777 96.7976 16.3007 96.3583 16.7636C95.4783 17.6782 94.3709 18.294 93.102 18.5144C92.4698 18.6215 91.7971 18.6209 91.1139 18.5647L91.0309 18.3417L91.0303 18.3397Z" fill="url(#paint13_linear_749_1771)"/>
<path d="M92.6319 20.5352C94.35 21.1928 96.1563 21.1327 97.8391 20.2377C98.9883 19.6841 100.051 18.8393 101.165 18.0098C102.38 17.1089 103.921 16.8219 105.151 17.9693C105.694 18.4851 106.166 19.233 106.504 20.1475L106.419 20.3384C105.931 20.0338 105.456 19.7199 104.952 19.582C104.361 19.4055 103.779 19.4552 103.196 19.6625C102.105 20.0834 100.951 20.5777 99.8354 21.1131C99.2468 21.3955 98.6458 21.6518 98.0339 21.8329C96.814 22.1852 95.5477 22.1643 94.3382 21.7204C93.7368 21.4975 93.1549 21.1601 92.5914 20.7699L92.6319 20.5352Z" fill="url(#paint14_linear_749_1771)"/>
<path d="M92.9216 23.2371C94.0806 24.6655 95.6751 25.5166 97.5802 25.5833C98.8524 25.6788 100.195 25.4788 101.575 25.3173C103.078 25.1447 104.556 25.6664 105.046 27.2747C105.258 27.9931 105.293 28.8763 105.129 29.838L104.959 29.9602C104.689 29.453 104.436 28.9443 104.068 28.5717C103.645 28.1238 103.115 27.8748 102.507 27.7636C101.352 27.5826 100.105 27.4335 98.8713 27.34C98.2209 27.2903 97.5717 27.2118 96.9512 27.0622C95.7189 26.7575 94.6317 26.1064 93.8074 25.1173C93.3981 24.623 93.0628 24.0406 92.7699 23.4208L92.9216 23.2371Z" fill="url(#paint15_linear_749_1771)"/>
<path d="M91.8213 25.7212C92.1109 27.538 93.0661 29.0723 94.6828 30.0823C95.7373 30.8008 96.9996 31.2997 98.2751 31.8495C99.663 32.4516 100.682 33.6421 100.303 35.2804C100.128 36.0087 99.7155 36.7912 99.093 37.5417L98.8844 37.5626C98.9047 36.9887 98.9394 36.4205 98.8066 35.9145C98.6641 35.315 98.33 34.8345 97.8587 34.4344C96.9487 33.7003 95.9438 32.9478 94.922 32.2495C94.3834 31.8815 93.8603 31.4886 93.3975 31.0493C92.4829 30.1694 91.8671 29.0619 91.6468 27.793C91.5395 27.1608 91.5401 26.488 91.5964 25.8049L91.8193 25.7219L91.8213 25.7212Z" fill="url(#paint16_linear_749_1771)"/>
<path d="M89.626 27.323C88.9683 29.0411 89.0285 30.8474 89.9234 32.5301C90.4772 33.6794 91.3218 34.7424 92.1514 35.8564C93.0523 37.0717 93.3393 38.612 92.1919 39.8417C91.6762 40.385 90.9283 40.857 90.0137 41.1949L89.8227 41.1093C90.1274 40.6222 90.4412 40.1476 90.5792 39.6429C90.7557 39.052 90.706 38.4695 90.4987 37.887C90.0777 36.7958 89.5835 35.642 89.0481 34.5266C88.7657 33.9383 88.5094 33.3368 88.3283 32.7249C87.9759 31.505 87.9968 30.2387 88.4407 29.0293C88.6637 28.4279 89.001 27.8459 89.3913 27.2825L89.626 27.323Z" fill="url(#paint17_linear_749_1771)"/>
<path d="M86.9247 27.6126C85.4963 28.7717 84.645 30.3662 84.5784 32.2712C84.4829 33.5434 84.683 34.8862 84.8445 36.2656C85.017 37.7686 84.4954 39.2461 82.8871 39.737C82.1686 39.9495 81.2855 39.9842 80.3238 39.8201L80.2015 39.6501C80.7088 39.3808 81.2175 39.1265 81.5901 38.759C82.0379 38.3354 82.2869 37.8059 82.3981 37.1979C82.5792 36.0427 82.7282 34.796 82.8218 33.5624C82.8714 32.9119 82.9499 32.2627 83.0996 31.6423C83.4042 30.41 84.0554 29.3228 85.0445 28.4984C85.5388 28.0891 86.1212 27.7538 86.741 27.4609L86.9247 27.6126Z" fill="url(#paint18_linear_749_1771)"/>
<path d="M84.4398 26.5125C82.623 26.8021 81.0886 27.7572 80.0786 29.3739C79.3602 30.4284 78.8613 31.6908 78.3115 32.9663C77.7095 34.3542 76.5189 35.3728 74.8807 34.9942C74.1524 34.819 73.3698 34.4071 72.6193 33.7841L72.5984 33.5756C73.1724 33.5958 73.7404 33.6305 74.2465 33.4978C74.846 33.3553 75.3265 33.0212 75.7266 32.5498C76.4607 31.6398 77.2132 30.635 77.9114 29.6132C78.2795 29.0745 78.6724 28.5515 79.1117 28.0887C79.9916 27.1741 81.0991 26.5582 82.368 26.3379C83.0003 26.2307 83.6729 26.2314 84.3561 26.2875L84.4391 26.5105L84.4398 26.5125Z" fill="url(#paint19_linear_749_1771)"/>
<path d="M82.8381 24.3171C81.1201 23.6594 79.3137 23.7195 77.631 24.6146C76.4816 25.1683 75.4187 26.0129 74.3047 26.8425C73.0894 27.7435 71.5492 28.0304 70.3195 26.8831C69.7762 26.3673 69.3042 25.6194 68.9662 24.7048L69.0518 24.5139C69.5388 24.8185 70.0134 25.1323 70.5181 25.2702C71.1092 25.4468 71.6917 25.3971 72.2742 25.1899C73.3653 24.7688 74.5191 24.2746 75.6344 23.7392C76.2228 23.4567 76.8242 23.2005 77.4362 23.0194C78.6561 22.667 79.9224 22.6879 81.1318 23.1319C81.7333 23.3547 82.3151 23.6921 82.8787 24.0824L82.8381 24.3171Z" fill="url(#paint20_linear_749_1771)"/>
<path d="M82.5485 21.6157C81.3894 20.1872 79.7949 19.3361 77.8898 19.2694C76.6177 19.174 75.2748 19.374 73.8954 19.5355C72.3925 19.7081 70.9149 19.1863 70.424 17.5782C70.2115 16.8597 70.1769 15.9764 70.3409 15.0148L70.511 14.8926C70.7804 15.3999 71.0346 15.9084 71.402 16.2811C71.8257 16.7289 72.3552 16.978 72.9632 17.0891C74.1183 17.2703 75.3651 17.4193 76.5987 17.5128C77.2491 17.5624 77.8983 17.6409 78.5187 17.7906C79.7511 18.0953 80.8382 18.7464 81.6626 19.7356C82.0719 20.2298 82.4073 20.8123 82.7002 21.432L82.5485 21.6157Z" fill="url(#paint21_linear_749_1771)"/>
<path d="M83.6488 19.131C83.3591 17.3142 82.404 15.7799 80.7873 14.7697C79.7328 14.0513 78.4703 13.5525 77.1949 13.0027C75.807 12.4006 74.7884 11.2101 75.167 9.57179C75.3422 8.84351 75.754 8.06098 76.3771 7.31047L76.5856 7.28955C76.5654 7.86354 76.5307 8.43166 76.6634 8.93766C76.806 9.53715 77.14 10.0177 77.6114 10.4177C78.5214 11.1519 79.5261 11.9044 80.548 12.6025C81.0867 12.9707 81.6097 13.3635 82.0726 13.8028C82.9872 14.6828 83.603 15.7903 83.8233 17.0592C83.9305 17.6914 83.9298 18.3641 83.8736 19.0473L83.6508 19.1303L83.6488 19.131Z" fill="url(#paint22_linear_749_1771)"/>
<path d="M85.844 17.5292C86.5017 15.8111 86.4416 14.0048 85.5466 12.322C84.9929 11.1728 84.1482 10.1097 83.3186 8.99575C82.4178 7.78043 82.1308 6.2402 83.278 5.01049C83.7939 4.46722 84.5418 3.99521 85.4563 3.65723L85.6473 3.74287C85.3426 4.22991 85.0288 4.70454 84.8909 5.20923C84.7144 5.80022 84.764 6.38272 84.9713 6.9652C85.3923 8.05631 85.8865 9.21019 86.422 10.3255C86.7044 10.9139 86.9607 11.5153 87.1417 12.1272C87.4941 13.3471 87.4732 14.6135 87.0293 15.8229C86.8064 16.4243 86.469 17.0061 86.0788 17.5697L85.844 17.5292Z" fill="url(#paint23_linear_749_1771)"/>
</g>
<defs>
<linearGradient id="paint0_linear_749_1771" x1="34.1353" y1="60.6954" x2="21.2482" y2="73.9269" gradientUnits="userSpaceOnUse">
<stop stop-color="#E3312D"/>
<stop offset="0.22" stop-color="#E95F32"/>
<stop offset="0.56" stop-color="#F18F34"/>
<stop offset="0.86" stop-color="#FDC800"/>
<stop offset="0.9" stop-color="#FDCB03"/>
<stop offset="0.95" stop-color="#FDD70E"/>
<stop offset="0.99" stop-color="#FEE921"/>
<stop offset="1" stop-color="#FFEF26"/>
</linearGradient>
<linearGradient id="paint1_linear_749_1771" x1="-55.8443" y1="-145.934" x2="-72.2502" y2="-139.117" gradientUnits="userSpaceOnUse">
<stop stop-color="#E3312D"/>
<stop offset="0.22" stop-color="#E95F32"/>
<stop offset="0.56" stop-color="#F18F34"/>
<stop offset="0.86" stop-color="#FDC800"/>
<stop offset="0.9" stop-color="#FDCB03"/>
<stop offset="0.95" stop-color="#FDD70E"/>
<stop offset="0.99" stop-color="#FEE921"/>
<stop offset="1" stop-color="#FFEF26"/>
</linearGradient>
<linearGradient id="paint2_linear_749_1771" x1="27.3198" y1="58.4023" x2="9.41754" y2="53.8575" gradientUnits="userSpaceOnUse">
<stop stop-color="#E3312D"/>
<stop offset="0.22" stop-color="#E95F32"/>
<stop offset="0.56" stop-color="#F18F34"/>
<stop offset="0.86" stop-color="#FDC800"/>
<stop offset="0.9" stop-color="#FDCB03"/>
<stop offset="0.95" stop-color="#FDD70E"/>
<stop offset="0.99" stop-color="#FEE921"/>
<stop offset="1" stop-color="#FFEF26"/>
</linearGradient>
<linearGradient id="paint3_linear_749_1771" x1="30.3811" y1="48.2566" x2="13.6537" y2="55.4205" gradientUnits="userSpaceOnUse">
<stop stop-color="#E3312D"/>
<stop offset="0.22" stop-color="#E95F32"/>
<stop offset="0.56" stop-color="#F18F34"/>
<stop offset="0.86" stop-color="#FDC800"/>
<stop offset="0.9" stop-color="#FDCB03"/>
<stop offset="0.95" stop-color="#FDD70E"/>
<stop offset="0.99" stop-color="#FEE921"/>
<stop offset="1" stop-color="#FFEF26"/>
</linearGradient>
<linearGradient id="paint4_linear_749_1771" x1="31.7369" y1="42.6793" x2="17.2471" y2="44.1863" gradientUnits="userSpaceOnUse">
<stop stop-color="#E3312D"/>
<stop offset="0.22" stop-color="#E95F32"/>
<stop offset="0.56" stop-color="#F18F34"/>
<stop offset="0.86" stop-color="#FDC800"/>
<stop offset="0.9" stop-color="#FDCB03"/>
<stop offset="0.95" stop-color="#FDD70E"/>
<stop offset="0.99" stop-color="#FEE921"/>
<stop offset="1" stop-color="#FFEF26"/>
</linearGradient>
<linearGradient id="paint5_linear_749_1771" x1="27.9572" y1="48.2528" x2="32.5019" y2="30.3513" gradientUnits="userSpaceOnUse">
<stop stop-color="#E3312D"/>
<stop offset="0.22" stop-color="#E95F32"/>
<stop offset="0.56" stop-color="#F18F34"/>
<stop offset="0.86" stop-color="#FDC800"/>
<stop offset="0.9" stop-color="#FDCB03"/>
<stop offset="0.95" stop-color="#FDD70E"/>
<stop offset="0.99" stop-color="#FEE921"/>
<stop offset="1" stop-color="#FFEF26"/>
</linearGradient>
<linearGradient id="paint6_linear_749_1771" x1="209.196" y1="182.209" x2="219.996" y2="168.103" gradientUnits="userSpaceOnUse">
<stop stop-color="#E3312D"/>
<stop offset="0.22" stop-color="#E95F32"/>
<stop offset="0.56" stop-color="#F18F34"/>
<stop offset="0.86" stop-color="#FDC800"/>
<stop offset="0.9" stop-color="#FDCB03"/>
<stop offset="0.95" stop-color="#FDD70E"/>
<stop offset="0.99" stop-color="#FEE921"/>
<stop offset="1" stop-color="#FFEF26"/>
</linearGradient>
<linearGradient id="paint7_linear_749_1771" x1="35.006" y1="46.8312" x2="52.7822" y2="41.8159" gradientUnits="userSpaceOnUse">
<stop stop-color="#E3312D"/>
<stop offset="0.22" stop-color="#E95F32"/>
<stop offset="0.56" stop-color="#F18F34"/>
<stop offset="0.86" stop-color="#FDC800"/>
<stop offset="0.9" stop-color="#FDCB03"/>
<stop offset="0.95" stop-color="#FDD70E"/>
<stop offset="0.99" stop-color="#FEE921"/>
<stop offset="1" stop-color="#FFEF26"/>
</linearGradient>
<linearGradient id="paint8_linear_749_1771" x1="38.1067" y1="48.8902" x2="56.0089" y2="53.435" gradientUnits="userSpaceOnUse">
<stop stop-color="#E3312D"/>
<stop offset="0.22" stop-color="#E95F32"/>
<stop offset="0.56" stop-color="#F18F34"/>
<stop offset="0.86" stop-color="#FDC800"/>
<stop offset="0.9" stop-color="#FDCB03"/>
<stop offset="0.95" stop-color="#FDD70E"/>
<stop offset="0.99" stop-color="#FEE921"/>
<stop offset="1" stop-color="#FFEF26"/>
</linearGradient>
<linearGradient id="paint9_linear_749_1771" x1="42.212" y1="54.6253" x2="42.6681" y2="65.8602" gradientUnits="userSpaceOnUse">
<stop stop-color="#E3312D"/>
<stop offset="0.22" stop-color="#E95F32"/>
<stop offset="0.56" stop-color="#F18F34"/>
<stop offset="0.86" stop-color="#FDC800"/>
<stop offset="0.9" stop-color="#FDCB03"/>
<stop offset="0.95" stop-color="#FDD70E"/>
<stop offset="0.99" stop-color="#FEE921"/>
<stop offset="1" stop-color="#FFEF26"/>
</linearGradient>
<linearGradient id="paint10_linear_749_1771" x1="39.4891" y1="55.9507" x2="44.5041" y2="73.7263" gradientUnits="userSpaceOnUse">
<stop stop-color="#E3312D"/>
<stop offset="0.22" stop-color="#E95F32"/>
<stop offset="0.56" stop-color="#F18F34"/>
<stop offset="0.86" stop-color="#FDC800"/>
<stop offset="0.9" stop-color="#FDCB03"/>
<stop offset="0.95" stop-color="#FDD70E"/>
<stop offset="0.99" stop-color="#FEE921"/>
<stop offset="1" stop-color="#FFEF26"/>
</linearGradient>
<linearGradient id="paint11_linear_749_1771" x1="37.4691" y1="59.0403" x2="32.9244" y2="76.942" gradientUnits="userSpaceOnUse">
<stop stop-color="#E3312D"/>
<stop offset="0.22" stop-color="#E95F32"/>
<stop offset="0.56" stop-color="#F18F34"/>
<stop offset="0.86" stop-color="#FDC800"/>
<stop offset="0.9" stop-color="#FDCB03"/>
<stop offset="0.95" stop-color="#FDD70E"/>
<stop offset="0.99" stop-color="#FEE921"/>
<stop offset="1" stop-color="#FFEF26"/>
</linearGradient>
<linearGradient id="paint12_linear_749_1771" x1="88.7768" y1="17.5445" x2="90.0538" y2="0.981582" gradientUnits="userSpaceOnUse">
<stop stop-color="#29235C"/>
<stop offset="0.22" stop-color="#2D2E83"/>
<stop offset="0.56" stop-color="#1D71B8"/>
<stop offset="0.86" stop-color="#1D71B8"/>
</linearGradient>
<linearGradient id="paint13_linear_749_1771" x1="90.8988" y1="9.8408" x2="106.68" y2="10.7215" gradientUnits="userSpaceOnUse">
<stop stop-color="#29235C"/>
<stop offset="0.22" stop-color="#2D2E83"/>
<stop offset="0.56" stop-color="#1D71B8"/>
<stop offset="0.86" stop-color="#1D71B8"/>
</linearGradient>
<linearGradient id="paint14_linear_749_1771" x1="92.437" y1="17.251" x2="110.777" y2="19.4338" gradientUnits="userSpaceOnUse">
<stop stop-color="#29235C"/>
<stop offset="0.22" stop-color="#2D2E83"/>
<stop offset="0.56" stop-color="#1D71B8"/>
<stop offset="0.86" stop-color="#1D71B8"/>
</linearGradient>
<linearGradient id="paint15_linear_749_1771" x1="92.6315" y1="23.2846" x2="109.194" y2="24.5613" gradientUnits="userSpaceOnUse">
<stop stop-color="#29235C"/>
<stop offset="0.22" stop-color="#2D2E83"/>
<stop offset="0.56" stop-color="#1D71B8"/>
<stop offset="0.86" stop-color="#1D71B8"/>
</linearGradient>
<linearGradient id="paint16_linear_749_1771" x1="91.4609" y1="25.805" x2="103.246" y2="26.1703" gradientUnits="userSpaceOnUse">
<stop stop-color="#29235C"/>
<stop offset="0.22" stop-color="#2D2E83"/>
<stop offset="0.56" stop-color="#1D71B8"/>
<stop offset="0.86" stop-color="#1D71B8"/>
</linearGradient>
<linearGradient id="paint17_linear_749_1771" x1="92.9102" y1="27.128" x2="90.7273" y2="45.468" gradientUnits="userSpaceOnUse">
<stop stop-color="#29235C"/>
<stop offset="0.22" stop-color="#2D2E83"/>
<stop offset="0.56" stop-color="#1D71B8"/>
<stop offset="0.86" stop-color="#1D71B8"/>
</linearGradient>
<linearGradient id="paint18_linear_749_1771" x1="89.8662" y1="29.0854" x2="78.8058" y2="43.8769" gradientUnits="userSpaceOnUse">
<stop stop-color="#29235C"/>
<stop offset="0.22" stop-color="#2D2E83"/>
<stop offset="0.56" stop-color="#1D71B8"/>
<stop offset="0.86" stop-color="#1D71B8"/>
</linearGradient>
<linearGradient id="paint19_linear_749_1771" x1="40.9316" y1="55.5721" x2="37.459" y2="49.5912" gradientUnits="userSpaceOnUse">
<stop stop-color="#29235C"/>
<stop offset="0.22" stop-color="#2D2E83"/>
<stop offset="0.56" stop-color="#1D71B8"/>
<stop offset="0.86" stop-color="#1D71B8"/>
</linearGradient>
<linearGradient id="paint20_linear_749_1771" x1="83.0338" y1="27.6013" x2="64.6937" y2="25.4185" gradientUnits="userSpaceOnUse">
<stop stop-color="#29235C"/>
<stop offset="0.22" stop-color="#2D2E83"/>
<stop offset="0.56" stop-color="#1D71B8"/>
<stop offset="0.86" stop-color="#1D71B8"/>
</linearGradient>
<linearGradient id="paint21_linear_749_1771" x1="70.6656" y1="21.6984" x2="70.8672" y2="12.7144" gradientUnits="userSpaceOnUse">
<stop stop-color="#29235C"/>
<stop offset="0.22" stop-color="#2D2E83"/>
<stop offset="0.56" stop-color="#1D71B8"/>
<stop offset="0.86" stop-color="#1D71B8"/>
</linearGradient>
<linearGradient id="paint22_linear_749_1771" x1="75.3902" y1="19.2766" x2="76.271" y2="3.49447" gradientUnits="userSpaceOnUse">
<stop stop-color="#29235C"/>
<stop offset="0.22" stop-color="#2D2E83"/>
<stop offset="0.56" stop-color="#1D71B8"/>
<stop offset="0.86" stop-color="#1D71B8"/>
</linearGradient>
<linearGradient id="paint23_linear_749_1771" x1="82.6923" y1="17.7407" x2="84.8755" y2="-0.599482" gradientUnits="userSpaceOnUse">
<stop stop-color="#29235C"/>
<stop offset="0.22" stop-color="#2D2E83"/>
<stop offset="0.56" stop-color="#1D71B8"/>
<stop offset="0.86" stop-color="#1D71B8"/>
</linearGradient>
</defs>
</svg>
