<svg width="110" height="80" viewBox="0 0 110 80" fill="none" xmlns="http://www.w3.org/2000/svg">
<mask id="mask0_735_33686" style="mask-type:luminance" maskUnits="userSpaceOnUse" x="8" y="25" width="47" height="52">
<path d="M8.43322 71.1625L51.6863 76.7192L54.3398 56.0642L32.7375 53.2893L25.2593 26.9661L14.2952 25.5309L8.43322 71.1625Z" fill="white"/>
</mask>
<g mask="url(#mask0_735_33686)">
<path d="M31.2359 58.3233C29.6692 59.2872 28.6182 60.7578 28.3049 62.638C28.0451 63.8871 28.0692 65.2445 28.0503 66.6331C28.0263 68.1459 27.3174 69.5431 25.6589 69.8212C24.919 69.9386 24.0388 69.8583 23.1065 69.5708L23.0073 69.3864C23.5454 69.1852 24.0827 68.999 24.4999 68.6831C24.9988 68.3212 25.3146 67.8285 25.5037 67.24C25.8332 66.1181 26.1427 64.9013 26.3955 63.6903C26.5292 63.0517 26.6913 62.4183 26.9203 61.8225C27.3823 60.6401 28.1689 59.6467 29.2567 58.9576C29.7999 58.616 30.421 58.3591 31.0735 58.1491L31.2359 58.3233Z" fill="url(#paint0_linear_735_33686)"/>
<path d="M28.9155 56.9099C27.0766 56.9613 25.4312 57.7092 24.2198 59.1812C23.3706 60.1335 22.7122 61.3204 22.0015 62.5138C21.2244 63.8118 19.9118 64.6672 18.3364 64.0794C17.6371 63.8111 16.9145 63.3011 16.2513 62.5859L16.2576 62.3764C16.8242 62.4711 17.3829 62.5792 17.9019 62.5132C18.5148 62.4498 19.0346 62.1808 19.4925 61.7654C20.3385 60.9583 21.215 60.0597 22.0399 59.1372C22.4748 58.6508 22.9323 58.1832 23.4279 57.7813C24.4192 56.9886 25.5972 56.5218 26.884 56.468C27.5247 56.4437 28.1916 56.5317 28.8617 56.6761L28.9151 56.9079L28.9155 56.9099Z" fill="url(#paint1_linear_735_33686)"/>
<path d="M27.6123 54.5253C25.9941 53.6503 24.1952 53.4755 22.4106 54.1445C21.1992 54.5443 20.0356 55.2439 18.8233 55.9219C17.5013 56.6574 15.9369 56.7421 14.8665 55.4449C14.3947 54.8629 14.0238 54.06 13.8074 53.1094L13.9171 52.9312C14.3605 53.2965 14.7903 53.6692 15.2729 53.8715C15.8359 54.1232 16.4199 54.1495 17.0244 54.0196C18.1609 53.7438 19.3692 53.4035 20.5445 53.0173C21.1646 52.8137 21.7943 52.6377 22.4244 52.5375C23.6798 52.3464 24.9326 52.5315 26.0743 53.1286C26.6417 53.4278 27.1749 53.8378 27.6829 54.2979L27.6123 54.5253Z" fill="url(#paint2_linear_735_33686)"/>
<path d="M27.6757 51.8093C26.7119 50.2424 25.2412 49.1916 23.361 48.8781C22.112 48.6184 20.7545 48.6425 19.3659 48.6236C17.8532 48.5997 16.4559 47.8906 16.1778 46.2323C16.0604 45.4923 16.1407 44.612 16.4282 43.6798L16.6126 43.5807C16.8138 44.1186 17 44.6559 17.3159 45.0731C17.6778 45.5722 18.1706 45.8878 18.759 46.0769C19.8809 46.4064 21.0977 46.716 22.3088 46.9688C22.9473 47.1025 23.5808 47.2646 24.1765 47.4935C25.3589 47.9555 26.3523 48.7423 27.0414 49.83C27.3831 50.3732 27.64 50.9943 27.8499 51.6468L27.6757 51.8093Z" fill="url(#paint3_linear_735_33686)"/>
<path d="M29.0892 49.4882C29.0378 47.6492 28.2899 46.0039 26.8179 44.7925C25.8656 43.9433 24.6786 43.2848 23.4853 42.5742C22.1873 41.797 21.3319 40.4844 21.9198 38.9091C22.188 38.2097 22.698 37.4872 23.4132 36.8239L23.6226 36.8303C23.528 37.3967 23.42 37.9555 23.4859 38.4745C23.5494 39.0875 23.8183 39.6072 24.2337 40.0652C25.0408 40.9112 25.9394 41.7877 26.862 42.6126C27.3483 43.0475 27.8159 43.5049 28.2179 44.0006C29.0105 44.9918 29.4774 46.1699 29.5311 47.4567C29.5554 48.0973 29.4674 48.7643 29.323 49.4344L29.0912 49.4878L29.0892 49.4882Z" fill="url(#paint4_linear_735_33686)"/>
<path d="M31.4738 48.185C32.3489 46.5668 32.5236 44.7679 31.8546 42.9832C31.4548 41.7719 30.7552 40.6082 30.0772 39.396C29.3417 38.074 29.257 36.5096 30.5542 35.4391C31.1362 34.9674 31.939 34.5965 32.8898 34.3801L33.0679 34.4898C32.7026 34.9331 32.3299 35.363 32.1276 35.8455C31.8759 36.4086 31.8496 36.9926 31.9795 37.5971C32.2553 38.7336 32.5956 39.9419 32.9818 41.1172C33.1854 41.7373 33.3614 42.3668 33.4616 42.9971C33.6527 44.2524 33.4676 45.5053 32.8705 46.6469C32.5714 47.2144 32.1613 47.7475 31.7012 48.2556L31.4738 48.185Z" fill="url(#paint5_linear_735_33686)"/>
<path d="M34.1898 48.2491C35.7565 47.2851 36.8075 45.8146 37.1208 43.9343C37.3806 42.6852 37.3565 41.3279 37.3754 39.9391C37.3993 38.4265 38.1084 37.0293 39.7667 36.7511C40.5067 36.6337 41.387 36.7139 42.3192 37.0015L42.4184 37.1859C41.8804 37.3871 41.3431 37.5733 40.9259 37.8893C40.4269 38.2512 40.1112 38.7439 39.9221 39.3323C39.5926 40.4542 39.283 41.671 39.0302 42.8821C38.8965 43.5206 38.7345 44.1541 38.5055 44.7499C38.0435 45.9322 37.2567 46.9257 36.169 47.6147C35.6258 47.9563 35.0048 48.2133 34.3522 48.4233L34.1898 48.2491Z" fill="url(#paint6_linear_735_33686)"/>
<path d="M36.5109 49.6618C38.35 49.6105 39.9952 48.8626 41.2066 47.3906C42.0559 46.4382 42.7143 45.2513 43.4249 44.058C44.2021 42.76 45.5147 41.9045 47.09 42.4925C47.7895 42.7607 48.5119 43.2706 49.1752 43.9858L49.1688 44.1953C48.6024 44.1007 48.0435 43.9927 47.5246 44.0586C46.9116 44.1221 46.3919 44.3909 45.934 44.8064C45.0879 45.6134 44.2114 46.5121 43.3865 47.4346C42.9516 47.921 42.4942 48.3886 41.9985 48.7904C41.0073 49.5831 39.8293 50.05 38.5425 50.1038C37.9017 50.1281 37.2348 50.0401 36.5647 49.8957L36.5113 49.6639L36.5109 49.6618Z" fill="url(#paint7_linear_735_33686)"/>
<path d="M37.8141 52.0464C39.4323 52.9215 41.2312 53.0963 43.0159 52.4273C44.2272 52.0274 45.391 51.3279 46.6031 50.6498C47.9251 49.9143 49.4896 49.8297 50.56 51.1269C51.0317 51.7089 51.4026 52.5117 51.619 53.4624L51.5094 53.6406C51.066 53.2753 50.6361 52.9026 50.1536 52.7003C49.5905 52.4486 49.0065 52.4222 48.4021 52.5522C47.2655 52.8279 46.0573 53.1683 44.8819 53.5544C44.2618 53.7581 43.6322 53.9341 43.002 54.0343C41.7467 54.2253 40.4938 54.0402 39.3522 53.4432C38.7847 53.1441 38.2517 52.734 37.7435 52.2739L37.8141 52.0464Z" fill="url(#paint8_linear_735_33686)"/>
<path d="M37.7506 54.7632C38.7146 56.3299 40.1851 57.3809 42.0654 57.6942C43.3144 57.9539 44.6718 57.9299 46.0605 57.9488C47.5732 57.9728 48.9704 58.6818 49.2486 60.3402C49.3659 61.0801 49.2857 61.9603 48.9982 62.8925L48.8137 62.9917C48.6126 62.4537 48.4264 61.9164 48.1104 61.4993C47.7485 61.0002 47.2558 60.6845 46.6674 60.4954C45.5455 60.1659 44.3286 59.8564 43.1176 59.6035C42.479 59.4699 41.8456 59.3078 41.2498 59.0789C40.0675 58.6169 39.074 57.8302 38.3849 56.7424C38.0434 56.1992 37.7864 55.5781 37.5764 54.9256L37.7506 54.7632Z" fill="url(#paint9_linear_735_33686)"/>
<path d="M36.3373 57.0836C36.3886 58.9225 37.1366 60.5679 38.6085 61.7793C39.5609 62.6284 40.7479 63.287 41.9411 63.9976C43.2392 64.7747 44.0946 66.0874 43.5067 67.6627C43.2384 68.362 42.7285 69.0846 42.0134 69.7478L41.8039 69.7415C41.8984 69.175 42.0065 68.6162 41.9406 68.0972C41.8771 67.4843 41.6081 66.9645 41.1927 66.5067C40.3857 65.6606 39.487 64.7841 38.5645 63.9592C38.0781 63.5243 37.6106 63.0669 37.2086 62.5712C36.416 61.58 35.9491 60.4019 35.8953 59.1152C35.871 58.4744 35.959 57.8075 36.1034 57.1374L36.3353 57.084L36.3373 57.0836Z" fill="url(#paint10_linear_735_33686)"/>
<path d="M33.9526 58.3868C33.0776 60.005 32.9028 61.8038 33.5718 63.5885C33.9717 64.7999 34.6712 65.9635 35.3492 67.1758C36.0848 68.4978 36.1694 70.0623 34.8722 71.1326C34.2903 71.6043 33.4874 71.9753 32.5367 72.1917L32.3585 72.082C32.7238 71.6386 33.0965 71.2087 33.2988 70.7262C33.5505 70.1632 33.5769 69.5792 33.447 68.9747C33.1711 67.8382 32.8308 66.6299 32.4448 65.4546C32.241 64.8345 32.065 64.2049 31.9648 63.5746C31.7738 62.3194 31.9589 61.0664 32.5559 59.9248C32.8551 59.3574 33.2651 58.8242 33.7252 58.3161L33.9526 58.3868Z" fill="url(#paint11_linear_735_33686)"/>
</g>
<path fill-rule="evenodd" clip-rule="evenodd" d="M58.7136 35.3815C55.5633 35.3815 53.2234 32.9496 53.2234 29.8756V29.8449C53.2234 26.8017 55.5168 24.3089 58.8052 24.3089C60.824 24.3089 62.0321 24.9823 63.0258 25.961L61.5274 27.6895C60.7018 26.9396 59.861 26.4807 58.7901 26.4807C56.9851 26.4807 55.6855 27.9797 55.6855 29.8148V29.8456C55.6855 31.6813 56.955 33.2104 58.7901 33.2104C60.0133 33.2104 60.7625 32.7207 61.6039 31.9565L63.1023 33.4699C62.0013 34.648 60.7782 35.3815 58.7136 35.3815ZM38.3787 35.1978V26.6644H41.6351V24.4926H32.7656V26.6644H36.0233V35.1978H38.3787ZM43.4453 24.4926V35.1978L51.5962 35.1984V33.1032H45.7851V30.8549H50.8321V28.7596H45.7851V26.5879H51.5197V24.4926H43.4453ZM67.3143 28.3929L72.4979 35.1978H74.5017V24.4926H72.1776V31.0844L67.1614 24.4926H64.9897V35.1978H67.3143V28.3929ZM82.0777 35.3815C78.775 35.3815 76.4045 32.9188 76.4045 29.8756V29.8449C76.4045 26.8017 78.8051 24.3089 82.1091 24.3089C85.4131 24.3089 87.7824 26.7716 87.7824 29.8148V29.8456C87.7824 32.8887 85.3818 35.3815 82.0777 35.3815ZM85.3204 29.8456C85.3204 28.0105 83.9743 26.4807 82.0777 26.4807C80.1812 26.4807 78.8665 27.9797 78.8665 29.8148V29.8456C78.8665 31.6813 80.2126 33.2104 82.1091 33.2104C84.0056 33.2104 85.3204 31.712 85.3204 29.8763V29.8456ZM32.7656 45.3333C32.7656 48.4072 35.1055 50.8391 38.2558 50.8391C40.3203 50.8391 41.5435 50.1057 42.6444 48.9276L41.146 47.4142C40.3047 48.1784 39.5555 48.6681 38.3323 48.6681C36.4972 48.6681 35.2276 47.139 35.2276 45.3032V45.2724C35.2276 43.4374 36.5273 41.9384 38.3323 41.9384C39.4032 41.9384 40.2438 42.3973 41.0695 43.1472L42.568 41.4186C41.5742 40.44 40.3661 39.7666 38.3474 39.7666C35.059 39.7666 32.7656 42.2593 32.7656 45.3026V45.3333ZM44.5319 50.6554V39.9503H46.8873V48.5144H52.2245V50.6554H44.5319ZM54.11 39.9503V50.6554H56.4654V39.9503H54.11ZM67.5099 50.6554V43.6668L64.4974 48.2392H64.4366L61.4542 43.7126V50.6554H59.1451V39.9503H61.6843L64.498 44.4775L67.3125 39.9503H69.851V50.6554H67.5112H67.5099ZM79.4146 48.2549L80.3933 50.6555H82.8561L78.268 39.8738H76.0962L71.5089 50.6555H73.9094L74.8881 48.2549H79.4146ZM75.7294 46.1746L77.1514 42.7032L78.5733 46.1746H75.7294Z" fill="#2E2E2E"/>
<mask id="mask1_735_33686" style="mask-type:luminance" maskUnits="userSpaceOnUse" x="65" y="1" width="45" height="47">
<path d="M109.49 1.18919L65.8811 1.29379L65.9307 22.1177L87.7104 22.0661L99.4569 47.1962H109.6L109.49 1.18919Z" fill="white"/>
</mask>
<g mask="url(#mask1_735_33686)">
<path d="M88.5459 16.8793C89.9744 15.7201 90.8256 14.1256 90.8923 12.2206C90.9877 10.9484 90.7877 9.60557 90.6262 8.22616C90.4536 6.72319 90.9753 5.24571 92.5835 4.75474C93.302 4.54227 94.1853 4.50762 95.1469 4.67172L95.2691 4.84169C94.7618 5.11103 94.2532 5.36534 93.8805 5.73275C93.4327 6.15638 93.1837 6.68592 93.0726 7.29391C92.8914 8.44909 92.7424 9.6958 92.6489 10.9294C92.5992 11.5799 92.5208 12.2291 92.3711 12.8495C92.0664 14.0818 91.4152 15.169 90.4261 15.9934C89.9319 16.4026 89.3494 16.738 88.7297 17.0309L88.5459 16.8793Z" fill="url(#paint12_linear_735_33686)"/>
<path d="M91.0303 17.9794C92.847 17.6899 94.3814 16.7348 95.3914 15.118C96.1099 14.0635 96.6086 12.8011 97.1585 11.5256C97.7606 10.1377 98.951 9.11919 100.59 9.49771C101.318 9.67291 102.1 10.0848 102.851 10.7078L102.872 10.9164C102.298 10.896 101.729 10.8615 101.224 10.9942C100.624 11.1367 100.144 11.4707 99.7432 11.942C99.0092 12.8521 98.2568 13.8569 97.5586 14.8787C97.1906 15.4174 96.7976 15.9404 96.3583 16.4033C95.4783 17.3179 94.3709 17.9337 93.102 18.1541C92.4698 18.2612 91.7971 18.2606 91.1139 18.2044L91.0308 17.9814L91.0303 17.9794Z" fill="url(#paint13_linear_735_33686)"/>
<path d="M92.6319 20.1748C94.35 20.8324 96.1562 20.7723 97.8391 19.8773C98.9883 19.3236 100.051 18.4789 101.165 17.6493C102.38 16.7484 103.921 16.4614 105.151 17.6088C105.694 18.1246 106.166 18.8725 106.504 19.7871L106.419 19.978C105.931 19.6733 105.456 19.3595 104.952 19.2216C104.361 19.0451 103.779 19.0948 103.196 19.302C102.105 19.723 100.951 20.2173 99.8354 20.7526C99.2467 21.0351 98.6458 21.2913 98.0339 21.4725C96.814 21.8248 95.5477 21.8039 94.3382 21.36C93.7367 21.137 93.1549 20.7997 92.5914 20.4095L92.6319 20.1748Z" fill="url(#paint14_linear_735_33686)"/>
<path d="M92.9216 22.8767C94.0806 24.3051 95.6751 25.1563 97.5802 25.223C98.8523 25.3184 100.195 25.1184 101.575 24.9569C103.078 24.7844 104.555 25.306 105.046 26.9143C105.258 27.6328 105.293 28.516 105.129 29.4776L104.959 29.5999C104.689 29.0926 104.436 28.5839 104.068 28.2113C103.645 27.7635 103.115 27.5145 102.507 27.4033C101.352 27.2222 100.105 27.0732 98.8713 26.9796C98.2209 26.93 97.5717 26.8515 96.9512 26.7019C95.7189 26.3971 94.6317 25.746 93.8074 24.7569C93.3981 24.2626 93.0628 23.6802 92.7698 23.0605L92.9216 22.8767Z" fill="url(#paint15_linear_735_33686)"/>
<path d="M91.8213 25.3609C92.1109 27.1777 93.066 28.7121 94.6827 29.7221C95.7373 30.4406 96.9996 30.9394 98.2751 31.4892C99.663 32.0914 100.682 33.2818 100.303 34.9201C100.128 35.6484 99.7155 36.4309 99.0929 37.1815L98.8843 37.2024C98.9047 36.6284 98.9393 36.0603 98.8066 35.5543C98.6641 34.9547 98.33 34.4743 97.8587 34.0741C96.9486 33.34 95.9438 32.5875 94.922 31.8893C94.3834 31.5212 93.8603 31.1283 93.3974 30.689C92.4828 29.8091 91.867 28.7017 91.6467 27.4327C91.5395 26.8006 91.5401 26.1278 91.5964 25.4447L91.8193 25.3616L91.8213 25.3609Z" fill="url(#paint16_linear_735_33686)"/>
<path d="M89.626 26.9627C88.9683 28.6808 89.0284 30.487 89.9234 32.1697C90.4772 33.3191 91.3218 34.382 92.1513 35.4961C93.0523 36.7114 93.3393 38.2517 92.1919 39.4814C91.6762 40.0246 90.9283 40.4966 90.0137 40.8346L89.8227 40.749C90.1273 40.2619 90.4412 39.7873 90.5791 39.2826C90.7556 38.6917 90.706 38.1092 90.4987 37.5266C90.0777 36.4355 89.5835 35.2817 89.0481 34.1663C88.7656 33.5779 88.5094 32.9765 88.3283 32.3646C87.9759 31.1447 87.9968 29.8784 88.4407 28.669C88.6637 28.0675 89.001 27.4856 89.3912 26.9221L89.626 26.9627Z" fill="url(#paint17_linear_735_33686)"/>
<path d="M86.9247 27.2523C85.4963 28.4114 84.645 30.0059 84.5784 31.9109C84.4829 33.1831 84.6829 34.5259 84.8445 35.9053C85.017 37.4083 84.4954 38.8858 82.8871 39.3767C82.1686 39.5892 81.2854 39.6239 80.3238 39.4598L80.2015 39.2898C80.7088 39.0205 81.2175 38.7662 81.5901 38.3987C82.0379 37.9751 82.2869 37.4456 82.3981 36.8376C82.5792 35.6824 82.7282 34.4356 82.8218 33.2021C82.8714 32.5516 82.9499 31.9024 83.0995 31.282C83.4042 30.0497 84.0554 28.9625 85.0445 28.1381C85.5388 27.7288 86.1212 27.3935 86.7409 27.1006L86.9247 27.2523Z" fill="url(#paint18_linear_735_33686)"/>
<path d="M84.4398 26.1521C82.623 26.4416 81.0886 27.3967 80.0786 29.0134C79.3601 30.068 78.8613 31.3304 78.3115 32.6059C77.7094 33.9938 76.5189 35.0123 74.8807 34.6337C74.1524 34.4585 73.3698 34.0467 72.6193 33.4236L72.5984 33.2151C73.1724 33.2354 73.7404 33.27 74.2465 33.1373C74.846 32.9948 75.3265 32.6608 75.7266 32.1894C76.4607 31.2793 77.2132 30.2746 77.9114 29.2528C78.2795 28.7141 78.6724 28.191 79.1117 27.7282C79.9916 26.8136 81.0991 26.1977 82.368 25.9774C83.0002 25.8702 83.6729 25.8709 84.3561 25.9271L84.4391 26.1501L84.4398 26.1521Z" fill="url(#paint19_linear_735_33686)"/>
<path d="M82.8381 23.9567C81.12 23.299 79.3137 23.3591 77.631 24.2542C76.4816 24.8079 75.4187 25.6525 74.3047 26.4822C73.0893 27.3831 71.5492 27.6701 70.3194 26.5227C69.7762 26.0069 69.3042 25.259 68.9661 24.3444L69.0518 24.1535C69.5388 24.4582 70.0134 24.7719 70.5181 24.9098C71.1092 25.0864 71.6917 25.0367 72.2742 24.8295C73.3652 24.4084 74.519 23.9142 75.6344 23.3788C76.2228 23.0963 76.8242 22.8401 77.4361 22.659C78.656 22.3066 79.9223 22.3275 81.1317 22.7715C81.7333 22.9944 82.3151 23.3317 82.8787 23.722L82.8381 23.9567Z" fill="url(#paint20_linear_735_33686)"/>
<path d="M82.5485 21.2554C81.3894 19.827 79.7949 18.9758 77.8898 18.9091C76.6177 18.8137 75.2748 19.0137 73.8954 19.1752C72.3925 19.3478 70.9149 18.8261 70.424 17.2179C70.2115 16.4994 70.1769 15.6161 70.3409 14.6545L70.511 14.5323C70.7803 15.0396 71.0346 15.5482 71.402 15.9208C71.8256 16.3686 72.3552 16.6177 72.9632 16.7288C74.1183 16.91 75.3651 17.059 76.5986 17.1525C77.2491 17.2021 77.8983 17.2806 78.5187 17.4303C79.7511 17.735 80.8382 18.3862 81.6626 19.3753C82.0719 19.8695 82.4072 20.452 82.7002 21.0717L82.5485 21.2554Z" fill="url(#paint21_linear_735_33686)"/>
<path d="M83.6488 18.7706C83.3591 16.9538 82.404 15.4194 80.7873 14.4093C79.7328 13.6908 78.4703 13.1921 77.1949 12.6423C75.8069 12.0401 74.7884 10.8497 75.167 9.21136C75.3422 8.48308 75.754 7.70054 76.3771 6.95004L76.5856 6.92912C76.5653 7.50311 76.5307 8.07122 76.6634 8.57722C76.806 9.17671 77.14 9.65721 77.6113 10.0573C78.5214 10.7915 79.5261 11.544 80.5479 12.2421C81.0866 12.6103 81.6097 13.0031 82.0726 13.4424C82.9872 14.3224 83.603 15.4298 83.8233 16.6988C83.9305 17.3309 83.9298 18.0036 83.8736 18.6868L83.6507 18.7699L83.6488 18.7706Z" fill="url(#paint22_linear_735_33686)"/>
<path d="M85.844 17.1688C86.5017 15.4507 86.4416 13.6445 85.5466 11.9617C84.9928 10.8124 84.1482 9.7494 83.3186 8.6354C82.4177 7.42008 82.1308 5.87984 83.278 4.65014C83.7938 4.10687 84.5417 3.63486 85.4563 3.29688L85.6473 3.38252C85.3426 3.86956 85.0288 4.34418 84.8909 4.84888C84.7144 5.43987 84.764 6.02237 84.9712 6.60485C85.3923 7.69596 85.8865 8.84983 86.422 9.96511C86.7044 10.5536 86.9606 11.155 87.1417 11.7668C87.4941 12.9867 87.4732 14.2531 87.0293 15.4625C86.8064 16.064 86.469 16.6458 86.0788 17.2093L85.844 17.1688Z" fill="url(#paint23_linear_735_33686)"/>
</g>
<defs>
<linearGradient id="paint0_linear_735_33686" x1="34.1353" y1="60.335" x2="21.2482" y2="73.5664" gradientUnits="userSpaceOnUse">
<stop stop-color="#E3312D"/>
<stop offset="0.22" stop-color="#E95F32"/>
<stop offset="0.56" stop-color="#F18F34"/>
<stop offset="0.86" stop-color="#FDC800"/>
<stop offset="0.9" stop-color="#FDCB03"/>
<stop offset="0.95" stop-color="#FDD70E"/>
<stop offset="0.99" stop-color="#FEE921"/>
<stop offset="1" stop-color="#FFEF26"/>
</linearGradient>
<linearGradient id="paint1_linear_735_33686" x1="-55.8443" y1="-146.294" x2="-72.2502" y2="-139.477" gradientUnits="userSpaceOnUse">
<stop stop-color="#E3312D"/>
<stop offset="0.22" stop-color="#E95F32"/>
<stop offset="0.56" stop-color="#F18F34"/>
<stop offset="0.86" stop-color="#FDC800"/>
<stop offset="0.9" stop-color="#FDCB03"/>
<stop offset="0.95" stop-color="#FDD70E"/>
<stop offset="0.99" stop-color="#FEE921"/>
<stop offset="1" stop-color="#FFEF26"/>
</linearGradient>
<linearGradient id="paint2_linear_735_33686" x1="27.3198" y1="58.0418" x2="9.41755" y2="53.4971" gradientUnits="userSpaceOnUse">
<stop stop-color="#E3312D"/>
<stop offset="0.22" stop-color="#E95F32"/>
<stop offset="0.56" stop-color="#F18F34"/>
<stop offset="0.86" stop-color="#FDC800"/>
<stop offset="0.9" stop-color="#FDCB03"/>
<stop offset="0.95" stop-color="#FDD70E"/>
<stop offset="0.99" stop-color="#FEE921"/>
<stop offset="1" stop-color="#FFEF26"/>
</linearGradient>
<linearGradient id="paint3_linear_735_33686" x1="30.3811" y1="47.8962" x2="13.6537" y2="55.0601" gradientUnits="userSpaceOnUse">
<stop stop-color="#E3312D"/>
<stop offset="0.22" stop-color="#E95F32"/>
<stop offset="0.56" stop-color="#F18F34"/>
<stop offset="0.86" stop-color="#FDC800"/>
<stop offset="0.9" stop-color="#FDCB03"/>
<stop offset="0.95" stop-color="#FDD70E"/>
<stop offset="0.99" stop-color="#FEE921"/>
<stop offset="1" stop-color="#FFEF26"/>
</linearGradient>
<linearGradient id="paint4_linear_735_33686" x1="31.7369" y1="42.3189" x2="17.2471" y2="43.8259" gradientUnits="userSpaceOnUse">
<stop stop-color="#E3312D"/>
<stop offset="0.22" stop-color="#E95F32"/>
<stop offset="0.56" stop-color="#F18F34"/>
<stop offset="0.86" stop-color="#FDC800"/>
<stop offset="0.9" stop-color="#FDCB03"/>
<stop offset="0.95" stop-color="#FDD70E"/>
<stop offset="0.99" stop-color="#FEE921"/>
<stop offset="1" stop-color="#FFEF26"/>
</linearGradient>
<linearGradient id="paint5_linear_735_33686" x1="27.9572" y1="47.8924" x2="32.5019" y2="29.9909" gradientUnits="userSpaceOnUse">
<stop stop-color="#E3312D"/>
<stop offset="0.22" stop-color="#E95F32"/>
<stop offset="0.56" stop-color="#F18F34"/>
<stop offset="0.86" stop-color="#FDC800"/>
<stop offset="0.9" stop-color="#FDCB03"/>
<stop offset="0.95" stop-color="#FDD70E"/>
<stop offset="0.99" stop-color="#FEE921"/>
<stop offset="1" stop-color="#FFEF26"/>
</linearGradient>
<linearGradient id="paint6_linear_735_33686" x1="209.196" y1="181.849" x2="219.996" y2="167.742" gradientUnits="userSpaceOnUse">
<stop stop-color="#E3312D"/>
<stop offset="0.22" stop-color="#E95F32"/>
<stop offset="0.56" stop-color="#F18F34"/>
<stop offset="0.86" stop-color="#FDC800"/>
<stop offset="0.9" stop-color="#FDCB03"/>
<stop offset="0.95" stop-color="#FDD70E"/>
<stop offset="0.99" stop-color="#FEE921"/>
<stop offset="1" stop-color="#FFEF26"/>
</linearGradient>
<linearGradient id="paint7_linear_735_33686" x1="35.0061" y1="46.4707" x2="52.7823" y2="41.4554" gradientUnits="userSpaceOnUse">
<stop stop-color="#E3312D"/>
<stop offset="0.22" stop-color="#E95F32"/>
<stop offset="0.56" stop-color="#F18F34"/>
<stop offset="0.86" stop-color="#FDC800"/>
<stop offset="0.9" stop-color="#FDCB03"/>
<stop offset="0.95" stop-color="#FDD70E"/>
<stop offset="0.99" stop-color="#FEE921"/>
<stop offset="1" stop-color="#FFEF26"/>
</linearGradient>
<linearGradient id="paint8_linear_735_33686" x1="38.1067" y1="48.5299" x2="56.0089" y2="53.0747" gradientUnits="userSpaceOnUse">
<stop stop-color="#E3312D"/>
<stop offset="0.22" stop-color="#E95F32"/>
<stop offset="0.56" stop-color="#F18F34"/>
<stop offset="0.86" stop-color="#FDC800"/>
<stop offset="0.9" stop-color="#FDCB03"/>
<stop offset="0.95" stop-color="#FDD70E"/>
<stop offset="0.99" stop-color="#FEE921"/>
<stop offset="1" stop-color="#FFEF26"/>
</linearGradient>
<linearGradient id="paint9_linear_735_33686" x1="42.2121" y1="54.2649" x2="42.6681" y2="65.4998" gradientUnits="userSpaceOnUse">
<stop stop-color="#E3312D"/>
<stop offset="0.22" stop-color="#E95F32"/>
<stop offset="0.56" stop-color="#F18F34"/>
<stop offset="0.86" stop-color="#FDC800"/>
<stop offset="0.9" stop-color="#FDCB03"/>
<stop offset="0.95" stop-color="#FDD70E"/>
<stop offset="0.99" stop-color="#FEE921"/>
<stop offset="1" stop-color="#FFEF26"/>
</linearGradient>
<linearGradient id="paint10_linear_735_33686" x1="39.4891" y1="55.5901" x2="44.5041" y2="73.3657" gradientUnits="userSpaceOnUse">
<stop stop-color="#E3312D"/>
<stop offset="0.22" stop-color="#E95F32"/>
<stop offset="0.56" stop-color="#F18F34"/>
<stop offset="0.86" stop-color="#FDC800"/>
<stop offset="0.9" stop-color="#FDCB03"/>
<stop offset="0.95" stop-color="#FDD70E"/>
<stop offset="0.99" stop-color="#FEE921"/>
<stop offset="1" stop-color="#FFEF26"/>
</linearGradient>
<linearGradient id="paint11_linear_735_33686" x1="37.4691" y1="58.6799" x2="32.9244" y2="76.5816" gradientUnits="userSpaceOnUse">
<stop stop-color="#E3312D"/>
<stop offset="0.22" stop-color="#E95F32"/>
<stop offset="0.56" stop-color="#F18F34"/>
<stop offset="0.86" stop-color="#FDC800"/>
<stop offset="0.9" stop-color="#FDCB03"/>
<stop offset="0.95" stop-color="#FDD70E"/>
<stop offset="0.99" stop-color="#FEE921"/>
<stop offset="1" stop-color="#FFEF26"/>
</linearGradient>
<linearGradient id="paint12_linear_735_33686" x1="88.7767" y1="17.1841" x2="90.0537" y2="0.621208" gradientUnits="userSpaceOnUse">
<stop stop-color="#29235C"/>
<stop offset="0.22" stop-color="#2D2E83"/>
<stop offset="0.56" stop-color="#1D71B8"/>
<stop offset="0.86" stop-color="#1D71B8"/>
</linearGradient>
<linearGradient id="paint13_linear_735_33686" x1="90.8988" y1="9.4805" x2="106.68" y2="10.3612" gradientUnits="userSpaceOnUse">
<stop stop-color="#29235C"/>
<stop offset="0.22" stop-color="#2D2E83"/>
<stop offset="0.56" stop-color="#1D71B8"/>
<stop offset="0.86" stop-color="#1D71B8"/>
</linearGradient>
<linearGradient id="paint14_linear_735_33686" x1="92.437" y1="16.8905" x2="110.777" y2="19.0734" gradientUnits="userSpaceOnUse">
<stop stop-color="#29235C"/>
<stop offset="0.22" stop-color="#2D2E83"/>
<stop offset="0.56" stop-color="#1D71B8"/>
<stop offset="0.86" stop-color="#1D71B8"/>
</linearGradient>
<linearGradient id="paint15_linear_735_33686" x1="92.6315" y1="22.9243" x2="109.194" y2="24.201" gradientUnits="userSpaceOnUse">
<stop stop-color="#29235C"/>
<stop offset="0.22" stop-color="#2D2E83"/>
<stop offset="0.56" stop-color="#1D71B8"/>
<stop offset="0.86" stop-color="#1D71B8"/>
</linearGradient>
<linearGradient id="paint16_linear_735_33686" x1="91.4608" y1="25.4448" x2="103.246" y2="25.8101" gradientUnits="userSpaceOnUse">
<stop stop-color="#29235C"/>
<stop offset="0.22" stop-color="#2D2E83"/>
<stop offset="0.56" stop-color="#1D71B8"/>
<stop offset="0.86" stop-color="#1D71B8"/>
</linearGradient>
<linearGradient id="paint17_linear_735_33686" x1="92.9102" y1="26.7677" x2="90.7273" y2="45.1077" gradientUnits="userSpaceOnUse">
<stop stop-color="#29235C"/>
<stop offset="0.22" stop-color="#2D2E83"/>
<stop offset="0.56" stop-color="#1D71B8"/>
<stop offset="0.86" stop-color="#1D71B8"/>
</linearGradient>
<linearGradient id="paint18_linear_735_33686" x1="89.8662" y1="28.7251" x2="78.8058" y2="43.5166" gradientUnits="userSpaceOnUse">
<stop stop-color="#29235C"/>
<stop offset="0.22" stop-color="#2D2E83"/>
<stop offset="0.56" stop-color="#1D71B8"/>
<stop offset="0.86" stop-color="#1D71B8"/>
</linearGradient>
<linearGradient id="paint19_linear_735_33686" x1="40.9316" y1="55.2117" x2="37.459" y2="49.2307" gradientUnits="userSpaceOnUse">
<stop stop-color="#29235C"/>
<stop offset="0.22" stop-color="#2D2E83"/>
<stop offset="0.56" stop-color="#1D71B8"/>
<stop offset="0.86" stop-color="#1D71B8"/>
</linearGradient>
<linearGradient id="paint20_linear_735_33686" x1="83.0337" y1="27.241" x2="64.6937" y2="25.0581" gradientUnits="userSpaceOnUse">
<stop stop-color="#29235C"/>
<stop offset="0.22" stop-color="#2D2E83"/>
<stop offset="0.56" stop-color="#1D71B8"/>
<stop offset="0.86" stop-color="#1D71B8"/>
</linearGradient>
<linearGradient id="paint21_linear_735_33686" x1="70.6656" y1="21.3381" x2="70.8672" y2="12.3541" gradientUnits="userSpaceOnUse">
<stop stop-color="#29235C"/>
<stop offset="0.22" stop-color="#2D2E83"/>
<stop offset="0.56" stop-color="#1D71B8"/>
<stop offset="0.86" stop-color="#1D71B8"/>
</linearGradient>
<linearGradient id="paint22_linear_735_33686" x1="75.3901" y1="18.9161" x2="76.271" y2="3.13404" gradientUnits="userSpaceOnUse">
<stop stop-color="#29235C"/>
<stop offset="0.22" stop-color="#2D2E83"/>
<stop offset="0.56" stop-color="#1D71B8"/>
<stop offset="0.86" stop-color="#1D71B8"/>
</linearGradient>
<linearGradient id="paint23_linear_735_33686" x1="82.6923" y1="17.3804" x2="84.8755" y2="-0.959833" gradientUnits="userSpaceOnUse">
<stop stop-color="#29235C"/>
<stop offset="0.22" stop-color="#2D2E83"/>
<stop offset="0.56" stop-color="#1D71B8"/>
<stop offset="0.86" stop-color="#1D71B8"/>
</linearGradient>
</defs>
</svg>
