<svg width="140" height="109" viewBox="0 0 140 109" fill="none" xmlns="http://www.w3.org/2000/svg">
<mask id="mask0_418_798" style="mask-type:luminance" maskUnits="userSpaceOnUse" x="4" y="41" width="57" height="61">
<path d="M4.21242 101.096L60.6355 100.962L60.5712 74.0179L32.3914 74.0855L18.3772 41.5707H4.07031L4.21242 101.096Z" fill="white"/>
</mask>
<g mask="url(#mask0_418_798)">
<path d="M31.3106 80.7957C29.4624 82.2954 28.3611 84.3585 28.2748 86.8233C28.1514 88.4694 28.4102 90.2068 28.6191 91.9915C28.8424 93.9362 28.1674 95.8478 26.0866 96.4831C25.157 96.758 24.0143 96.8028 22.77 96.5905L22.6118 96.3705C23.2682 96.0221 23.9263 95.693 24.4084 95.2176C24.9878 94.6695 25.3101 93.9844 25.4539 93.1977C25.6882 91.7031 25.8811 90.09 26.002 88.4939C26.0663 87.6523 26.1678 86.8123 26.3615 86.0096C26.7557 84.4152 27.5982 83.0085 28.8779 81.9419C29.5174 81.4124 30.2711 80.9784 31.073 80.5995L31.3106 80.7957Z" fill="url(#paint0_linear_418_798)"/>
<path d="M28.0965 79.3722C25.7458 79.7469 23.7606 80.9827 22.4537 83.0745C21.5241 84.4389 20.8787 86.0722 20.1674 87.7225C19.3883 89.5183 17.848 90.8361 15.7283 90.3464C14.786 90.1197 13.7735 89.5868 12.8025 88.7807L12.7754 88.5108C13.5181 88.5371 14.2531 88.5819 14.9078 88.4102C15.6835 88.2258 16.3052 87.7935 16.8228 87.1837C17.7727 86.0062 18.7463 84.7062 19.6497 83.3841C20.1259 82.6871 20.6343 82.0104 21.2027 81.4115C22.3412 80.2282 23.7741 79.4314 25.4159 79.1463C26.2339 79.0076 27.1043 79.0084 27.9882 79.0812L28.0956 79.3696L28.0965 79.3722Z" fill="url(#paint1_linear_418_798)"/>
<path d="M26.024 76.5317C23.8011 75.6808 21.464 75.7586 19.2867 76.9166C17.7997 77.633 16.4243 78.7259 14.983 79.7993C13.4105 80.9649 11.4177 81.3362 9.82661 79.8517C9.1237 79.1843 8.51299 78.2167 8.07568 77.0333L8.18649 76.7863C8.81666 77.1805 9.43075 77.5865 10.0838 77.765C10.8484 77.9934 11.6021 77.9291 12.3557 77.6609C13.7675 77.1162 15.2604 76.4767 16.7035 75.784C17.4647 75.4186 18.2429 75.087 19.0346 74.8527C20.613 74.3968 22.2515 74.4238 23.8163 74.9982C24.5945 75.2866 25.3473 75.7231 26.0764 76.2281L26.0248 76.5317H26.024Z" fill="url(#paint2_linear_418_798)"/>
<path d="M25.6494 73.0367C24.1497 71.1885 22.0866 70.0872 19.6218 70.0009C17.9757 69.8774 16.2383 70.1363 14.4536 70.3452C12.5089 70.5685 10.5973 69.8935 9.96206 67.8127C9.68715 66.8831 9.64232 65.7403 9.85463 64.4961L10.0746 64.3379C10.4231 64.9943 10.7521 65.6524 11.2275 66.1345C11.7756 66.7139 12.4607 67.0362 13.2474 67.18C14.742 67.4143 16.3551 67.6071 17.9512 67.7281C18.7928 67.7924 19.6328 67.8939 20.4355 68.0876C22.0299 68.4818 23.4366 69.3242 24.5032 70.604C25.0327 71.2435 25.4667 71.9972 25.8456 72.799L25.6494 73.0367Z" fill="url(#paint3_linear_418_798)"/>
<path d="M27.0729 69.8216C26.6982 67.4709 25.4624 65.4857 23.3706 64.1788C22.0062 63.2492 20.3728 62.6038 18.7226 61.8925C16.9268 61.1134 15.609 59.5731 16.0987 57.4534C16.3254 56.5111 16.8583 55.4986 17.6644 54.5276L17.9342 54.5005C17.908 55.2432 17.8632 55.9782 18.0349 56.6329C18.2193 57.4086 18.6515 58.0303 19.2614 58.5479C20.4388 59.4978 21.7389 60.4714 23.061 61.3748C23.758 61.851 24.4347 62.3594 25.0335 62.9278C26.2169 64.0663 27.0137 65.4992 27.2987 67.141C27.4375 67.959 27.4366 68.8294 27.3639 69.7133L27.0754 69.8207L27.0729 69.8216Z" fill="url(#paint4_linear_418_798)"/>
<path d="M29.9135 67.7492C30.7644 65.5263 30.6866 63.1892 29.5286 61.0119C28.8122 59.5249 27.7193 58.1495 26.6459 56.7082C25.4803 55.1357 25.109 53.1429 26.5935 51.5518C27.2609 50.8489 28.2285 50.2382 29.4119 49.8009L29.6589 49.9117C29.2647 50.5419 28.8587 51.156 28.6802 51.809C28.4518 52.5736 28.5161 53.3273 28.7843 54.081C29.329 55.4927 29.9685 56.9856 30.6612 58.4287C31.0266 59.19 31.3582 59.9681 31.5925 60.7599C32.0484 62.3382 32.0214 63.9767 31.447 65.5415C31.1586 66.3197 30.7221 67.0725 30.2171 67.8017L29.9135 67.7501V67.7492Z" fill="url(#paint5_linear_418_798)"/>
<path d="M33.4082 67.3753C35.2564 65.8756 36.3577 63.8126 36.444 61.3477C36.5675 59.7017 36.3087 57.9643 36.0997 56.1795C35.8764 54.2349 36.5514 52.3233 38.6322 51.688C39.5618 51.4131 40.7046 51.3683 41.9489 51.5806L42.107 51.8005C41.4506 52.149 40.7926 52.478 40.3104 52.9534C39.731 53.5015 39.4087 54.1867 39.2649 54.9733C39.0306 56.468 38.8378 58.081 38.7168 59.6772C38.6525 60.5188 38.551 61.3587 38.3573 62.1615C37.9632 63.7559 37.1207 65.1626 35.8409 66.2292C35.2014 66.7587 34.4478 67.1926 33.6459 67.5716L33.4082 67.3753Z" fill="url(#paint6_linear_418_798)"/>
<path d="M36.6235 68.7981C38.9742 68.4234 40.9594 67.1876 42.2663 65.0958C43.1959 63.7314 43.8413 62.0981 44.5526 60.4478C45.3317 58.652 46.872 57.3342 48.9917 57.8239C49.934 58.0506 50.9465 58.5835 51.9175 59.3896L51.9446 59.6594C51.2019 59.6332 50.4669 59.5884 49.8122 59.7601C49.0365 59.9445 48.4148 60.3767 47.8972 60.9866C46.9473 62.164 45.9737 63.4641 45.0703 64.7862C44.5941 65.4832 44.0857 66.1599 43.5173 66.7587C42.3788 67.9421 40.9459 68.7389 39.3041 69.024C38.4861 69.1627 37.6157 69.1618 36.7318 69.0891L36.6244 68.8007L36.6235 68.7981Z" fill="url(#paint7_linear_418_798)"/>
<path d="M38.696 71.6385C40.9189 72.4894 43.256 72.4116 45.4333 71.2536C46.9203 70.5371 48.2957 69.4443 49.737 68.3709C51.3095 67.2053 53.3023 66.834 54.8934 68.3184C55.5963 68.9858 56.207 69.9535 56.6443 71.1369L56.5335 71.3838C55.9033 70.9897 55.2892 70.5837 54.6362 70.4052C53.8716 70.1768 53.1179 70.2411 52.3643 70.5092C50.9525 71.054 49.4596 71.6934 48.0165 72.3862C47.2553 72.7516 46.4771 73.0832 45.6853 73.3175C44.107 73.7734 42.4685 73.7463 40.9037 73.172C40.1255 72.8836 39.3727 72.4471 38.6436 71.9421L38.6952 71.6385H38.696Z" fill="url(#paint8_linear_418_798)"/>
<path d="M39.0708 75.1344C40.5705 76.9826 42.6335 78.0839 45.0983 78.1702C46.7444 78.2937 48.4818 78.0349 50.2666 77.8259C52.2112 77.6026 54.1228 78.2776 54.7581 80.3584C55.033 81.288 55.0778 82.4308 54.8655 83.675L54.6456 83.8332C54.2971 83.1768 53.968 82.5188 53.4927 82.0366C52.9446 81.4572 52.2594 81.1349 51.4728 80.9911C49.9781 80.7568 48.3651 80.564 46.7689 80.443C45.9273 80.3787 45.0874 80.2772 44.2846 80.0835C42.6902 79.6894 41.2835 78.8469 40.2169 77.5671C39.6874 76.9276 39.2535 76.174 38.8745 75.3721L39.0708 75.1344Z" fill="url(#paint9_linear_418_798)"/>
<path d="M37.6472 78.3486C38.0219 80.6993 39.2577 82.6845 41.3495 83.9914C42.7139 84.921 44.3472 85.5664 45.9975 86.2777C47.7933 87.0568 49.1111 88.5971 48.6214 90.7168C48.3947 91.6591 47.8618 92.6716 47.0557 93.6426L46.7859 93.6697C46.8121 92.927 46.8569 92.192 46.6852 91.5373C46.5008 90.7616 46.0686 90.1399 45.4587 89.6223C44.2813 88.6724 42.9812 87.6988 41.6591 86.7954C40.9621 86.3192 40.2854 85.8108 39.6866 85.2424C38.5032 84.1039 37.7064 82.671 37.4213 81.0292C37.2826 80.2112 37.2835 79.3408 37.3562 78.4569L37.6447 78.3495L37.6472 78.3486Z" fill="url(#paint10_linear_418_798)"/>
<path d="M34.8064 80.4211C33.9554 82.644 34.0333 84.9811 35.1913 87.1584C35.9077 88.6454 37.0005 90.0208 38.0739 91.4621C39.2395 93.0346 39.6109 95.0274 38.1264 96.6185C37.459 97.3214 36.4913 97.9321 35.308 98.3694L35.061 98.2586C35.4552 97.6284 35.8612 97.0143 36.0396 96.3613C36.268 95.5967 36.2037 94.843 35.9356 94.0893C35.3909 92.6776 34.7514 91.1847 34.0586 89.7416C33.6932 88.9803 33.3617 88.2022 33.1274 87.4104C32.6714 85.8321 32.6985 84.1936 33.2728 82.6288C33.5613 81.8506 33.9977 81.0978 34.5027 80.3687L34.8064 80.4202V80.4211Z" fill="url(#paint11_linear_418_798)"/>
</g>
<mask id="mask1_418_798" style="mask-type:luminance" maskUnits="userSpaceOnUse" x="68" y="4" width="57" height="61">
<path d="M124.518 4.88147L68.0952 5.01681L68.1595 31.96L96.3393 31.8932L111.537 64.408H124.66L124.518 4.88147Z" fill="white"/>
</mask>
<g mask="url(#mask1_418_798)">
<path d="M97.4204 25.1821C99.2686 23.6824 100.37 21.6193 100.456 19.1545C100.58 17.5085 100.321 15.7711 100.112 13.9863C99.8886 12.0417 100.564 10.13 102.644 9.49477C103.574 9.21987 104.717 9.17504 105.961 9.38735L106.119 9.60727C105.463 9.95577 104.805 10.2848 104.323 10.7602C103.743 11.3083 103.421 11.9934 103.277 12.7801C103.043 14.2747 102.85 15.8878 102.729 17.4839C102.665 18.3256 102.563 19.1655 102.37 19.9682C101.975 21.5627 101.133 22.9693 99.8531 24.036C99.2136 24.5655 98.46 24.9994 97.6581 25.3783L97.4204 25.1821Z" fill="url(#paint12_linear_418_798)"/>
<path d="M100.635 26.6057C102.985 26.231 104.971 24.9952 106.277 22.9034C107.207 21.539 107.852 19.9057 108.564 18.2554C109.343 16.4596 110.883 15.1418 113.003 15.6315C113.945 15.8582 114.958 16.3911 115.929 17.1972L115.956 17.4671C115.213 17.4408 114.478 17.396 113.823 17.5677C113.048 17.7521 112.426 18.1843 111.908 18.7942C110.958 19.9717 109.985 21.2717 109.082 22.5938C108.605 23.2908 108.097 23.9675 107.529 24.5664C106.39 25.7497 104.957 26.5465 103.315 26.8316C102.497 26.9703 101.627 26.9695 100.743 26.8967L100.636 26.6083L100.635 26.6057Z" fill="url(#paint13_linear_418_798)"/>
<path d="M102.707 29.4461C104.93 30.297 107.267 30.2192 109.445 29.0612C110.932 28.3448 112.307 27.2519 113.748 26.1785C115.321 25.0129 117.314 24.6416 118.905 26.1261C119.608 26.7935 120.218 27.7611 120.656 28.9445L120.545 29.1915C119.915 28.7973 119.3 28.3913 118.647 28.2128C117.883 27.9844 117.129 28.0487 116.375 28.3168C114.964 28.8616 113.471 29.501 112.028 30.1938C111.266 30.5592 110.488 30.8908 109.697 31.1251C108.118 31.581 106.48 31.554 104.915 30.9796C104.137 30.6912 103.384 30.2547 102.655 29.7497L102.706 29.4461H102.707Z" fill="url(#paint14_linear_418_798)"/>
<path d="M103.082 32.942C104.582 34.7902 106.645 35.8915 109.11 35.9778C110.756 36.1013 112.493 35.8425 114.278 35.6335C116.222 35.4102 118.134 36.0852 118.769 38.166C119.044 39.0956 119.089 40.2384 118.877 41.4827L118.657 41.6408C118.308 40.9845 117.979 40.3264 117.504 39.8442C116.956 39.2648 116.271 38.9425 115.484 38.7988C113.989 38.5644 112.376 38.3716 110.78 38.2506C109.939 38.1863 109.099 38.0848 108.296 37.8911C106.701 37.497 105.295 36.6545 104.228 35.3747C103.699 34.7352 103.265 33.9816 102.886 33.1797L103.082 32.942Z" fill="url(#paint15_linear_418_798)"/>
<path d="M101.658 36.1562C102.033 38.5069 103.269 40.4921 105.361 41.799C106.725 42.7286 108.358 43.374 110.009 44.0853C111.805 44.8644 113.122 46.4047 112.633 48.5244C112.406 49.4667 111.873 50.4792 111.067 51.4502L110.797 51.4773C110.823 50.7346 110.868 49.9996 110.696 49.3449C110.512 48.5692 110.08 47.9475 109.47 47.4299C108.293 46.48 106.992 45.5064 105.67 44.603C104.973 44.1268 104.297 43.6184 103.698 43.05C102.514 41.9115 101.718 40.4786 101.433 38.8368C101.294 38.0188 101.295 37.1484 101.367 36.2645L101.656 36.1571L101.658 36.1562Z" fill="url(#paint16_linear_418_798)"/>
<path d="M98.8176 38.2287C97.9667 40.4516 98.0445 42.7887 99.2025 44.966C99.9189 46.453 101.012 47.8284 102.085 49.2697C103.251 50.8422 103.622 52.835 102.138 54.4261C101.47 55.129 100.503 55.7397 99.3192 56.177L99.0722 56.0662C99.4664 55.436 99.8724 54.822 100.051 54.1689C100.279 53.4043 100.215 52.6506 99.9468 51.897C99.4021 50.4852 98.7626 48.9923 98.0699 47.5492C97.7045 46.788 97.3729 46.0098 97.1386 45.2181C96.6827 43.6397 96.7097 42.0012 97.2841 40.4364C97.5725 39.6582 98.009 38.9054 98.514 38.1763L98.8176 38.2279V38.2287Z" fill="url(#paint17_linear_418_798)"/>
<path d="M95.3229 38.6033C93.4747 40.1031 92.3733 42.1661 92.2871 44.6309C92.1636 46.277 92.4224 48.0144 92.6313 49.7991C92.8546 51.7438 92.1796 53.6554 90.0988 54.2907C89.1692 54.5656 88.0265 54.6104 86.7822 54.3981L86.624 54.1782C87.2804 53.8297 87.9385 53.5006 88.4206 53.0253C89 52.4771 89.3223 51.792 89.4661 51.0053C89.7004 49.5107 89.8933 47.8977 90.0142 46.3015C90.0785 45.4599 90.18 44.6199 90.3737 43.8172C90.7679 42.2228 91.6104 40.8161 92.8902 39.7495C93.5296 39.22 94.2833 38.786 95.0852 38.4071L95.3229 38.6033Z" fill="url(#paint18_linear_418_798)"/>
<path d="M92.1077 37.1798C89.757 37.5545 87.7718 38.7903 86.465 40.8821C85.5354 42.2465 84.89 43.8798 84.1786 45.5301C83.3996 47.3259 81.8592 48.6437 79.7395 48.154C78.7972 47.9273 77.7847 47.3944 76.8137 46.5883L76.7866 46.3185C77.5293 46.3447 78.2643 46.3895 78.919 46.2178C79.6947 46.0334 80.3164 45.6012 80.8341 44.9913C81.784 43.8139 82.7575 42.5138 83.6609 41.1917C84.1371 40.4947 84.6455 39.818 85.2139 39.2192C86.3525 38.0358 87.7853 37.239 89.4272 36.9539C90.2451 36.8152 91.1155 36.8161 91.9994 36.8888L92.1068 37.1772L92.1077 37.1798Z" fill="url(#paint19_linear_418_798)"/>
<path d="M90.0352 34.3393C87.8123 33.4884 85.4752 33.5662 83.2979 34.7242C81.8109 35.4407 80.4356 36.5335 78.9942 37.6069C77.4218 38.7725 75.4289 39.1438 73.8378 37.6593C73.1349 36.992 72.5242 36.0243 72.0869 34.8409L72.1977 34.5939C72.8279 34.9881 73.442 35.3941 74.095 35.5726C74.8596 35.801 75.6133 35.7367 76.367 35.4686C77.7787 34.9238 79.2716 34.2844 80.7147 33.5916C81.476 33.2262 82.2542 32.8946 83.0459 32.6603C84.6243 32.2044 86.2627 32.2315 87.8275 32.8058C88.6057 33.0942 89.3585 33.5307 90.0877 34.0357L90.0361 34.3393H90.0352Z" fill="url(#paint20_linear_418_798)"/>
<path d="M89.6606 30.8443C88.1609 28.9961 86.0978 27.8948 83.633 27.8085C81.987 27.685 80.2496 27.9439 78.4648 28.1528C76.5202 28.3761 74.6085 27.7011 73.9733 25.6203C73.6984 24.6907 73.6536 23.5479 73.8659 22.3037L74.0858 22.1455C74.4343 22.8019 74.7633 23.46 75.2387 23.9421C75.7868 24.5215 76.472 24.8438 77.2586 24.9876C78.7532 25.2219 80.3663 25.4148 81.9624 25.5357C82.8041 25.6 83.644 25.7015 84.4467 25.8952C86.0412 26.2894 87.4478 27.1319 88.5145 28.4116C89.044 29.0511 89.4779 29.8048 89.8569 30.6066L89.6606 30.8443Z" fill="url(#paint21_linear_418_798)"/>
<path d="M91.0841 27.6292C90.7094 25.2785 89.4736 23.2933 87.3818 21.9864C86.0174 21.0568 84.3841 20.4114 82.7338 19.7001C80.938 18.921 79.6202 17.3807 80.1099 15.261C80.3366 14.3187 80.8695 13.3062 81.6756 12.3352L81.9455 12.3081C81.9192 13.0508 81.8744 13.7858 82.0461 14.4405C82.2305 15.2162 82.6627 15.8379 83.2726 16.3555C84.45 17.3054 85.7501 18.279 87.0722 19.1824C87.7692 19.6586 88.4459 20.167 89.0448 20.7354C90.2281 21.8739 91.0249 23.3068 91.31 24.9486C91.4487 25.7666 91.4478 26.637 91.3751 27.5209L91.0867 27.6283L91.0841 27.6292Z" fill="url(#paint22_linear_418_798)"/>
<path d="M93.9247 25.5568C94.7756 23.3339 94.6978 20.9968 93.5398 18.8196C92.8234 17.3325 91.7305 15.9572 90.6571 14.5158C89.4916 12.9434 89.1202 10.9505 90.6047 9.35945C91.2721 8.65654 92.2397 8.04583 93.4231 7.60852L93.6701 7.71933C93.2759 8.34949 92.8699 8.96359 92.6914 9.61659C92.4631 10.3813 92.5273 11.1349 92.7955 11.8886C93.3402 13.3003 93.9797 14.7933 94.6724 16.2363C95.0379 16.9976 95.3694 17.7758 95.6037 18.5675C96.0597 20.1459 96.0326 21.7843 95.4583 23.3491C95.1698 24.1273 94.7333 24.8801 94.2284 25.6093L93.9247 25.5577V25.5568Z" fill="url(#paint23_linear_418_798)"/>
</g>
<path d="M39.4561 51.3488C35.3799 51.3488 32.3525 48.2022 32.3525 44.225V44.1852C32.3525 40.2477 35.3198 37.0225 39.5745 37.0225C42.1865 37.0225 43.7497 37.8937 45.0354 39.1599L43.0967 41.3964C42.0283 40.4262 40.9406 39.8324 39.555 39.8324C37.2196 39.8324 35.538 41.772 35.538 44.1463V44.186C35.538 46.5612 37.1807 48.5397 39.555 48.5397C41.1376 48.5397 42.107 47.9061 43.1956 46.9173L45.1343 48.8755C43.7099 50.3997 42.1273 51.3496 39.4561 51.3496V51.3488Z" fill="white"/>
<path d="M47.5762 51.1111V37.2601H50.6238V48.3409H57.5294V51.1111H47.577H47.5762Z" fill="white"/>
<path d="M59.9692 51.1111V37.2601H63.0169V51.1111H59.9692Z" fill="white"/>
<path d="M77.3067 51.1111V42.0688L73.4089 47.9848H73.3303L69.4715 42.1281V51.1111H66.4839V37.2601H69.7692L73.4098 43.1177L77.0512 37.2601H80.3357V51.1111H77.3084H77.3067Z" fill="white"/>
<path d="M93.9762 51.1111L92.7099 48.0051H86.8532L85.587 51.1111H82.481L88.4164 37.1611H91.2263L97.1626 51.1111H93.9762ZM89.7816 40.822L87.9418 45.3135H91.6213L89.7816 40.822Z" fill="white"/>
<path d="M39.6151 60.2921V71.3331H36.5675V60.2921H32.3525V57.4822H43.8283V60.2921H39.6142H39.6151Z" fill="white"/>
<path d="M46.1704 71.3331V57.4822H56.6176V60.1932H49.1977V63.0031H55.7278V65.7141H49.1977V68.623H56.7166V71.334H46.1704V71.3331Z" fill="white"/>
<path d="M65.9258 71.5707C61.8496 71.5707 58.8223 68.4241 58.8223 64.4469V64.4071C58.8223 60.4696 61.7895 57.2444 66.0442 57.2444C68.6562 57.2444 70.2194 58.1156 71.5051 59.3819L69.5664 61.6183C68.4981 60.6481 67.4103 60.0543 66.0248 60.0543C63.6893 60.0543 62.0078 61.9939 62.0078 64.3682V64.408C62.0078 66.7831 63.6504 68.7616 66.0248 68.7616C67.6074 68.7616 68.5767 68.1281 69.6653 67.1393L71.6041 69.0974C70.1796 70.6217 68.597 71.5716 65.9258 71.5716V71.5707Z" fill="white"/>
<path d="M83.7606 71.3331L77.0538 62.5286V71.3331H74.0459V57.4822H76.8558L83.3461 66.011V57.4822H86.3532V71.3331H83.7606Z" fill="white"/>
<path d="M89.8237 71.3331V57.4822H92.8714V71.3331H89.8237Z" fill="white"/>
<path d="M102.828 71.5707C98.7519 71.5707 95.7246 68.4241 95.7246 64.4469V64.4071C95.7246 60.4696 98.6919 57.2444 102.947 57.2444C105.559 57.2444 107.122 58.1156 108.407 59.3819L106.469 61.6183C105.4 60.6481 104.313 60.0543 102.927 60.0543C100.592 60.0543 98.9101 61.9939 98.9101 64.3682V64.408C98.9101 66.7831 100.553 68.7616 102.927 68.7616C104.51 68.7616 105.479 68.1281 106.568 67.1393L108.506 69.0974C107.082 70.6217 105.499 71.5716 102.828 71.5716V71.5707Z" fill="white"/>
<path d="M117.28 71.5707C113.007 71.5707 109.94 68.3844 109.94 64.4469V64.4071C109.94 60.4696 113.046 57.2444 117.321 57.2444C121.596 57.2444 124.661 60.4307 124.661 64.3682V64.408C124.661 68.3455 121.555 71.5707 117.28 71.5707ZM121.476 64.408C121.476 62.0336 119.734 60.0543 117.28 60.0543C114.826 60.0543 113.125 61.9939 113.125 64.3682V64.408C113.125 66.7831 114.867 68.7616 117.321 68.7616C119.775 68.7616 121.476 66.8229 121.476 64.4477V64.408Z" fill="white"/>
<defs>
<linearGradient id="paint0_linear_418_798" x1="35.368" y1="82.8897" x2="21.0569" y2="102.029" gradientUnits="userSpaceOnUse">
<stop stop-color="#E3312D"/>
<stop offset="0.22" stop-color="#E95F32"/>
<stop offset="0.56" stop-color="#F18F34"/>
<stop offset="0.86" stop-color="#FDC800"/>
<stop offset="0.9" stop-color="#FDCB03"/>
<stop offset="0.95" stop-color="#FDD70E"/>
<stop offset="0.99" stop-color="#FEE921"/>
<stop offset="1" stop-color="#FFEF26"/>
</linearGradient>
<linearGradient id="paint1_linear_418_798" x1="-114.766" y1="-167.088" x2="-134.668" y2="-155.587" gradientUnits="userSpaceOnUse">
<stop stop-color="#E3312D"/>
<stop offset="0.22" stop-color="#E95F32"/>
<stop offset="0.56" stop-color="#F18F34"/>
<stop offset="0.86" stop-color="#FDC800"/>
<stop offset="0.9" stop-color="#FDCB03"/>
<stop offset="0.95" stop-color="#FDD70E"/>
<stop offset="0.99" stop-color="#FEE921"/>
<stop offset="1" stop-color="#FFEF26"/>
</linearGradient>
<linearGradient id="paint2_linear_418_798" x1="26.2392" y1="81.0922" x2="2.50902" y2="78.2679" gradientUnits="userSpaceOnUse">
<stop stop-color="#E3312D"/>
<stop offset="0.22" stop-color="#E95F32"/>
<stop offset="0.56" stop-color="#F18F34"/>
<stop offset="0.86" stop-color="#FDC800"/>
<stop offset="0.9" stop-color="#FDCB03"/>
<stop offset="0.95" stop-color="#FDD70E"/>
<stop offset="0.99" stop-color="#FEE921"/>
<stop offset="1" stop-color="#FFEF26"/>
</linearGradient>
<linearGradient id="paint3_linear_418_798" x1="28.4631" y1="67.5622" x2="8.20617" y2="79.5618" gradientUnits="userSpaceOnUse">
<stop stop-color="#E3312D"/>
<stop offset="0.22" stop-color="#E95F32"/>
<stop offset="0.56" stop-color="#F18F34"/>
<stop offset="0.86" stop-color="#FDC800"/>
<stop offset="0.9" stop-color="#FDCB03"/>
<stop offset="0.95" stop-color="#FDD70E"/>
<stop offset="0.99" stop-color="#FEE921"/>
<stop offset="1" stop-color="#FFEF26"/>
</linearGradient>
<linearGradient id="paint4_linear_418_798" x1="29.2657" y1="60.1794" x2="10.9298" y2="64.5459" gradientUnits="userSpaceOnUse">
<stop stop-color="#E3312D"/>
<stop offset="0.22" stop-color="#E95F32"/>
<stop offset="0.56" stop-color="#F18F34"/>
<stop offset="0.86" stop-color="#FDC800"/>
<stop offset="0.9" stop-color="#FDCB03"/>
<stop offset="0.95" stop-color="#FDD70E"/>
<stop offset="0.99" stop-color="#FEE921"/>
<stop offset="1" stop-color="#FFEF26"/>
</linearGradient>
<linearGradient id="paint5_linear_418_798" x1="25.353" y1="67.9645" x2="28.1773" y2="44.2351" gradientUnits="userSpaceOnUse">
<stop stop-color="#E3312D"/>
<stop offset="0.22" stop-color="#E95F32"/>
<stop offset="0.56" stop-color="#F18F34"/>
<stop offset="0.86" stop-color="#FDC800"/>
<stop offset="0.9" stop-color="#FDCB03"/>
<stop offset="0.95" stop-color="#FDD70E"/>
<stop offset="0.99" stop-color="#FEE921"/>
<stop offset="1" stop-color="#FFEF26"/>
</linearGradient>
<linearGradient id="paint6_linear_418_798" x1="280.361" y1="209.385" x2="291.847" y2="189.474" gradientUnits="userSpaceOnUse">
<stop stop-color="#E3312D"/>
<stop offset="0.22" stop-color="#E95F32"/>
<stop offset="0.56" stop-color="#F18F34"/>
<stop offset="0.86" stop-color="#FDC800"/>
<stop offset="0.9" stop-color="#FDCB03"/>
<stop offset="0.95" stop-color="#FDD70E"/>
<stop offset="0.99" stop-color="#FEE921"/>
<stop offset="1" stop-color="#FFEF26"/>
</linearGradient>
<linearGradient id="paint7_linear_418_798" x1="34.1571" y1="64.9569" x2="56.1202" y2="55.5377" gradientUnits="userSpaceOnUse">
<stop stop-color="#E3312D"/>
<stop offset="0.22" stop-color="#E95F32"/>
<stop offset="0.56" stop-color="#F18F34"/>
<stop offset="0.86" stop-color="#FDC800"/>
<stop offset="0.9" stop-color="#FDCB03"/>
<stop offset="0.95" stop-color="#FDD70E"/>
<stop offset="0.99" stop-color="#FEE921"/>
<stop offset="1" stop-color="#FFEF26"/>
</linearGradient>
<linearGradient id="paint8_linear_418_798" x1="38.4808" y1="67.078" x2="62.211" y2="69.9023" gradientUnits="userSpaceOnUse">
<stop stop-color="#E3312D"/>
<stop offset="0.22" stop-color="#E95F32"/>
<stop offset="0.56" stop-color="#F18F34"/>
<stop offset="0.86" stop-color="#FDC800"/>
<stop offset="0.9" stop-color="#FDCB03"/>
<stop offset="0.95" stop-color="#FDD70E"/>
<stop offset="0.99" stop-color="#FEE921"/>
<stop offset="1" stop-color="#FFEF26"/>
</linearGradient>
<linearGradient id="paint9_linear_418_798" x1="44.7107" y1="73.746" x2="47.1824" y2="88.0829" gradientUnits="userSpaceOnUse">
<stop stop-color="#E3312D"/>
<stop offset="0.22" stop-color="#E95F32"/>
<stop offset="0.56" stop-color="#F18F34"/>
<stop offset="0.86" stop-color="#FDC800"/>
<stop offset="0.9" stop-color="#FDCB03"/>
<stop offset="0.95" stop-color="#FDD70E"/>
<stop offset="0.99" stop-color="#FEE921"/>
<stop offset="1" stop-color="#FFEF26"/>
</linearGradient>
<linearGradient id="paint10_linear_418_798" x1="41.4399" y1="75.9034" x2="50.8587" y2="97.8658" gradientUnits="userSpaceOnUse">
<stop stop-color="#E3312D"/>
<stop offset="0.22" stop-color="#E95F32"/>
<stop offset="0.56" stop-color="#F18F34"/>
<stop offset="0.86" stop-color="#FDC800"/>
<stop offset="0.9" stop-color="#FDCB03"/>
<stop offset="0.95" stop-color="#FDD70E"/>
<stop offset="0.99" stop-color="#FEE921"/>
<stop offset="1" stop-color="#FFEF26"/>
</linearGradient>
<linearGradient id="paint11_linear_418_798" x1="39.3669" y1="80.2067" x2="36.5425" y2="103.936" gradientUnits="userSpaceOnUse">
<stop stop-color="#E3312D"/>
<stop offset="0.22" stop-color="#E95F32"/>
<stop offset="0.56" stop-color="#F18F34"/>
<stop offset="0.86" stop-color="#FDC800"/>
<stop offset="0.9" stop-color="#FDCB03"/>
<stop offset="0.95" stop-color="#FDD70E"/>
<stop offset="0.99" stop-color="#FEE921"/>
<stop offset="1" stop-color="#FFEF26"/>
</linearGradient>
<linearGradient id="paint12_linear_418_798" x1="97.719" y1="25.5766" x2="99.3712" y2="4.14657" gradientUnits="userSpaceOnUse">
<stop stop-color="#29235C"/>
<stop offset="0.22" stop-color="#2D2E83"/>
<stop offset="0.56" stop-color="#1D71B8"/>
<stop offset="0.86" stop-color="#1D71B8"/>
</linearGradient>
<linearGradient id="paint13_linear_418_798" x1="100.465" y1="15.6093" x2="120.884" y2="16.7488" gradientUnits="userSpaceOnUse">
<stop stop-color="#29235C"/>
<stop offset="0.22" stop-color="#2D2E83"/>
<stop offset="0.56" stop-color="#1D71B8"/>
<stop offset="0.86" stop-color="#1D71B8"/>
</linearGradient>
<linearGradient id="paint14_linear_418_798" x1="102.455" y1="25.1968" x2="126.184" y2="28.0211" gradientUnits="userSpaceOnUse">
<stop stop-color="#29235C"/>
<stop offset="0.22" stop-color="#2D2E83"/>
<stop offset="0.56" stop-color="#1D71B8"/>
<stop offset="0.86" stop-color="#1D71B8"/>
</linearGradient>
<linearGradient id="paint15_linear_418_798" x1="102.707" y1="33.0036" x2="124.136" y2="34.6555" gradientUnits="userSpaceOnUse">
<stop stop-color="#29235C"/>
<stop offset="0.22" stop-color="#2D2E83"/>
<stop offset="0.56" stop-color="#1D71B8"/>
<stop offset="0.86" stop-color="#1D71B8"/>
</linearGradient>
<linearGradient id="paint16_linear_418_798" x1="101.192" y1="36.2647" x2="116.441" y2="36.7373" gradientUnits="userSpaceOnUse">
<stop stop-color="#29235C"/>
<stop offset="0.22" stop-color="#2D2E83"/>
<stop offset="0.56" stop-color="#1D71B8"/>
<stop offset="0.86" stop-color="#1D71B8"/>
</linearGradient>
<linearGradient id="paint17_linear_418_798" x1="103.067" y1="37.9764" x2="100.243" y2="61.7058" gradientUnits="userSpaceOnUse">
<stop stop-color="#29235C"/>
<stop offset="0.22" stop-color="#2D2E83"/>
<stop offset="0.56" stop-color="#1D71B8"/>
<stop offset="0.86" stop-color="#1D71B8"/>
</linearGradient>
<linearGradient id="paint18_linear_418_798" x1="99.1287" y1="40.5089" x2="84.8181" y2="59.647" gradientUnits="userSpaceOnUse">
<stop stop-color="#29235C"/>
<stop offset="0.22" stop-color="#2D2E83"/>
<stop offset="0.56" stop-color="#1D71B8"/>
<stop offset="0.86" stop-color="#1D71B8"/>
</linearGradient>
<linearGradient id="paint19_linear_418_798" x1="35.8143" y1="74.7788" x2="31.3212" y2="67.0403" gradientUnits="userSpaceOnUse">
<stop stop-color="#29235C"/>
<stop offset="0.22" stop-color="#2D2E83"/>
<stop offset="0.56" stop-color="#1D71B8"/>
<stop offset="0.86" stop-color="#1D71B8"/>
</linearGradient>
<linearGradient id="paint20_linear_418_798" x1="90.2884" y1="38.5887" x2="66.559" y2="35.7643" gradientUnits="userSpaceOnUse">
<stop stop-color="#29235C"/>
<stop offset="0.22" stop-color="#2D2E83"/>
<stop offset="0.56" stop-color="#1D71B8"/>
<stop offset="0.86" stop-color="#1D71B8"/>
</linearGradient>
<linearGradient id="paint21_linear_418_798" x1="74.2859" y1="30.9513" x2="74.5467" y2="19.3273" gradientUnits="userSpaceOnUse">
<stop stop-color="#29235C"/>
<stop offset="0.22" stop-color="#2D2E83"/>
<stop offset="0.56" stop-color="#1D71B8"/>
<stop offset="0.86" stop-color="#1D71B8"/>
</linearGradient>
<linearGradient id="paint22_linear_418_798" x1="80.3987" y1="27.8175" x2="81.5385" y2="7.39781" gradientUnits="userSpaceOnUse">
<stop stop-color="#29235C"/>
<stop offset="0.22" stop-color="#2D2E83"/>
<stop offset="0.56" stop-color="#1D71B8"/>
<stop offset="0.86" stop-color="#1D71B8"/>
</linearGradient>
<linearGradient id="paint23_linear_418_798" x1="89.8467" y1="25.8306" x2="92.6716" y2="2.10095" gradientUnits="userSpaceOnUse">
<stop stop-color="#29235C"/>
<stop offset="0.22" stop-color="#2D2E83"/>
<stop offset="0.56" stop-color="#1D71B8"/>
<stop offset="0.86" stop-color="#1D71B8"/>
</linearGradient>
</defs>
</svg>
