<svg width="476" height="110" viewBox="0 0 476 110" fill="none" xmlns="http://www.w3.org/2000/svg">
<mask id="mask0_156_2860" style="mask-type:luminance" maskUnits="userSpaceOnUse" x="4" y="42" width="57" height="60">
<path d="M4.21239 101.715L60.6355 101.58L60.5712 74.6362L32.3914 74.7038L18.3772 42.189H4.07028L4.21239 101.715Z" fill="white"/>
</mask>
<g mask="url(#mask0_156_2860)">
<path d="M31.3104 81.414C29.4622 82.9137 28.3609 84.9768 28.2746 87.4416C28.1511 89.0877 28.4099 90.8251 28.6188 92.6098C28.8421 94.5545 28.1671 96.4661 26.0863 97.1013C25.1567 97.3762 24.014 97.4211 22.7697 97.2088L22.6115 96.9888C23.2679 96.6403 23.926 96.3113 24.4081 95.8359C24.9876 95.2878 25.3098 94.6027 25.4536 93.816C25.6879 92.3214 25.8808 90.7083 26.0017 89.1122C26.066 88.2706 26.1675 87.4306 26.3612 86.6279C26.7554 85.0335 27.5979 83.6268 28.8777 82.5602C29.5171 82.0306 30.2708 81.5967 31.0727 81.2178L31.3104 81.414Z" fill="url(#paint0_linear_156_2860)"/>
<path d="M28.0961 79.9905C25.7454 80.3652 23.7602 81.601 22.4534 83.6928C21.5238 85.0572 20.8784 86.6905 20.167 88.3408C19.388 90.1365 17.8476 91.4544 15.7279 90.9646C14.7856 90.738 13.7731 90.2051 12.8021 89.399L12.775 89.1291C13.5177 89.1553 14.2527 89.2002 14.9074 89.0285C15.6831 88.8441 16.3048 88.4118 16.8225 87.802C17.7724 86.6245 18.746 85.3244 19.6493 84.0024C20.1255 83.3054 20.6339 82.6287 21.2023 82.0298C22.3409 80.8465 23.7737 80.0497 25.4156 79.7646C26.2335 79.6259 27.1039 79.6267 27.9878 79.6995L28.0952 79.9879L28.0961 79.9905Z" fill="url(#paint1_linear_156_2860)"/>
<path d="M26.0237 77.1501C23.8008 76.2992 21.4637 76.377 19.2865 77.535C17.7994 78.2514 16.4241 79.3443 14.9827 80.4177C13.4103 81.5833 11.4174 81.9546 9.82637 80.4701C9.12346 79.8028 8.51275 78.8351 8.07544 77.6517L8.18625 77.4047C8.81641 77.7989 9.43051 78.2049 10.0835 78.3834C10.8482 78.6118 11.6018 78.5475 12.3555 78.2794C13.7672 77.7346 15.2602 77.0952 16.7032 76.4024C17.4645 76.037 18.2427 75.7054 19.0344 75.4711C20.6128 75.0152 22.2512 75.0423 23.816 75.6166C24.5942 75.905 25.3471 76.3415 26.0762 76.8465L26.0246 77.1501H26.0237Z" fill="url(#paint2_linear_156_2860)"/>
<path d="M25.649 73.6549C24.1493 71.8067 22.0863 70.7054 19.6214 70.6191C17.9754 70.4956 16.238 70.7544 14.4532 70.9634C12.5086 71.1867 10.597 70.5117 9.96172 68.4308C9.68682 67.5012 9.64199 66.3585 9.8543 65.1142L10.0742 64.9561C10.4227 65.6124 10.7518 66.2705 11.2271 66.7527C11.7752 67.3321 12.4604 67.6543 13.247 67.7981C14.7417 68.0324 16.3547 68.2253 17.9509 68.3463C18.7925 68.4105 19.6324 68.5121 20.4352 68.7058C22.0296 69.0999 23.4363 69.9424 24.5029 71.2222C25.0324 71.8617 25.4663 72.6153 25.8453 73.4172L25.649 73.6549Z" fill="url(#paint3_linear_156_2860)"/>
<path d="M27.0726 70.44C26.6979 68.0893 25.4621 66.1041 23.3703 64.7972C22.0059 63.8676 20.3726 63.2222 18.7223 62.5109C16.9265 61.7318 15.6087 60.1915 16.0984 58.0718C16.3251 57.1295 16.858 56.117 17.6641 55.146L17.9339 55.1189C17.9077 55.8616 17.8629 56.5966 18.0346 57.2513C18.219 58.027 18.6512 58.6487 19.2611 59.1663C20.4385 60.1162 21.7386 61.0898 23.0607 61.9932C23.7577 62.4694 24.4344 62.9778 25.0333 63.5462C26.2166 64.6847 27.0134 66.1176 27.2985 67.7594C27.4372 68.5774 27.4363 69.4478 27.3636 70.3317L27.0752 70.4391L27.0726 70.44Z" fill="url(#paint4_linear_156_2860)"/>
<path d="M29.913 68.3675C30.764 66.1446 30.6861 63.8075 29.5281 61.6302C28.8117 60.1432 27.7189 58.7678 26.6455 57.3265C25.4799 55.754 25.1085 53.7612 26.593 52.1701C27.2604 51.4672 28.2281 50.8565 29.4114 50.4192L29.6584 50.53C29.2642 51.1602 28.8582 51.7743 28.6798 52.4273C28.4514 53.1919 28.5157 53.9456 28.7838 54.6992C29.3285 56.111 29.968 57.6039 30.6608 59.047C31.0262 59.8082 31.3577 60.5864 31.592 61.3782C32.048 62.9565 32.0209 64.595 31.4466 66.1598C31.1581 66.938 30.7217 67.6908 30.2167 68.4199L29.913 68.3683V68.3675Z" fill="url(#paint5_linear_156_2860)"/>
<path d="M33.4081 67.9936C35.2563 66.4939 36.3576 64.4309 36.4439 61.966C36.5674 60.32 36.3086 58.5826 36.0996 56.7978C35.8763 54.8532 36.5513 52.9415 38.6321 52.3063C39.5617 52.0314 40.7045 51.9866 41.9488 52.1989L42.1069 52.4188C41.4505 52.7673 40.7925 53.0963 40.3103 53.5717C39.7309 54.1198 39.4086 54.805 39.2648 55.5916C39.0305 57.0862 38.8377 58.6993 38.7167 60.2954C38.6524 61.1371 38.5509 61.977 38.3572 62.7797C37.9631 64.3742 37.1206 65.7808 35.8408 66.8475C35.2013 67.377 34.4477 67.8109 33.6458 68.1899L33.4081 67.9936Z" fill="url(#paint6_linear_156_2860)"/>
<path d="M36.6232 69.4164C38.9739 69.0417 40.9591 67.8059 42.266 65.7141C43.1956 64.3497 43.841 62.7163 44.5523 61.0661C45.3314 59.2703 46.8717 57.9525 48.9914 58.4422C49.9337 58.6689 50.9462 59.2018 51.9172 60.0079L51.9443 60.2777C51.2016 60.2515 50.4666 60.2067 49.8119 60.3784C49.0362 60.5628 48.4145 60.995 47.8969 61.6049C46.947 62.7823 45.9734 64.0824 45.07 65.4045C44.5938 66.1015 44.0854 66.7782 43.517 67.377C42.3785 68.5604 40.9456 69.3572 39.3038 69.6422C38.4858 69.781 37.6154 69.7801 36.7315 69.7074L36.6241 69.4189L36.6232 69.4164Z" fill="url(#paint7_linear_156_2860)"/>
<path d="M38.6956 72.2567C40.9185 73.1077 43.2556 73.0299 45.4328 71.8719C46.9199 71.1554 48.2952 70.0626 49.7366 68.9892C51.309 67.8236 53.3019 67.4523 54.8929 68.9367C55.5959 69.6041 56.2066 70.5718 56.6439 71.7551L56.5331 72.0021C55.9029 71.608 55.2888 71.2019 54.6358 71.0235C53.8711 70.7951 53.1175 70.8594 52.3638 71.1275C50.9521 71.6722 49.4591 72.3117 48.0161 73.0045C47.2548 73.3699 46.4766 73.7015 45.6849 73.9358C44.1065 74.3917 42.4681 74.3646 40.9033 73.7903C40.1251 73.5018 39.3723 73.0654 38.6431 72.5604L38.6947 72.2567H38.6956Z" fill="url(#paint8_linear_156_2860)"/>
<path d="M39.0703 75.7527C40.57 77.6009 42.6331 78.7022 45.0979 78.7885C46.7439 78.912 48.4813 78.6531 50.2661 78.4442C52.2107 78.2209 54.1224 78.8959 54.7576 80.9767C55.0325 81.9063 55.0774 83.0491 54.865 84.2933L54.6451 84.4515C54.2966 83.7951 53.9676 83.137 53.4922 82.6549C52.9441 82.0755 52.2589 81.7532 51.4723 81.6094C49.9777 81.3751 48.3646 81.1823 46.7685 81.0613C45.9268 80.997 45.0869 80.8955 44.2842 80.7018C42.6897 80.3076 41.2831 79.4652 40.2164 78.1854C39.6869 77.5459 39.253 76.7922 38.8741 75.9904L39.0703 75.7527Z" fill="url(#paint9_linear_156_2860)"/>
<path d="M37.6467 78.967C38.0214 81.3177 39.2572 83.3029 41.349 84.6098C42.7134 85.5394 44.3468 86.1848 45.997 86.8961C47.7928 87.6752 49.1106 89.2155 48.6209 91.3352C48.3942 92.2775 47.8613 93.29 47.0552 94.261L46.7854 94.2881C46.8116 93.5454 46.8564 92.8104 46.6847 92.1557C46.5003 91.38 46.0681 90.7583 45.4582 90.2407C44.2808 89.2908 42.9807 88.3172 41.6586 87.4138C40.9616 86.9376 40.2849 86.4292 39.6861 85.8608C38.5027 84.7223 37.7059 83.2894 37.4209 81.6476C37.2821 80.8296 37.283 79.9592 37.3557 79.0753L37.6442 78.9679L37.6467 78.967Z" fill="url(#paint10_linear_156_2860)"/>
<path d="M34.8063 81.0393C33.9554 83.2622 34.0332 85.5993 35.1912 87.7765C35.9076 89.2636 37.0005 90.6389 38.0739 92.0803C39.2395 93.6527 39.6108 95.6456 38.1263 97.2366C37.4589 97.9395 36.4913 98.5502 35.3079 98.9876L35.0609 98.8768C35.4551 98.2466 35.8611 97.6325 36.0396 96.9795C36.268 96.2148 36.2037 95.4612 35.9355 94.7075C35.3908 93.2958 34.7513 91.8028 34.0586 90.3598C33.6932 89.5985 33.3616 88.8203 33.1273 88.0286C32.6714 86.4502 32.6984 84.8118 33.2728 83.247C33.5612 82.4688 33.9977 81.7159 34.5027 80.9868L34.8063 81.0384V81.0393Z" fill="url(#paint11_linear_156_2860)"/>
</g>
<mask id="mask1_156_2860" style="mask-type:luminance" maskUnits="userSpaceOnUse" x="68" y="5" width="57" height="61">
<path d="M124.518 5.49976L68.0951 5.63509L68.1594 32.5783L96.3392 32.5115L111.537 65.0263H124.66L124.518 5.49976Z" fill="white"/>
</mask>
<g mask="url(#mask1_156_2860)">
<path d="M97.4203 25.8005C99.2685 24.3008 100.37 22.2377 100.456 19.7729C100.58 18.1269 100.321 16.3895 100.112 14.6047C99.8885 12.6601 100.563 10.7484 102.644 10.1132C103.574 9.83828 104.717 9.79345 105.961 10.0058L106.119 10.2257C105.463 10.5742 104.805 10.9032 104.322 11.3786C103.743 11.9267 103.421 12.6119 103.277 13.3985C103.043 14.8931 102.85 16.5062 102.729 18.1023C102.665 18.944 102.563 19.7839 102.369 20.5866C101.975 22.1811 101.133 23.5877 99.853 24.6544C99.2135 25.1839 98.4598 25.6178 97.6579 25.9967L97.4203 25.8005Z" fill="url(#paint12_linear_156_2860)"/>
<path d="M100.635 27.224C102.985 26.8493 104.97 25.6135 106.277 23.5217C107.207 22.1573 107.852 20.524 108.564 18.8737C109.343 17.0779 110.883 15.7601 113.003 16.2498C113.945 16.4765 114.957 17.0094 115.929 17.8155L115.956 18.0853C115.213 18.0591 114.478 18.0143 113.823 18.186C113.048 18.3704 112.426 18.8026 111.908 19.4125C110.958 20.5899 109.985 21.89 109.081 23.2121C108.605 23.9091 108.097 24.5858 107.528 25.1847C106.39 26.368 104.957 27.1648 103.315 27.4499C102.497 27.5886 101.627 27.5877 100.743 27.515L100.635 27.2266L100.635 27.224Z" fill="url(#paint13_linear_156_2860)"/>
<path d="M102.707 30.0644C104.93 30.9153 107.267 30.8375 109.444 29.6795C110.931 28.963 112.307 27.8702 113.748 26.7968C115.32 25.6312 117.313 25.2599 118.904 26.7444C119.607 27.4117 120.218 28.3794 120.655 29.5628L120.544 29.8097C119.914 29.4156 119.3 29.0096 118.647 28.8311C117.882 28.6027 117.129 28.667 116.375 28.9351C114.963 29.4799 113.47 30.1193 112.027 30.8121C111.266 31.1775 110.488 31.5091 109.696 31.7434C108.118 32.1993 106.479 32.1722 104.915 31.5979C104.136 31.3095 103.384 30.873 102.654 30.368L102.706 30.0644H102.707Z" fill="url(#paint14_linear_156_2860)"/>
<path d="M103.082 33.5603C104.581 35.4085 106.644 36.5098 109.109 36.5961C110.755 36.7196 112.493 36.4608 114.277 36.2518C116.222 36.0285 118.134 36.7035 118.769 38.7843C119.044 39.7139 119.089 40.8567 118.876 42.101L118.656 42.2591C118.308 41.6027 117.979 40.9447 117.504 40.4625C116.955 39.8831 116.27 39.5608 115.484 39.417C113.989 39.1827 112.376 38.9899 110.78 38.8689C109.938 38.8046 109.098 38.7031 108.296 38.5094C106.701 38.1153 105.294 37.2728 104.228 35.993C103.698 35.3535 103.264 34.5999 102.885 33.798L103.082 33.5603Z" fill="url(#paint15_linear_156_2860)"/>
<path d="M101.658 36.7747C102.033 39.1253 103.269 41.1105 105.36 42.4174C106.725 43.347 108.358 43.9924 110.008 44.7038C111.804 45.4828 113.122 47.0231 112.632 49.1428C112.406 50.0851 111.873 51.0976 111.067 52.0687L110.797 52.0957C110.823 51.3531 110.868 50.618 110.696 49.9633C110.512 49.1877 110.079 48.5659 109.47 48.0483C108.292 47.0984 106.992 46.1248 105.67 45.2214C104.973 44.7452 104.296 44.2368 103.697 43.6684C102.514 42.5299 101.717 41.097 101.432 39.4552C101.293 38.6372 101.294 37.7669 101.367 36.8829L101.656 36.7755L101.658 36.7747Z" fill="url(#paint16_linear_156_2860)"/>
<path d="M98.8176 38.8469C97.9667 41.0698 98.0445 43.4069 99.2025 45.5842C99.9189 47.0712 101.012 48.4465 102.085 49.8879C103.251 51.4603 103.622 53.4532 102.138 55.0443C101.47 55.7472 100.503 56.3579 99.3192 56.7952L99.0722 56.6844C99.4664 56.0542 99.8724 55.4401 100.051 54.7871C100.279 54.0225 100.215 53.2688 99.9468 52.5151C99.4021 51.1034 98.7626 49.6104 98.0699 48.1674C97.7045 47.4061 97.3729 46.6279 97.1386 45.8362C96.6827 44.2578 96.7097 42.6194 97.2841 41.0546C97.5725 40.2764 98.009 39.5236 98.514 38.7944L98.8176 38.846V38.8469Z" fill="url(#paint17_linear_156_2860)"/>
<path d="M95.3225 39.2216C93.4743 40.7213 92.373 42.7844 92.2867 45.2492C92.1632 46.8953 92.4221 48.6327 92.631 50.4174C92.8543 52.3621 92.1793 54.2737 90.0985 54.909C89.1689 55.1839 88.0261 55.2287 86.7819 55.0164L86.6237 54.7965C87.2801 54.448 87.9382 54.1189 88.4203 53.6435C88.9997 53.0954 89.322 52.4103 89.4658 51.6236C89.7001 50.129 89.8929 48.5159 90.0139 46.9198C90.0782 46.0782 90.1797 45.2382 90.3734 44.4355C90.7676 42.8411 91.61 41.4344 92.8898 40.3678C93.5293 39.8383 94.283 39.4043 95.0848 39.0254L95.3225 39.2216Z" fill="url(#paint18_linear_156_2860)"/>
<path d="M92.1074 37.7981C89.7567 38.1728 87.7715 39.4086 86.4647 41.5004C85.5351 42.8648 84.8897 44.4981 84.1783 46.1484C83.3993 47.9442 81.8589 49.262 79.7392 48.7723C78.7969 48.5456 77.7844 48.0127 76.8134 47.2066L76.7863 46.9367C77.529 46.963 78.264 47.0078 78.9187 46.8361C79.6944 46.6517 80.3161 46.2195 80.8338 45.6096C81.7837 44.4322 82.7572 43.1321 83.6606 41.81C84.1368 41.113 84.6452 40.4363 85.2136 39.8374C86.3521 38.6541 87.785 37.8573 89.4269 37.5722C90.2448 37.4335 91.1152 37.4343 91.9991 37.5071L92.1065 37.7955L92.1074 37.7981Z" fill="url(#paint19_linear_156_2860)"/>
<path d="M90.035 34.9578C87.8121 34.1068 85.475 34.1846 83.2978 35.3426C81.8107 36.0591 80.4354 37.1519 78.994 38.2253C77.4216 39.3909 75.4287 39.7622 73.8377 38.2778C73.1348 37.6104 72.524 36.6427 72.0867 35.4593L72.1975 35.2124C72.8277 35.6065 73.4418 36.0125 74.0948 36.191C74.8595 36.4194 75.6131 36.3551 76.3668 36.087C77.7785 35.5422 79.2715 34.9028 80.7145 34.21C81.4758 33.8446 82.254 33.513 83.0457 33.2787C84.6241 32.8228 86.2625 32.8499 87.8273 33.4242C88.6055 33.7126 89.3584 34.1491 90.0875 34.6541L90.0359 34.9578H90.035Z" fill="url(#paint20_linear_156_2860)"/>
<path d="M89.6603 31.4625C88.1606 29.6143 86.0975 28.513 83.6327 28.4267C81.9867 28.3032 80.2493 28.562 78.4645 28.771C76.5199 28.9943 74.6082 28.3193 73.973 26.2385C73.6981 25.3089 73.6532 24.1661 73.8656 22.9218L74.0855 22.7637C74.434 23.4201 74.763 24.0781 75.2384 24.5603C75.7865 25.1397 76.4717 25.462 77.2583 25.6058C78.7529 25.8401 80.366 26.0329 81.9621 26.1539C82.8038 26.2182 83.6437 26.3197 84.4464 26.5134C86.0409 26.9075 87.4475 27.75 88.5142 29.0298C89.0437 29.6693 89.4776 30.4229 89.8565 31.2248L89.6603 31.4625Z" fill="url(#paint21_linear_156_2860)"/>
<path d="M91.0839 28.2476C90.7092 25.8969 89.4734 23.9117 87.3816 22.6048C86.0172 21.6752 84.3839 21.0299 82.7336 20.3185C80.9378 19.5394 79.62 17.9991 80.1097 15.8794C80.3364 14.9371 80.8693 13.9246 81.6754 12.9536L81.9452 12.9265C81.919 13.6692 81.8742 14.4042 82.0459 15.0589C82.2303 15.8346 82.6625 16.4563 83.2724 16.974C84.4498 17.9239 85.7499 18.8974 87.072 19.8008C87.769 20.277 88.4457 20.7854 89.0445 21.3538C90.2279 22.4923 91.0247 23.9252 91.3098 25.567C91.4485 26.385 91.4476 27.2554 91.3749 28.1393L91.0864 28.2467L91.0839 28.2476Z" fill="url(#paint22_linear_156_2860)"/>
<path d="M93.9243 26.1751C94.7752 23.9522 94.6974 21.6151 93.5394 19.4378C92.823 17.9508 91.7301 16.5754 90.6568 15.1341C89.4912 13.5616 89.1198 11.5688 90.6043 9.97774C91.2717 9.27483 92.2394 8.66412 93.4227 8.22681L93.6697 8.33761C93.2755 8.96778 92.8695 9.58187 92.691 10.2349C92.4627 10.9995 92.527 11.7532 92.7951 12.5069C93.3398 13.9186 93.9793 15.4115 94.672 16.8546C95.0375 17.6159 95.369 18.394 95.6033 19.1858C96.0593 20.7641 96.0322 22.4026 95.4579 23.9674C95.1694 24.7456 94.7329 25.4984 94.228 26.2276L93.9243 26.176V26.1751Z" fill="url(#paint23_linear_156_2860)"/>
</g>
<path d="M39.456 51.9672C35.3798 51.9672 32.3524 48.8206 32.3524 44.8434V44.8036C32.3524 40.8661 35.3197 37.6409 39.5744 37.6409C42.1864 37.6409 43.7496 38.5121 45.0353 39.7784L43.0966 42.0148C42.0282 41.0446 40.9405 40.4508 39.5549 40.4508C37.2195 40.4508 35.538 42.3904 35.538 44.7647V44.8045C35.538 47.1796 37.1806 49.1581 39.5549 49.1581C41.1375 49.1581 42.1069 48.5245 43.1955 47.5357L45.1342 49.4939C43.7098 51.0181 42.1272 51.968 39.456 51.968V51.9672Z" fill="white"/>
<path d="M47.5762 51.7296V37.8787H50.6239V48.9594H57.5295V51.7296H47.5771H47.5762Z" fill="white"/>
<path d="M59.9689 51.7296V37.8787H63.0166V51.7296H59.9689Z" fill="white"/>
<path d="M77.3065 51.7296V42.6874L73.4088 48.6033H73.3302L69.4713 42.7466V51.7296H66.4838V37.8787H69.7691L73.4097 43.7362L77.0511 37.8787H80.3356V51.7296H77.3082H77.3065Z" fill="white"/>
<path d="M93.9759 51.7295L92.7096 48.6235H86.8529L85.5867 51.7295H82.4807L88.4161 37.7795H91.226L97.1623 51.7295H93.9759ZM89.7813 41.4404L87.9415 45.9319H91.621L89.7813 41.4404Z" fill="white"/>
<path d="M39.615 60.9105V71.9515H36.5674V60.9105H32.3524V58.1006H43.8282V60.9105H39.6142H39.615Z" fill="white"/>
<path d="M46.1704 71.9515V58.1006H56.6176V60.8116H49.1977V63.6215H55.7278V66.3325H49.1977V69.2414H56.7166V71.9524H46.1704V71.9515Z" fill="white"/>
<path d="M65.9255 72.1891C61.8493 72.1891 58.822 69.0425 58.822 65.0653V65.0255C58.822 61.0881 61.7892 57.8628 66.0439 57.8628C68.6559 57.8628 70.2191 58.734 71.5048 60.0003L69.5661 62.2367C68.4978 61.2665 67.41 60.6727 66.0245 60.6727C63.689 60.6727 62.0075 62.6123 62.0075 64.9866V65.0264C62.0075 67.4016 63.6501 69.38 66.0245 69.38C67.6071 69.38 68.5764 68.7465 69.665 67.7577L71.6038 69.7158C70.1793 71.2401 68.5967 72.19 65.9255 72.19V72.1891Z" fill="white"/>
<path d="M83.7604 71.9515L77.0536 63.147V71.9515H74.0457V58.1006H76.8557L83.346 66.6294V58.1006H86.353V71.9515H83.7604Z" fill="white"/>
<path d="M89.8236 71.9515V58.1006H92.8712V71.9515H89.8236Z" fill="white"/>
<path d="M102.828 72.1891C98.7516 72.1891 95.7243 69.0425 95.7243 65.0653V65.0255C95.7243 61.0881 98.6916 57.8628 102.946 57.8628C105.558 57.8628 107.121 58.734 108.407 60.0003L106.468 62.2367C105.4 61.2665 104.312 60.6727 102.927 60.6727C100.591 60.6727 98.9098 62.6123 98.9098 64.9866V65.0264C98.9098 67.4016 100.552 69.38 102.927 69.38C104.509 69.38 105.479 68.7465 106.567 67.7577L108.506 69.7158C107.082 71.2401 105.499 72.19 102.828 72.19V72.1891Z" fill="white"/>
<path d="M117.28 72.1891C113.007 72.1891 109.94 69.0028 109.94 65.0653V65.0255C109.94 61.0881 113.046 57.8628 117.321 57.8628C121.596 57.8628 124.661 61.0491 124.661 64.9866V65.0264C124.661 68.9639 121.555 72.1891 117.28 72.1891ZM121.476 65.0264C121.476 62.6521 119.734 60.6727 117.28 60.6727C114.826 60.6727 113.125 62.6123 113.125 64.9866V65.0264C113.125 67.4016 114.867 69.38 117.321 69.38C119.775 69.38 121.476 67.4413 121.476 65.0661V65.0264Z" fill="white"/>
<defs>
<linearGradient id="paint0_linear_156_2860" x1="35.3677" y1="83.508" x2="21.0567" y2="102.647" gradientUnits="userSpaceOnUse">
<stop stop-color="#E3312D"/>
<stop offset="0.22" stop-color="#E95F32"/>
<stop offset="0.56" stop-color="#F18F34"/>
<stop offset="0.86" stop-color="#FDC800"/>
<stop offset="0.9" stop-color="#FDCB03"/>
<stop offset="0.95" stop-color="#FDD70E"/>
<stop offset="0.99" stop-color="#FEE921"/>
<stop offset="1" stop-color="#FFEF26"/>
</linearGradient>
<linearGradient id="paint1_linear_156_2860" x1="-114.766" y1="-166.47" x2="-134.669" y2="-154.969" gradientUnits="userSpaceOnUse">
<stop stop-color="#E3312D"/>
<stop offset="0.22" stop-color="#E95F32"/>
<stop offset="0.56" stop-color="#F18F34"/>
<stop offset="0.86" stop-color="#FDC800"/>
<stop offset="0.9" stop-color="#FDCB03"/>
<stop offset="0.95" stop-color="#FDD70E"/>
<stop offset="0.99" stop-color="#FEE921"/>
<stop offset="1" stop-color="#FFEF26"/>
</linearGradient>
<linearGradient id="paint2_linear_156_2860" x1="26.239" y1="81.7106" x2="2.50877" y2="78.8863" gradientUnits="userSpaceOnUse">
<stop stop-color="#E3312D"/>
<stop offset="0.22" stop-color="#E95F32"/>
<stop offset="0.56" stop-color="#F18F34"/>
<stop offset="0.86" stop-color="#FDC800"/>
<stop offset="0.9" stop-color="#FDCB03"/>
<stop offset="0.95" stop-color="#FDD70E"/>
<stop offset="0.99" stop-color="#FEE921"/>
<stop offset="1" stop-color="#FFEF26"/>
</linearGradient>
<linearGradient id="paint3_linear_156_2860" x1="28.4627" y1="68.1804" x2="8.20583" y2="80.18" gradientUnits="userSpaceOnUse">
<stop stop-color="#E3312D"/>
<stop offset="0.22" stop-color="#E95F32"/>
<stop offset="0.56" stop-color="#F18F34"/>
<stop offset="0.86" stop-color="#FDC800"/>
<stop offset="0.9" stop-color="#FDCB03"/>
<stop offset="0.95" stop-color="#FDD70E"/>
<stop offset="0.99" stop-color="#FEE921"/>
<stop offset="1" stop-color="#FFEF26"/>
</linearGradient>
<linearGradient id="paint4_linear_156_2860" x1="29.2655" y1="60.7978" x2="10.9295" y2="65.1643" gradientUnits="userSpaceOnUse">
<stop stop-color="#E3312D"/>
<stop offset="0.22" stop-color="#E95F32"/>
<stop offset="0.56" stop-color="#F18F34"/>
<stop offset="0.86" stop-color="#FDC800"/>
<stop offset="0.9" stop-color="#FDCB03"/>
<stop offset="0.95" stop-color="#FDD70E"/>
<stop offset="0.99" stop-color="#FEE921"/>
<stop offset="1" stop-color="#FFEF26"/>
</linearGradient>
<linearGradient id="paint5_linear_156_2860" x1="25.3525" y1="68.5827" x2="28.1769" y2="44.8533" gradientUnits="userSpaceOnUse">
<stop stop-color="#E3312D"/>
<stop offset="0.22" stop-color="#E95F32"/>
<stop offset="0.56" stop-color="#F18F34"/>
<stop offset="0.86" stop-color="#FDC800"/>
<stop offset="0.9" stop-color="#FDCB03"/>
<stop offset="0.95" stop-color="#FDD70E"/>
<stop offset="0.99" stop-color="#FEE921"/>
<stop offset="1" stop-color="#FFEF26"/>
</linearGradient>
<linearGradient id="paint6_linear_156_2860" x1="280.361" y1="210.003" x2="291.847" y2="190.092" gradientUnits="userSpaceOnUse">
<stop stop-color="#E3312D"/>
<stop offset="0.22" stop-color="#E95F32"/>
<stop offset="0.56" stop-color="#F18F34"/>
<stop offset="0.86" stop-color="#FDC800"/>
<stop offset="0.9" stop-color="#FDCB03"/>
<stop offset="0.95" stop-color="#FDD70E"/>
<stop offset="0.99" stop-color="#FEE921"/>
<stop offset="1" stop-color="#FFEF26"/>
</linearGradient>
<linearGradient id="paint7_linear_156_2860" x1="34.1568" y1="65.5751" x2="56.1199" y2="56.156" gradientUnits="userSpaceOnUse">
<stop stop-color="#E3312D"/>
<stop offset="0.22" stop-color="#E95F32"/>
<stop offset="0.56" stop-color="#F18F34"/>
<stop offset="0.86" stop-color="#FDC800"/>
<stop offset="0.9" stop-color="#FDCB03"/>
<stop offset="0.95" stop-color="#FDD70E"/>
<stop offset="0.99" stop-color="#FEE921"/>
<stop offset="1" stop-color="#FFEF26"/>
</linearGradient>
<linearGradient id="paint8_linear_156_2860" x1="38.4803" y1="67.6963" x2="62.2105" y2="70.5206" gradientUnits="userSpaceOnUse">
<stop stop-color="#E3312D"/>
<stop offset="0.22" stop-color="#E95F32"/>
<stop offset="0.56" stop-color="#F18F34"/>
<stop offset="0.86" stop-color="#FDC800"/>
<stop offset="0.9" stop-color="#FDCB03"/>
<stop offset="0.95" stop-color="#FDD70E"/>
<stop offset="0.99" stop-color="#FEE921"/>
<stop offset="1" stop-color="#FFEF26"/>
</linearGradient>
<linearGradient id="paint9_linear_156_2860" x1="44.7103" y1="74.3643" x2="47.182" y2="88.7012" gradientUnits="userSpaceOnUse">
<stop stop-color="#E3312D"/>
<stop offset="0.22" stop-color="#E95F32"/>
<stop offset="0.56" stop-color="#F18F34"/>
<stop offset="0.86" stop-color="#FDC800"/>
<stop offset="0.9" stop-color="#FDCB03"/>
<stop offset="0.95" stop-color="#FDD70E"/>
<stop offset="0.99" stop-color="#FEE921"/>
<stop offset="1" stop-color="#FFEF26"/>
</linearGradient>
<linearGradient id="paint10_linear_156_2860" x1="41.4394" y1="76.5218" x2="50.8582" y2="98.4842" gradientUnits="userSpaceOnUse">
<stop stop-color="#E3312D"/>
<stop offset="0.22" stop-color="#E95F32"/>
<stop offset="0.56" stop-color="#F18F34"/>
<stop offset="0.86" stop-color="#FDC800"/>
<stop offset="0.9" stop-color="#FDCB03"/>
<stop offset="0.95" stop-color="#FDD70E"/>
<stop offset="0.99" stop-color="#FEE921"/>
<stop offset="1" stop-color="#FFEF26"/>
</linearGradient>
<linearGradient id="paint11_linear_156_2860" x1="39.3668" y1="80.8249" x2="36.5425" y2="104.554" gradientUnits="userSpaceOnUse">
<stop stop-color="#E3312D"/>
<stop offset="0.22" stop-color="#E95F32"/>
<stop offset="0.56" stop-color="#F18F34"/>
<stop offset="0.86" stop-color="#FDC800"/>
<stop offset="0.9" stop-color="#FDCB03"/>
<stop offset="0.95" stop-color="#FDD70E"/>
<stop offset="0.99" stop-color="#FEE921"/>
<stop offset="1" stop-color="#FFEF26"/>
</linearGradient>
<linearGradient id="paint12_linear_156_2860" x1="97.7188" y1="26.195" x2="99.371" y2="4.76498" gradientUnits="userSpaceOnUse">
<stop stop-color="#29235C"/>
<stop offset="0.22" stop-color="#2D2E83"/>
<stop offset="0.56" stop-color="#1D71B8"/>
<stop offset="0.86" stop-color="#1D71B8"/>
</linearGradient>
<linearGradient id="paint13_linear_156_2860" x1="100.464" y1="16.2276" x2="120.884" y2="17.3671" gradientUnits="userSpaceOnUse">
<stop stop-color="#29235C"/>
<stop offset="0.22" stop-color="#2D2E83"/>
<stop offset="0.56" stop-color="#1D71B8"/>
<stop offset="0.86" stop-color="#1D71B8"/>
</linearGradient>
<linearGradient id="paint14_linear_156_2860" x1="102.455" y1="25.815" x2="126.184" y2="28.6394" gradientUnits="userSpaceOnUse">
<stop stop-color="#29235C"/>
<stop offset="0.22" stop-color="#2D2E83"/>
<stop offset="0.56" stop-color="#1D71B8"/>
<stop offset="0.86" stop-color="#1D71B8"/>
</linearGradient>
<linearGradient id="paint15_linear_156_2860" x1="102.706" y1="33.6219" x2="124.136" y2="35.2738" gradientUnits="userSpaceOnUse">
<stop stop-color="#29235C"/>
<stop offset="0.22" stop-color="#2D2E83"/>
<stop offset="0.56" stop-color="#1D71B8"/>
<stop offset="0.86" stop-color="#1D71B8"/>
</linearGradient>
<linearGradient id="paint16_linear_156_2860" x1="101.192" y1="36.8832" x2="116.441" y2="37.3557" gradientUnits="userSpaceOnUse">
<stop stop-color="#29235C"/>
<stop offset="0.22" stop-color="#2D2E83"/>
<stop offset="0.56" stop-color="#1D71B8"/>
<stop offset="0.86" stop-color="#1D71B8"/>
</linearGradient>
<linearGradient id="paint17_linear_156_2860" x1="103.067" y1="38.5946" x2="100.243" y2="62.324" gradientUnits="userSpaceOnUse">
<stop stop-color="#29235C"/>
<stop offset="0.22" stop-color="#2D2E83"/>
<stop offset="0.56" stop-color="#1D71B8"/>
<stop offset="0.86" stop-color="#1D71B8"/>
</linearGradient>
<linearGradient id="paint18_linear_156_2860" x1="99.1284" y1="41.1272" x2="84.8178" y2="60.2653" gradientUnits="userSpaceOnUse">
<stop stop-color="#29235C"/>
<stop offset="0.22" stop-color="#2D2E83"/>
<stop offset="0.56" stop-color="#1D71B8"/>
<stop offset="0.86" stop-color="#1D71B8"/>
</linearGradient>
<linearGradient id="paint19_linear_156_2860" x1="35.814" y1="75.3971" x2="31.3209" y2="67.6586" gradientUnits="userSpaceOnUse">
<stop stop-color="#29235C"/>
<stop offset="0.22" stop-color="#2D2E83"/>
<stop offset="0.56" stop-color="#1D71B8"/>
<stop offset="0.86" stop-color="#1D71B8"/>
</linearGradient>
<linearGradient id="paint20_linear_156_2860" x1="90.2882" y1="39.2071" x2="66.5588" y2="36.3827" gradientUnits="userSpaceOnUse">
<stop stop-color="#29235C"/>
<stop offset="0.22" stop-color="#2D2E83"/>
<stop offset="0.56" stop-color="#1D71B8"/>
<stop offset="0.86" stop-color="#1D71B8"/>
</linearGradient>
<linearGradient id="paint21_linear_156_2860" x1="74.2856" y1="31.5695" x2="74.5464" y2="19.9455" gradientUnits="userSpaceOnUse">
<stop stop-color="#29235C"/>
<stop offset="0.22" stop-color="#2D2E83"/>
<stop offset="0.56" stop-color="#1D71B8"/>
<stop offset="0.86" stop-color="#1D71B8"/>
</linearGradient>
<linearGradient id="paint22_linear_156_2860" x1="80.3985" y1="28.436" x2="81.5382" y2="8.01622" gradientUnits="userSpaceOnUse">
<stop stop-color="#29235C"/>
<stop offset="0.22" stop-color="#2D2E83"/>
<stop offset="0.56" stop-color="#1D71B8"/>
<stop offset="0.86" stop-color="#1D71B8"/>
</linearGradient>
<linearGradient id="paint23_linear_156_2860" x1="89.8463" y1="26.4489" x2="92.6712" y2="2.71923" gradientUnits="userSpaceOnUse">
<stop stop-color="#29235C"/>
<stop offset="0.22" stop-color="#2D2E83"/>
<stop offset="0.56" stop-color="#1D71B8"/>
<stop offset="0.86" stop-color="#1D71B8"/>
</linearGradient>
</defs>
</svg>
