<svg width="205" height="110" viewBox="0 0 205 110" fill="none" xmlns="http://www.w3.org/2000/svg">
<mask id="mask0_156_3036" style="mask-type:luminance" maskUnits="userSpaceOnUse" x="4" y="42" width="57" height="60">
<path d="M4.21242 101.715L60.6355 101.58L60.5712 74.6362L32.3914 74.7038L18.3772 42.189H4.07031L4.21242 101.715Z" fill="white"/>
</mask>
<g mask="url(#mask0_156_3036)">
<path d="M31.3104 81.414C29.4622 82.9137 28.3609 84.9768 28.2746 87.4416C28.1511 89.0877 28.4099 90.8251 28.6189 92.6098C28.8422 94.5545 28.1672 96.4661 26.0864 97.1013C25.1568 97.3762 24.014 97.4211 22.7697 97.2088L22.6116 96.9888C23.268 96.6403 23.926 96.3113 24.4082 95.8359C24.9876 95.2878 25.3099 94.6027 25.4537 93.816C25.688 92.3214 25.8808 90.7083 26.0018 89.1122C26.0661 88.2706 26.1676 87.4306 26.3613 86.6279C26.7554 85.0335 27.5979 83.6268 28.8777 82.5602C29.5172 82.0306 30.2708 81.5967 31.0727 81.2178L31.3104 81.414Z" fill="url(#paint0_linear_156_3036)"/>
<path d="M28.0961 79.9905C25.7454 80.3652 23.7602 81.601 22.4534 83.6928C21.5238 85.0572 20.8784 86.6905 20.167 88.3408C19.388 90.1365 17.8476 91.4544 15.7279 90.9646C14.7856 90.738 13.7731 90.2051 12.8021 89.399L12.775 89.1291C13.5177 89.1553 14.2527 89.2002 14.9074 89.0285C15.6831 88.8441 16.3048 88.4118 16.8225 87.802C17.7724 86.6245 18.746 85.3244 19.6493 84.0024C20.1255 83.3054 20.6339 82.6287 21.2023 82.0298C22.3409 80.8465 23.7737 80.0497 25.4156 79.7646C26.2335 79.6259 27.1039 79.6267 27.9878 79.6995L28.0952 79.9879L28.0961 79.9905Z" fill="url(#paint1_linear_156_3036)"/>
<path d="M26.0237 77.1496C23.8008 76.2987 21.4637 76.3765 19.2865 77.5345C17.7994 78.251 16.4241 79.3438 14.9827 80.4172C13.4103 81.5828 11.4174 81.9541 9.82637 80.4696C9.12346 79.8023 8.51275 78.8346 8.07544 77.6512L8.18625 77.4042C8.81641 77.7984 9.43051 78.2044 10.0835 78.3829C10.8482 78.6113 11.6018 78.547 12.3555 78.2789C13.7672 77.7341 15.2602 77.0947 16.7032 76.4019C17.4645 76.0365 18.2427 75.7049 19.0344 75.4706C20.6128 75.0147 22.2512 75.0418 23.816 75.6161C24.5942 75.9045 25.3471 76.341 26.0762 76.846L26.0246 77.1496H26.0237Z" fill="url(#paint2_linear_156_3036)"/>
<path d="M25.649 73.6549C24.1493 71.8067 22.0862 70.7054 19.6214 70.6191C17.9754 70.4956 16.238 70.7544 14.4532 70.9634C12.5086 71.1867 10.5969 70.5117 9.96169 68.4308C9.68679 67.5012 9.64196 66.3585 9.85427 65.1142L10.0742 64.9561C10.4227 65.6124 10.7517 66.2705 11.2271 66.7527C11.7752 67.3321 12.4604 67.6543 13.247 67.7981C14.7416 68.0324 16.3547 68.2253 17.9508 68.3463C18.7925 68.4105 19.6324 68.5121 20.4351 68.7058C22.0296 69.0999 23.4362 69.9424 24.5029 71.2222C25.0324 71.8617 25.4663 72.6153 25.8453 73.4172L25.649 73.6549Z" fill="url(#paint3_linear_156_3036)"/>
<path d="M27.0727 70.4397C26.6979 68.0891 25.4621 66.1038 23.3703 64.797C22.006 63.8674 20.3726 63.222 18.7223 62.5106C16.9266 61.7316 15.6087 60.1913 16.0985 58.0715C16.3252 57.1293 16.858 56.1168 17.6641 55.1457L17.934 55.1187C17.9078 55.8613 17.8629 56.5964 18.0346 57.2511C18.219 58.0267 18.6513 58.6484 19.2611 59.1661C20.4386 60.116 21.7387 61.0896 23.0607 61.993C23.7577 62.4692 24.4344 62.9775 25.0333 63.546C26.2166 64.6845 27.0134 66.1174 27.2985 67.7592C27.4372 68.5771 27.4364 69.4475 27.3636 70.3314L27.0752 70.4389L27.0727 70.4397Z" fill="url(#paint4_linear_156_3036)"/>
<path d="M29.913 68.3673C30.7639 66.1443 30.6861 63.8072 29.5281 61.63C28.8117 60.143 27.7188 58.7676 26.6454 57.3262C25.4798 55.7538 25.1085 53.7609 26.593 52.1699C27.2604 51.467 28.228 50.8563 29.4114 50.4189L29.6584 50.5298C29.2642 51.1599 28.8582 51.774 28.6797 52.427C28.4513 53.1917 28.5156 53.9453 28.7838 54.699C29.3285 56.1107 29.968 57.6037 30.6607 59.0467C31.0261 59.808 31.3577 60.5862 31.592 61.3779C32.0479 62.9563 32.0209 64.5947 31.4465 66.1596C31.1581 66.9377 30.7216 67.6906 30.2167 68.4197L29.913 68.3681V68.3673Z" fill="url(#paint5_linear_156_3036)"/>
<path d="M33.4081 67.9936C35.2563 66.4939 36.3576 64.4309 36.4439 61.966C36.5674 60.32 36.3085 58.5826 36.0996 56.7978C35.8763 54.8532 36.5513 52.9415 38.6321 52.3063C39.5617 52.0314 40.7045 51.9866 41.9487 52.1989L42.1069 52.4188C41.4505 52.7673 40.7924 53.0963 40.3103 53.5717C39.7309 54.1198 39.4086 54.805 39.2648 55.5916C39.0305 57.0862 38.8377 58.6993 38.7167 60.2954C38.6524 61.1371 38.5509 61.977 38.3572 62.7797C37.963 64.3742 37.1206 65.7808 35.8408 66.8475C35.2013 67.377 34.4476 67.8109 33.6458 68.1899L33.4081 67.9936Z" fill="url(#paint6_linear_156_3036)"/>
<path d="M36.6232 69.4162C38.9738 69.0414 40.959 67.8056 42.2659 65.7138C43.1955 64.3495 43.8409 62.7161 44.5523 61.0658C45.3313 59.2701 46.8716 57.9522 48.9913 58.442C49.9336 58.6687 50.9461 59.2016 51.9172 60.0077L51.9442 60.2775C51.2016 60.2513 50.4665 60.2064 49.8118 60.3781C49.0362 60.5625 48.4145 60.9948 47.8968 61.6046C46.9469 62.7821 45.9733 64.0822 45.0699 65.4042C44.5937 66.1012 44.0853 66.7779 43.5169 67.3768C42.3784 68.5601 40.9455 69.357 39.3037 69.642C38.4858 69.7807 37.6154 69.7799 36.7314 69.7071L36.624 69.4187L36.6232 69.4162Z" fill="url(#paint7_linear_156_3036)"/>
<path d="M38.6956 72.2567C40.9186 73.1077 43.2557 73.0299 45.4329 71.8719C46.9199 71.1554 48.2953 70.0626 49.7366 68.9892C51.3091 67.8236 53.3019 67.4523 54.893 68.9367C55.5959 69.6041 56.2066 70.5718 56.6439 71.7551L56.5331 72.0021C55.903 71.608 55.2889 71.2019 54.6359 71.0235C53.8712 70.7951 53.1175 70.8594 52.3639 71.1275C50.9521 71.6722 49.4592 72.3117 48.0162 73.0045C47.2549 73.3699 46.4767 73.7015 45.685 73.9358C44.1066 74.3917 42.4682 74.3646 40.9033 73.7903C40.1251 73.5018 39.3723 73.0654 38.6432 72.5604L38.6948 72.2567H38.6956Z" fill="url(#paint8_linear_156_3036)"/>
<path d="M39.0703 75.7524C40.57 77.6006 42.633 78.702 45.0979 78.7882C46.7439 78.9117 48.4813 78.6529 50.2661 78.444C52.2107 78.2207 54.1223 78.8957 54.7576 80.9765C55.0325 81.9061 55.0773 83.0488 54.865 84.2931L54.6451 84.4513C54.2966 83.7949 53.9676 83.1368 53.4922 82.6547C52.9441 82.0752 52.2589 81.753 51.4723 81.6092C49.9776 81.3749 48.3646 81.182 46.7684 81.0611C45.9268 80.9968 45.0869 80.8953 44.2841 80.7016C42.6897 80.3074 41.283 79.4649 40.2164 78.1851C39.6869 77.5457 39.253 76.792 38.874 75.9901L39.0703 75.7524Z" fill="url(#paint9_linear_156_3036)"/>
<path d="M37.6467 78.9668C38.0214 81.3174 39.2572 83.3027 41.349 84.6095C42.7134 85.5391 44.3468 86.1845 45.997 86.8959C47.7928 87.6749 49.1106 89.2152 48.6209 91.335C48.3942 92.2772 47.8613 93.2897 47.0552 94.2608L46.7854 94.2879C46.8116 93.5452 46.8564 92.8101 46.6847 92.1555C46.5003 91.3798 46.0681 90.7581 45.4582 90.2404C44.2808 89.2905 42.9807 88.3169 41.6586 87.4136C40.9616 86.9373 40.2849 86.429 39.6861 85.8606C38.5027 84.722 37.7059 83.2891 37.4209 81.6473C37.2821 80.8294 37.283 79.959 37.3557 79.0751L37.6442 78.9676L37.6467 78.9668Z" fill="url(#paint10_linear_156_3036)"/>
<path d="M34.8063 81.0393C33.9553 83.2622 34.0331 85.5993 35.1911 87.7765C35.9076 89.2636 37.0004 90.6389 38.0738 92.0803C39.2394 93.6527 39.6107 95.6456 38.1263 97.2366C37.4589 97.9395 36.4912 98.5502 35.3079 98.9876L35.0609 98.8768C35.455 98.2466 35.8611 97.6325 36.0395 96.9795C36.2679 96.2148 36.2036 95.4612 35.9355 94.7075C35.3908 93.2958 34.7513 91.8028 34.0585 90.3598C33.6931 89.5985 33.3615 88.8203 33.1272 88.0286C32.6713 86.4502 32.6984 84.8118 33.2727 83.247C33.5612 82.4688 33.9976 81.7159 34.5026 80.9868L34.8063 81.0384V81.0393Z" fill="url(#paint11_linear_156_3036)"/>
</g>
<mask id="mask1_156_3036" style="mask-type:luminance" maskUnits="userSpaceOnUse" x="68" y="5" width="57" height="61">
<path d="M124.518 5.49951L68.0951 5.63485L68.1594 32.578L96.3392 32.5112L111.537 65.0261H124.66L124.518 5.49951Z" fill="white"/>
</mask>
<g mask="url(#mask1_156_3036)">
<path d="M97.4202 25.8003C99.2684 24.3005 100.37 22.2375 100.456 19.7727C100.579 18.1266 100.321 16.3892 100.112 14.6045C99.8884 12.6598 100.563 10.7482 102.644 10.1129C103.574 9.83803 104.717 9.7932 105.961 10.0055L106.119 10.2254C105.463 10.5739 104.805 10.903 104.322 11.3783C103.743 11.9265 103.421 12.6116 103.277 13.3983C103.043 14.8929 102.85 16.5059 102.729 18.1021C102.664 18.9437 102.563 19.7837 102.369 20.5864C101.975 22.1808 101.133 23.5875 99.8529 24.6541C99.2134 25.1836 98.4597 25.6176 97.6579 25.9965L97.4202 25.8003Z" fill="url(#paint12_linear_156_3036)"/>
<path d="M100.634 27.2238C102.985 26.8491 104.97 25.6133 106.277 23.5214C107.207 22.1571 107.852 20.5237 108.563 18.8734C109.343 17.0777 110.883 15.7598 113.003 16.2496C113.945 16.4763 114.957 17.0092 115.928 17.8153L115.955 18.0851C115.213 18.0589 114.478 18.014 113.823 18.1858C113.047 18.3702 112.426 18.8024 111.908 19.4123C110.958 20.5897 109.985 21.8898 109.081 23.2119C108.605 23.9088 108.097 24.5855 107.528 25.1844C106.39 26.3678 104.957 27.1646 103.315 27.4496C102.497 27.5883 101.627 27.5875 100.743 27.5148L100.635 27.2263L100.634 27.2238Z" fill="url(#paint13_linear_156_3036)"/>
<path d="M102.707 30.0644C104.93 30.9153 107.267 30.8375 109.444 29.6795C110.931 28.963 112.306 27.8702 113.748 26.7968C115.32 25.6312 117.313 25.2599 118.904 26.7444C119.607 27.4117 120.218 28.3794 120.655 29.5628L120.544 29.8097C119.914 29.4156 119.3 29.0096 118.647 28.8311C117.882 28.6027 117.129 28.667 116.375 28.9351C114.963 29.4799 113.47 30.1193 112.027 30.8121C111.266 31.1775 110.488 31.5091 109.696 31.7434C108.118 32.1993 106.479 32.1722 104.914 31.5979C104.136 31.3095 103.383 30.873 102.654 30.368L102.706 30.0644H102.707Z" fill="url(#paint14_linear_156_3036)"/>
<path d="M103.081 33.5601C104.581 35.4083 106.644 36.5096 109.109 36.5958C110.755 36.7193 112.493 36.4605 114.277 36.2516C116.222 36.0283 118.134 36.7033 118.769 38.7841C119.044 39.7137 119.089 40.8564 118.876 42.1007L118.656 42.2589C118.308 41.6025 117.979 40.9444 117.503 40.4623C116.955 39.8829 116.27 39.5606 115.483 39.4168C113.989 39.1825 112.376 38.9896 110.78 38.8687C109.938 38.8044 109.098 38.7029 108.295 38.5092C106.701 38.115 105.294 37.2725 104.228 35.9928C103.698 35.3533 103.264 34.5996 102.885 33.7977L103.081 33.5601Z" fill="url(#paint15_linear_156_3036)"/>
<path d="M101.658 36.7744C102.033 39.1251 103.268 41.1103 105.36 42.4171C106.725 43.3467 108.358 43.9921 110.008 44.7035C111.804 45.4825 113.122 47.0229 112.632 49.1426C112.405 50.0849 111.873 51.0974 111.066 52.0684L110.797 52.0955C110.823 51.3528 110.868 50.6178 110.696 49.9631C110.512 49.1874 110.079 48.5657 109.469 48.048C108.292 47.0981 106.992 46.1245 105.67 45.2212C104.973 44.745 104.296 44.2366 103.697 43.6682C102.514 42.5296 101.717 41.0968 101.432 39.4549C101.293 38.637 101.294 37.7666 101.367 36.8827L101.655 36.7753L101.658 36.7744Z" fill="url(#paint16_linear_156_3036)"/>
<path d="M98.8175 38.8469C97.9666 41.0698 98.0444 43.4069 99.2024 45.5842C99.9188 47.0712 101.012 48.4465 102.085 49.8879C103.251 51.4603 103.622 53.4532 102.137 55.0443C101.47 55.7472 100.502 56.3579 99.3191 56.7952L99.0721 56.6844C99.4663 56.0542 99.8723 55.4401 100.051 54.7871C100.279 54.0225 100.215 53.2688 99.9467 52.5151C99.402 51.1034 98.7625 49.6104 98.0698 48.1674C97.7043 47.4061 97.3728 46.6279 97.1385 45.8362C96.6825 44.2578 96.7096 42.6194 97.2839 41.0546C97.5724 40.2764 98.0089 39.5236 98.5138 38.7944L98.8175 38.846V38.8469Z" fill="url(#paint17_linear_156_3036)"/>
<path d="M95.3225 39.2216C93.4743 40.7213 92.373 42.7844 92.2867 45.2492C92.1632 46.8953 92.422 48.6327 92.631 50.4174C92.8543 52.3621 92.1793 54.2737 90.0985 54.909C89.1689 55.1839 88.0261 55.2287 86.7818 55.0164L86.6237 54.7965C87.28 54.448 87.9381 54.1189 88.4203 53.6435C88.9997 53.0954 89.3219 52.4103 89.4657 51.6236C89.7 50.129 89.8929 48.5159 90.0139 46.9198C90.0782 46.0782 90.1797 45.2382 90.3734 44.4355C90.7675 42.8411 91.61 41.4344 92.8898 40.3678C93.5293 39.8383 94.2829 39.4043 95.0848 39.0254L95.3225 39.2216Z" fill="url(#paint18_linear_156_3036)"/>
<path d="M92.1073 37.7981C89.7567 38.1728 87.7714 39.4086 86.4646 41.5004C85.535 42.8648 84.8896 44.4981 84.1782 46.1484C83.3992 47.9442 81.8589 49.262 79.7392 48.7723C78.7969 48.5456 77.7844 48.0127 76.8133 47.2066L76.7863 46.9367C77.5289 46.963 78.264 47.0078 78.9187 46.8361C79.6943 46.6517 80.316 46.2195 80.8337 45.6096C81.7836 44.4322 82.7572 43.1321 83.6606 41.81C84.1368 41.113 84.6451 40.4363 85.2136 39.8374C86.3521 38.6541 87.785 37.8573 89.4268 37.5722C90.2447 37.4335 91.1151 37.4343 91.9991 37.5071L92.1065 37.7955L92.1073 37.7981Z" fill="url(#paint19_linear_156_3036)"/>
<path d="M90.035 34.9573C87.8121 34.1063 85.4749 34.1841 83.2977 35.3421C81.8107 36.0586 80.4353 37.1514 78.994 38.2248C77.4215 39.3904 75.4287 39.7617 73.8376 38.2773C73.1347 37.6099 72.524 36.6422 72.0867 35.4589L72.1975 35.2119C72.8276 35.606 73.4417 36.012 74.0947 36.1905C74.8594 36.4189 75.6131 36.3546 76.3667 36.0865C77.7785 35.5418 79.2714 34.9023 80.7144 34.2095C81.4757 33.8441 82.2539 33.5125 83.0456 33.2782C84.624 32.8223 86.2624 32.8494 87.8273 33.4237C88.6055 33.7122 89.3583 34.1486 90.0874 34.6536L90.0358 34.9573H90.035Z" fill="url(#paint20_linear_156_3036)"/>
<path d="M89.6602 31.4625C88.1605 29.6143 86.0975 28.513 83.6326 28.4267C81.9866 28.3032 80.2492 28.562 78.4644 28.771C76.5198 28.9943 74.6082 28.3193 73.9729 26.2385C73.698 25.3089 73.6532 24.1661 73.8655 22.9218L74.0854 22.7637C74.4339 23.4201 74.763 24.0781 75.2383 24.5603C75.7864 25.1397 76.4716 25.462 77.2582 25.6058C78.7529 25.8401 80.3659 26.0329 81.9621 26.1539C82.8037 26.2182 83.6436 26.3197 84.4464 26.5134C86.0408 26.9075 87.4475 27.75 88.5141 29.0298C89.0436 29.6693 89.4775 30.4229 89.8565 31.2248L89.6602 31.4625Z" fill="url(#paint21_linear_156_3036)"/>
<path d="M91.0839 28.2473C90.7092 25.8967 89.4734 23.9115 87.3816 22.6046C86.0172 21.675 84.3838 21.0296 82.7335 20.3182C80.9378 19.5392 79.6199 17.9989 80.1097 15.8792C80.3364 14.9369 80.8693 13.9244 81.6754 12.9533L81.9452 12.9263C81.919 13.6689 81.8742 14.404 82.0459 15.0587C82.2303 15.8343 82.6625 16.456 83.2724 16.9737C84.4498 17.9236 85.7499 18.8972 87.072 19.8006C87.769 20.2768 88.4456 20.7852 89.0445 21.3536C90.2279 22.4921 91.0247 23.925 91.3097 25.5668C91.4484 26.3848 91.4476 27.2551 91.3749 28.1391L91.0864 28.2465L91.0839 28.2473Z" fill="url(#paint22_linear_156_3036)"/>
<path d="M93.9242 26.1749C94.7752 23.9519 94.6973 21.6148 93.5393 19.4376C92.8229 17.9506 91.7301 16.5752 90.6567 15.1339C89.4911 13.5614 89.1197 11.5686 90.6042 9.97749C91.2716 9.27458 92.2393 8.66387 93.4226 8.22656L93.6696 8.33737C93.2754 8.96754 92.8694 9.58163 92.6909 10.2346C92.4626 10.9993 92.5269 11.753 92.795 12.5066C93.3397 13.9184 93.9792 15.4113 94.672 16.8543C95.0374 17.6156 95.3689 18.3938 95.6032 19.1855C96.0592 20.7639 96.0321 22.4023 95.4578 23.9672C95.1693 24.7454 94.7329 25.4982 94.2279 26.2273L93.9242 26.1757V26.1749Z" fill="url(#paint23_linear_156_3036)"/>
</g>
<path d="M39.4559 51.967C35.3797 51.967 32.3524 48.8204 32.3524 44.8431V44.8034C32.3524 40.8659 35.3197 37.6406 39.5744 37.6406C42.1864 37.6406 43.7495 38.5119 45.0352 39.7781L43.0965 42.0146C42.0282 41.0444 40.9404 40.4506 39.5549 40.4506C37.2195 40.4506 35.5379 42.3901 35.5379 44.7645V44.8042C35.5379 47.1794 37.1806 49.1579 39.5549 49.1579C41.1375 49.1579 42.1069 48.5243 43.1955 47.5355L45.1342 49.4937C43.7098 51.0179 42.1272 51.9678 39.4559 51.9678V51.967Z" fill="white"/>
<path d="M47.5762 51.7294V37.8784H50.6238V48.9592H57.5294V51.7294H47.577H47.5762Z" fill="white"/>
<path d="M59.9689 51.7294V37.8784H63.0165V51.7294H59.9689Z" fill="white"/>
<path d="M77.3065 51.7294V42.6871L73.4088 48.6031H73.3302L69.4713 42.7463V51.7294H66.4838V37.8784H69.7691L73.4097 43.736L77.0511 37.8784H80.3356V51.7294H77.3082H77.3065Z" fill="white"/>
<path d="M93.9758 51.7292L92.7096 48.6232H86.8528L85.5866 51.7292H82.4806L88.416 37.7793H91.2259L97.1622 51.7292H93.9758ZM89.7812 41.4402L87.9415 45.9317H91.621L89.7812 41.4402Z" fill="white"/>
<path d="M39.615 60.91V71.9511H36.5673V60.91H32.3524V58.1001H43.8282V60.91H39.6141H39.615Z" fill="white"/>
<path d="M46.1704 71.9511V58.1001H56.6176V60.8111H49.1977V63.621H55.7278V66.332H49.1977V69.2409H56.7166V71.9519H46.1704V71.9511Z" fill="white"/>
<path d="M65.9254 72.1891C61.8492 72.1891 58.8219 69.0425 58.8219 65.0653V65.0255C58.8219 61.0881 61.7892 57.8628 66.0439 57.8628C68.6559 57.8628 70.219 58.734 71.5047 60.0003L69.566 62.2367C68.4977 61.2665 67.4099 60.6727 66.0244 60.6727C63.689 60.6727 62.0074 62.6123 62.0074 64.9866V65.0264C62.0074 67.4016 63.6501 69.38 66.0244 69.38C67.607 69.38 68.5764 68.7465 69.665 67.7577L71.6037 69.7158C70.1793 71.2401 68.5967 72.19 65.9254 72.19V72.1891Z" fill="white"/>
<path d="M83.7604 71.9511L77.0535 63.1465V71.9511H74.0457V58.1001H76.8556L83.3459 66.6289V58.1001H86.3529V71.9511H83.7604Z" fill="white"/>
<path d="M89.8235 71.9511V58.1001H92.8711V71.9511H89.8235Z" fill="white"/>
<path d="M102.828 72.1891C98.7516 72.1891 95.7242 69.0425 95.7242 65.0653V65.0255C95.7242 61.0881 98.6915 57.8628 102.946 57.8628C105.558 57.8628 107.121 58.734 108.407 60.0003L106.468 62.2367C105.4 61.2665 104.312 60.6727 102.927 60.6727C100.591 60.6727 98.9097 62.6123 98.9097 64.9866V65.0264C98.9097 67.4016 100.552 69.38 102.927 69.38C104.509 69.38 105.479 68.7465 106.567 67.7577L108.506 69.7158C107.082 71.2401 105.499 72.19 102.828 72.19V72.1891Z" fill="white"/>
<path d="M117.28 72.1891C113.007 72.1891 109.94 69.0028 109.94 65.0653V65.0255C109.94 61.0881 113.046 57.8628 117.321 57.8628C121.596 57.8628 124.661 61.0491 124.661 64.9866V65.0264C124.661 68.9639 121.555 72.1891 117.28 72.1891ZM121.476 65.0264C121.476 62.6521 119.734 60.6727 117.28 60.6727C114.826 60.6727 113.125 62.6123 113.125 64.9866V65.0264C113.125 67.4016 114.867 69.38 117.321 69.38C119.775 69.38 121.476 67.4413 121.476 65.0661V65.0264Z" fill="white"/>
<defs>
<linearGradient id="paint0_linear_156_3036" x1="35.3677" y1="83.508" x2="21.0567" y2="102.647" gradientUnits="userSpaceOnUse">
<stop stop-color="#E3312D"/>
<stop offset="0.22" stop-color="#E95F32"/>
<stop offset="0.56" stop-color="#F18F34"/>
<stop offset="0.86" stop-color="#FDC800"/>
<stop offset="0.9" stop-color="#FDCB03"/>
<stop offset="0.95" stop-color="#FDD70E"/>
<stop offset="0.99" stop-color="#FEE921"/>
<stop offset="1" stop-color="#FFEF26"/>
</linearGradient>
<linearGradient id="paint1_linear_156_3036" x1="-114.766" y1="-166.47" x2="-134.669" y2="-154.969" gradientUnits="userSpaceOnUse">
<stop stop-color="#E3312D"/>
<stop offset="0.22" stop-color="#E95F32"/>
<stop offset="0.56" stop-color="#F18F34"/>
<stop offset="0.86" stop-color="#FDC800"/>
<stop offset="0.9" stop-color="#FDCB03"/>
<stop offset="0.95" stop-color="#FDD70E"/>
<stop offset="0.99" stop-color="#FEE921"/>
<stop offset="1" stop-color="#FFEF26"/>
</linearGradient>
<linearGradient id="paint2_linear_156_3036" x1="26.239" y1="81.7101" x2="2.50877" y2="78.8858" gradientUnits="userSpaceOnUse">
<stop stop-color="#E3312D"/>
<stop offset="0.22" stop-color="#E95F32"/>
<stop offset="0.56" stop-color="#F18F34"/>
<stop offset="0.86" stop-color="#FDC800"/>
<stop offset="0.9" stop-color="#FDCB03"/>
<stop offset="0.95" stop-color="#FDD70E"/>
<stop offset="0.99" stop-color="#FEE921"/>
<stop offset="1" stop-color="#FFEF26"/>
</linearGradient>
<linearGradient id="paint3_linear_156_3036" x1="28.4627" y1="68.1804" x2="8.2058" y2="80.18" gradientUnits="userSpaceOnUse">
<stop stop-color="#E3312D"/>
<stop offset="0.22" stop-color="#E95F32"/>
<stop offset="0.56" stop-color="#F18F34"/>
<stop offset="0.86" stop-color="#FDC800"/>
<stop offset="0.9" stop-color="#FDCB03"/>
<stop offset="0.95" stop-color="#FDD70E"/>
<stop offset="0.99" stop-color="#FEE921"/>
<stop offset="1" stop-color="#FFEF26"/>
</linearGradient>
<linearGradient id="paint4_linear_156_3036" x1="29.2655" y1="60.7976" x2="10.9295" y2="65.1641" gradientUnits="userSpaceOnUse">
<stop stop-color="#E3312D"/>
<stop offset="0.22" stop-color="#E95F32"/>
<stop offset="0.56" stop-color="#F18F34"/>
<stop offset="0.86" stop-color="#FDC800"/>
<stop offset="0.9" stop-color="#FDCB03"/>
<stop offset="0.95" stop-color="#FDD70E"/>
<stop offset="0.99" stop-color="#FEE921"/>
<stop offset="1" stop-color="#FFEF26"/>
</linearGradient>
<linearGradient id="paint5_linear_156_3036" x1="25.3525" y1="68.5825" x2="28.1768" y2="44.8531" gradientUnits="userSpaceOnUse">
<stop stop-color="#E3312D"/>
<stop offset="0.22" stop-color="#E95F32"/>
<stop offset="0.56" stop-color="#F18F34"/>
<stop offset="0.86" stop-color="#FDC800"/>
<stop offset="0.9" stop-color="#FDCB03"/>
<stop offset="0.95" stop-color="#FDD70E"/>
<stop offset="0.99" stop-color="#FEE921"/>
<stop offset="1" stop-color="#FFEF26"/>
</linearGradient>
<linearGradient id="paint6_linear_156_3036" x1="280.361" y1="210.003" x2="291.847" y2="190.092" gradientUnits="userSpaceOnUse">
<stop stop-color="#E3312D"/>
<stop offset="0.22" stop-color="#E95F32"/>
<stop offset="0.56" stop-color="#F18F34"/>
<stop offset="0.86" stop-color="#FDC800"/>
<stop offset="0.9" stop-color="#FDCB03"/>
<stop offset="0.95" stop-color="#FDD70E"/>
<stop offset="0.99" stop-color="#FEE921"/>
<stop offset="1" stop-color="#FFEF26"/>
</linearGradient>
<linearGradient id="paint7_linear_156_3036" x1="34.1567" y1="65.5749" x2="56.1198" y2="56.1557" gradientUnits="userSpaceOnUse">
<stop stop-color="#E3312D"/>
<stop offset="0.22" stop-color="#E95F32"/>
<stop offset="0.56" stop-color="#F18F34"/>
<stop offset="0.86" stop-color="#FDC800"/>
<stop offset="0.9" stop-color="#FDCB03"/>
<stop offset="0.95" stop-color="#FDD70E"/>
<stop offset="0.99" stop-color="#FEE921"/>
<stop offset="1" stop-color="#FFEF26"/>
</linearGradient>
<linearGradient id="paint8_linear_156_3036" x1="38.4804" y1="67.6963" x2="62.2106" y2="70.5206" gradientUnits="userSpaceOnUse">
<stop stop-color="#E3312D"/>
<stop offset="0.22" stop-color="#E95F32"/>
<stop offset="0.56" stop-color="#F18F34"/>
<stop offset="0.86" stop-color="#FDC800"/>
<stop offset="0.9" stop-color="#FDCB03"/>
<stop offset="0.95" stop-color="#FDD70E"/>
<stop offset="0.99" stop-color="#FEE921"/>
<stop offset="1" stop-color="#FFEF26"/>
</linearGradient>
<linearGradient id="paint9_linear_156_3036" x1="44.7102" y1="74.3641" x2="47.182" y2="88.7009" gradientUnits="userSpaceOnUse">
<stop stop-color="#E3312D"/>
<stop offset="0.22" stop-color="#E95F32"/>
<stop offset="0.56" stop-color="#F18F34"/>
<stop offset="0.86" stop-color="#FDC800"/>
<stop offset="0.9" stop-color="#FDCB03"/>
<stop offset="0.95" stop-color="#FDD70E"/>
<stop offset="0.99" stop-color="#FEE921"/>
<stop offset="1" stop-color="#FFEF26"/>
</linearGradient>
<linearGradient id="paint10_linear_156_3036" x1="41.4394" y1="76.5215" x2="50.8582" y2="98.4839" gradientUnits="userSpaceOnUse">
<stop stop-color="#E3312D"/>
<stop offset="0.22" stop-color="#E95F32"/>
<stop offset="0.56" stop-color="#F18F34"/>
<stop offset="0.86" stop-color="#FDC800"/>
<stop offset="0.9" stop-color="#FDCB03"/>
<stop offset="0.95" stop-color="#FDD70E"/>
<stop offset="0.99" stop-color="#FEE921"/>
<stop offset="1" stop-color="#FFEF26"/>
</linearGradient>
<linearGradient id="paint11_linear_156_3036" x1="39.3668" y1="80.8249" x2="36.5424" y2="104.554" gradientUnits="userSpaceOnUse">
<stop stop-color="#E3312D"/>
<stop offset="0.22" stop-color="#E95F32"/>
<stop offset="0.56" stop-color="#F18F34"/>
<stop offset="0.86" stop-color="#FDC800"/>
<stop offset="0.9" stop-color="#FDCB03"/>
<stop offset="0.95" stop-color="#FDD70E"/>
<stop offset="0.99" stop-color="#FEE921"/>
<stop offset="1" stop-color="#FFEF26"/>
</linearGradient>
<linearGradient id="paint12_linear_156_3036" x1="97.7188" y1="26.1948" x2="99.3709" y2="4.76473" gradientUnits="userSpaceOnUse">
<stop stop-color="#29235C"/>
<stop offset="0.22" stop-color="#2D2E83"/>
<stop offset="0.56" stop-color="#1D71B8"/>
<stop offset="0.86" stop-color="#1D71B8"/>
</linearGradient>
<linearGradient id="paint13_linear_156_3036" x1="100.464" y1="16.2273" x2="120.884" y2="17.3668" gradientUnits="userSpaceOnUse">
<stop stop-color="#29235C"/>
<stop offset="0.22" stop-color="#2D2E83"/>
<stop offset="0.56" stop-color="#1D71B8"/>
<stop offset="0.86" stop-color="#1D71B8"/>
</linearGradient>
<linearGradient id="paint14_linear_156_3036" x1="102.454" y1="25.815" x2="126.184" y2="28.6394" gradientUnits="userSpaceOnUse">
<stop stop-color="#29235C"/>
<stop offset="0.22" stop-color="#2D2E83"/>
<stop offset="0.56" stop-color="#1D71B8"/>
<stop offset="0.86" stop-color="#1D71B8"/>
</linearGradient>
<linearGradient id="paint15_linear_156_3036" x1="102.706" y1="33.6217" x2="124.136" y2="35.2735" gradientUnits="userSpaceOnUse">
<stop stop-color="#29235C"/>
<stop offset="0.22" stop-color="#2D2E83"/>
<stop offset="0.56" stop-color="#1D71B8"/>
<stop offset="0.86" stop-color="#1D71B8"/>
</linearGradient>
<linearGradient id="paint16_linear_156_3036" x1="101.192" y1="36.8829" x2="116.44" y2="37.3554" gradientUnits="userSpaceOnUse">
<stop stop-color="#29235C"/>
<stop offset="0.22" stop-color="#2D2E83"/>
<stop offset="0.56" stop-color="#1D71B8"/>
<stop offset="0.86" stop-color="#1D71B8"/>
</linearGradient>
<linearGradient id="paint17_linear_156_3036" x1="103.067" y1="38.5946" x2="100.242" y2="62.324" gradientUnits="userSpaceOnUse">
<stop stop-color="#29235C"/>
<stop offset="0.22" stop-color="#2D2E83"/>
<stop offset="0.56" stop-color="#1D71B8"/>
<stop offset="0.86" stop-color="#1D71B8"/>
</linearGradient>
<linearGradient id="paint18_linear_156_3036" x1="99.1284" y1="41.1272" x2="84.8177" y2="60.2653" gradientUnits="userSpaceOnUse">
<stop stop-color="#29235C"/>
<stop offset="0.22" stop-color="#2D2E83"/>
<stop offset="0.56" stop-color="#1D71B8"/>
<stop offset="0.86" stop-color="#1D71B8"/>
</linearGradient>
<linearGradient id="paint19_linear_156_3036" x1="35.8139" y1="75.3971" x2="31.3209" y2="67.6586" gradientUnits="userSpaceOnUse">
<stop stop-color="#29235C"/>
<stop offset="0.22" stop-color="#2D2E83"/>
<stop offset="0.56" stop-color="#1D71B8"/>
<stop offset="0.86" stop-color="#1D71B8"/>
</linearGradient>
<linearGradient id="paint20_linear_156_3036" x1="90.2881" y1="39.2066" x2="66.5587" y2="36.3822" gradientUnits="userSpaceOnUse">
<stop stop-color="#29235C"/>
<stop offset="0.22" stop-color="#2D2E83"/>
<stop offset="0.56" stop-color="#1D71B8"/>
<stop offset="0.86" stop-color="#1D71B8"/>
</linearGradient>
<linearGradient id="paint21_linear_156_3036" x1="74.2855" y1="31.5695" x2="74.5464" y2="19.9455" gradientUnits="userSpaceOnUse">
<stop stop-color="#29235C"/>
<stop offset="0.22" stop-color="#2D2E83"/>
<stop offset="0.56" stop-color="#1D71B8"/>
<stop offset="0.86" stop-color="#1D71B8"/>
</linearGradient>
<linearGradient id="paint22_linear_156_3036" x1="80.3985" y1="28.4357" x2="81.5382" y2="8.01598" gradientUnits="userSpaceOnUse">
<stop stop-color="#29235C"/>
<stop offset="0.22" stop-color="#2D2E83"/>
<stop offset="0.56" stop-color="#1D71B8"/>
<stop offset="0.86" stop-color="#1D71B8"/>
</linearGradient>
<linearGradient id="paint23_linear_156_3036" x1="89.8462" y1="26.4486" x2="92.6711" y2="2.71899" gradientUnits="userSpaceOnUse">
<stop stop-color="#29235C"/>
<stop offset="0.22" stop-color="#2D2E83"/>
<stop offset="0.56" stop-color="#1D71B8"/>
<stop offset="0.86" stop-color="#1D71B8"/>
</linearGradient>
</defs>
</svg>
