<svg width="100" height="78" viewBox="0 0 100 78" fill="none" xmlns="http://www.w3.org/2000/svg">
<mask id="mask0_156_797" style="mask-type:luminance" maskUnits="userSpaceOnUse" x="2" y="29" width="42" height="44">
<path d="M3.00885 72.2117L43.3111 72.1156L43.2652 52.8699L23.1367 52.9182L13.1265 29.6933H2.90735L3.00885 72.2117Z" fill="white"/>
</mask>
<g mask="url(#mask0_156_797)">
<path d="M22.3646 57.7112C21.0444 58.7824 20.2578 60.2561 20.1961 62.0166C20.1079 63.1924 20.2928 64.4334 20.442 65.7082C20.6015 67.0973 20.1194 68.4627 18.6331 68.9165C17.9691 69.1128 17.1528 69.1448 16.2641 68.9932L16.1511 68.8361C16.62 68.5872 17.09 68.3521 17.4344 68.0126C17.8483 67.6211 18.0785 67.1317 18.1812 66.5698C18.3485 65.5022 18.4863 64.35 18.5727 63.2099C18.6186 62.6088 18.6911 62.0088 18.8295 61.4354C19.111 60.2965 19.7128 59.2918 20.6269 58.5299C21.0837 58.1517 21.622 57.8417 22.1948 57.5711L22.3646 57.7112Z" fill="url(#paint0_linear_156_797)"/>
<path d="M20.0686 56.6944C18.3896 56.962 16.9716 57.8448 16.0381 59.3389C15.3741 60.3135 14.9131 61.4801 14.405 62.6589C13.8486 63.9416 12.7483 64.8829 11.2342 64.5331C10.5612 64.3712 9.83797 63.9905 9.14436 63.4147L9.12503 63.222C9.65551 63.2407 10.1805 63.2728 10.6482 63.1501C11.2022 63.0184 11.6463 62.7097 12.0161 62.274C12.6946 61.433 13.39 60.5044 14.0352 59.56C14.3754 59.0622 14.7385 58.5788 15.1445 58.1511C15.9578 57.3058 16.9813 56.7367 18.154 56.5331C18.7382 56.434 19.3599 56.4346 19.9913 56.4865L20.068 56.6926L20.0686 56.6944Z" fill="url(#paint1_linear_156_797)"/>
<path d="M18.5884 54.6655C17.0006 54.0577 15.3312 54.1133 13.7761 54.9404C12.7139 55.4522 11.7315 56.2328 10.702 56.9995C9.57877 57.8321 8.15531 58.0973 7.01884 57.037C6.51676 56.5602 6.08054 55.8691 5.76817 55.0238L5.84732 54.8474C6.29744 55.1289 6.73608 55.4189 7.20251 55.5464C7.74869 55.7096 8.28702 55.6636 8.82535 55.4721C9.83374 55.083 10.9001 54.6262 11.9309 54.1314C12.4746 53.8704 13.0305 53.6336 13.596 53.4662C14.7234 53.1406 15.8937 53.1599 17.0115 53.5701C17.5673 53.7762 18.105 54.0879 18.6259 54.4486L18.589 54.6655H18.5884Z" fill="url(#paint2_linear_156_797)"/>
<path d="M18.3207 52.169C17.2495 50.8489 15.7759 50.0622 14.0153 50.0006C12.8396 49.9124 11.5986 50.0973 10.3237 50.2465C8.93472 50.406 7.56926 49.9239 7.11551 48.4376C6.91915 47.7736 6.88713 46.9573 7.03878 46.0686L7.19587 45.9556C7.44479 46.4244 7.67982 46.8945 8.01937 47.2389C8.41089 47.6527 8.90028 47.8829 9.46217 47.9856C10.5298 48.153 11.6819 48.2908 12.822 48.3772C13.4232 48.4231 14.0232 48.4956 14.5965 48.6339C15.7354 48.9155 16.7402 49.5173 17.5021 50.4314C17.8803 50.8882 18.1902 51.4265 18.4609 51.9993L18.3207 52.169Z" fill="url(#paint3_linear_156_797)"/>
<path d="M19.3376 49.8725C19.0699 48.1935 18.1872 46.7755 16.6931 45.842C15.7185 45.178 14.5518 44.717 13.3731 44.2089C12.0904 43.6524 11.1491 42.5522 11.4989 41.0381C11.6608 40.365 12.0414 39.6418 12.6172 38.9482L12.81 38.9289C12.7912 39.4594 12.7592 39.9844 12.8819 40.4521C13.0136 41.0061 13.3223 41.4502 13.7579 41.8199C14.599 42.4984 15.5276 43.1939 16.4719 43.8391C16.9698 44.1793 17.4531 44.5424 17.8809 44.9484C18.7261 45.7616 19.2953 46.7851 19.4989 47.9579C19.598 48.5421 19.5974 49.1638 19.5454 49.7952L19.3394 49.8719L19.3376 49.8725Z" fill="url(#paint4_linear_156_797)"/>
<path d="M21.3664 48.3923C21.9743 46.8045 21.9187 45.1351 21.0915 43.5799C20.5798 42.5178 19.7992 41.5354 19.0325 40.5058C18.1999 39.3826 17.9347 37.9592 18.995 36.8227C19.4717 36.3206 20.1629 35.8844 21.0082 35.572L21.1846 35.6512C20.903 36.1013 20.613 36.5399 20.4855 37.0064C20.3224 37.5526 20.3683 38.0909 20.5599 38.6292C20.9489 39.6376 21.4057 40.704 21.9005 41.7347C22.1615 42.2785 22.3984 42.8344 22.5657 43.3999C22.8914 44.5273 22.8721 45.6976 22.4618 46.8153C22.2558 47.3712 21.944 47.9089 21.5833 48.4297L21.3664 48.3929V48.3923Z" fill="url(#paint5_linear_156_797)"/>
<path d="M23.8629 48.1252C25.1831 47.054 25.9697 45.5804 26.0314 43.8198C26.1196 42.644 25.9347 41.403 25.7854 40.1282C25.6259 38.7392 26.1081 37.3737 27.5944 36.92C28.2584 36.7236 29.0746 36.6916 29.9634 36.8432L30.0764 37.0003C29.6075 37.2493 29.1375 37.4843 28.7931 37.8238C28.3792 38.2154 28.149 38.7047 28.0463 39.2666C27.879 40.3342 27.7412 41.4864 27.6548 42.6265C27.6089 43.2277 27.5364 43.8276 27.398 44.401C27.1165 45.5399 26.5147 46.5447 25.6006 47.3065C25.1438 47.6848 24.6055 47.9947 24.0327 48.2654L23.8629 48.1252Z" fill="url(#paint6_linear_156_797)"/>
<path d="M26.1594 49.1415C27.8385 48.8738 29.2565 47.9911 30.19 46.4969C30.854 45.5224 31.315 44.3557 31.8231 43.1769C32.3795 41.8942 33.4798 40.9529 34.9938 41.3027C35.6669 41.4647 36.3901 41.8453 37.0837 42.4211L37.1031 42.6138C36.5726 42.5951 36.0475 42.5631 35.5799 42.6857C35.0259 42.8174 34.5818 43.1262 34.212 43.5618C33.5335 44.4028 32.8381 45.3315 32.1928 46.2758C31.8527 46.7736 31.4896 47.257 31.0836 47.6848C30.2703 48.53 29.2468 49.0992 28.0741 49.3028C27.4899 49.4019 26.8681 49.4013 26.2368 49.3493L26.16 49.1433L26.1594 49.1415Z" fill="url(#paint7_linear_156_797)"/>
<path d="M27.6397 51.1703C29.2275 51.7781 30.8969 51.7225 32.452 50.8954C33.5142 50.3837 34.4966 49.6031 35.5261 48.8363C36.6493 48.0038 38.0728 47.7385 39.2092 48.7989C39.7113 49.2756 40.1475 49.9668 40.4599 50.812L40.3808 50.9885C39.9306 50.7069 39.492 50.4169 39.0256 50.2894C38.4794 50.1263 37.9411 50.1722 37.4027 50.3637C36.3943 50.7528 35.328 51.2096 34.2972 51.7044C33.7534 51.9654 33.1976 52.2023 32.6321 52.3696C31.5047 52.6953 30.3344 52.6759 29.2166 52.2657C28.6608 52.0597 28.123 51.7479 27.6022 51.3872L27.6391 51.1703H27.6397Z" fill="url(#paint8_linear_156_797)"/>
<path d="M27.9074 53.6674C28.9786 54.9876 30.4522 55.7742 32.2128 55.8358C33.3885 55.924 34.6295 55.7392 35.9044 55.5899C37.2934 55.4304 38.6588 55.9126 39.1126 57.3989C39.3089 58.0629 39.341 58.8791 39.1893 59.7679L39.0322 59.8809C38.7833 59.412 38.5483 58.942 38.2087 58.5976C37.8172 58.1837 37.3278 57.9535 36.7659 57.8508C35.6983 57.6834 34.5461 57.5457 33.406 57.4593C32.8049 57.4134 32.2049 57.3409 31.6316 57.2025C30.4927 56.921 29.4879 56.3192 28.726 55.4051C28.3478 54.9483 28.0379 54.41 27.7672 53.8372L27.9074 53.6674Z" fill="url(#paint9_linear_156_797)"/>
<path d="M26.8905 55.9633C27.1582 57.6424 28.0409 59.0604 29.535 59.9938C30.5096 60.6578 31.6763 61.1188 32.855 61.627C34.1377 62.1834 35.079 63.2836 34.7292 64.7977C34.5673 65.4708 34.1866 66.194 33.6109 66.8876L33.4181 66.9069C33.4369 66.3765 33.4689 65.8514 33.3462 65.3838C33.2145 64.8297 32.9058 64.3857 32.4702 64.0159C31.6291 63.3374 30.7005 62.642 29.7562 61.9967C29.2583 61.6566 28.775 61.2934 28.3472 60.8874C27.5019 60.0742 26.9328 59.0507 26.7292 57.878C26.6301 57.2937 26.6307 56.672 26.6827 56.0407L26.8887 55.9639L26.8905 55.9633Z" fill="url(#paint10_linear_156_797)"/>
<path d="M24.8617 57.4436C24.2538 59.0314 24.3094 60.7007 25.1366 62.2559C25.6483 63.3181 26.4289 64.3005 27.1956 65.33C28.0282 66.4532 28.2934 67.8767 27.2331 69.0131C26.7564 69.5152 26.0652 69.9514 25.2199 70.2638L25.0435 70.1846C25.3251 69.7345 25.6151 69.2959 25.7426 68.8294C25.9057 68.2833 25.8598 67.7449 25.6682 67.2066C25.2791 66.1982 24.8224 65.1318 24.3276 64.1011C24.0665 63.5573 23.8297 63.0015 23.6623 62.436C23.3367 61.3085 23.356 60.1382 23.7663 59.0205C23.9723 58.4646 24.284 57.9269 24.6447 57.4061L24.8617 57.443V57.4436Z" fill="url(#paint11_linear_156_797)"/>
</g>
<mask id="mask1_156_797" style="mask-type:luminance" maskUnits="userSpaceOnUse" x="48" y="3" width="42" height="44">
<path d="M88.9416 3.48676L48.6394 3.58343L48.6853 22.8286L68.8137 22.7808L79.6692 46.0057H89.0431L88.9416 3.48676Z" fill="white"/>
</mask>
<g mask="url(#mask1_156_797)">
<path d="M69.5859 17.9872C70.906 16.916 71.6927 15.4424 71.7543 13.6818C71.8425 12.506 71.6576 11.265 71.5084 9.99021C71.3489 8.60119 71.831 7.23573 73.3173 6.78199C73.9813 6.58563 74.7976 6.5536 75.6864 6.70525L75.7993 6.86234C75.3305 7.11127 74.8604 7.3463 74.516 7.68585C74.1022 8.07736 73.872 8.56675 73.7693 9.12864C73.6019 10.1962 73.4642 11.3484 73.3778 12.4885C73.3318 13.0897 73.2593 13.6896 73.121 14.263C72.8394 15.4019 72.2377 16.4067 71.3235 17.1685C70.8668 17.5468 70.3284 17.8567 69.7557 18.1274L69.5859 17.9872Z" fill="url(#paint12_linear_156_797)"/>
<path d="M71.8818 19.0041C73.5608 18.7364 74.9789 17.8537 75.9123 16.3595C76.5763 15.385 77.0373 14.2183 77.5454 13.0395C78.1019 11.7569 79.2021 10.8155 80.7162 11.1654C81.3893 11.3273 82.1125 11.7079 82.8061 12.2837L82.8254 12.4764C82.2949 12.4577 81.7699 12.4257 81.3023 12.5483C80.7482 12.68 80.3041 12.9888 79.9344 13.4244C79.2559 14.2654 78.5605 15.1941 77.9152 16.1384C77.575 16.6363 77.2119 17.1196 76.8059 17.5474C75.9927 18.3926 74.9692 18.9618 73.7965 19.1654C73.2122 19.2645 72.5905 19.2639 71.9591 19.2119L71.8824 19.0059L71.8818 19.0041Z" fill="url(#paint13_linear_156_797)"/>
<path d="M73.3621 21.0329C74.9499 21.6407 76.6192 21.5851 78.1744 20.758C79.2366 20.2463 80.219 19.4657 81.2485 18.6989C82.3717 17.8664 83.7951 17.6011 84.9316 18.6615C85.4337 19.1382 85.8699 19.8294 86.1823 20.6746L86.1031 20.8511C85.653 20.5695 85.2144 20.2795 84.7479 20.152C84.2018 19.9889 83.6634 20.0348 83.1251 20.2263C82.1167 20.6154 81.0503 21.0722 80.0196 21.567C79.4758 21.828 78.92 22.0649 78.3544 22.2322C77.227 22.5579 76.0567 22.5385 74.939 22.1283C74.3831 21.9223 73.8454 21.6105 73.3246 21.2498L73.3614 21.0329H73.3621Z" fill="url(#paint14_linear_156_797)"/>
<path d="M73.6297 23.53C74.7009 24.8502 76.1745 25.6368 77.9351 25.6984C79.1109 25.7866 80.3519 25.6018 81.6267 25.4525C83.0157 25.293 84.3812 25.7752 84.8349 27.2615C85.0313 27.9255 85.0633 28.7417 84.9117 29.6305L84.7546 29.7435C84.5057 29.2746 84.2706 28.8046 83.9311 28.4602C83.5396 28.0463 83.0502 27.8161 82.4883 27.7134C81.4207 27.546 80.2685 27.4083 79.1284 27.3219C78.5272 27.276 77.9273 27.2035 77.3539 27.0651C76.215 26.7836 75.2103 26.1818 74.4484 25.2677C74.0702 24.8109 73.7602 24.2726 73.4895 23.6998L73.6297 23.53Z" fill="url(#paint15_linear_156_797)"/>
<path d="M72.6129 25.8259C72.8805 27.505 73.7632 28.923 75.2574 29.8564C76.2319 30.5204 77.3986 30.9814 78.5774 31.4896C79.8601 32.046 80.8014 33.1462 80.4516 34.6603C80.2896 35.3334 79.909 36.0566 79.3332 36.7502L79.1405 36.7695C79.1592 36.2391 79.1912 35.714 79.0686 35.2464C78.9369 34.6923 78.6281 34.2483 78.1925 33.8785C77.3515 33.2 76.4229 32.5046 75.4785 31.8593C74.9807 31.5192 74.4973 31.156 74.0696 30.75C73.2243 29.9368 72.6552 28.9133 72.4516 27.7406C72.3525 27.1563 72.3531 26.5346 72.405 25.9033L72.6111 25.8265L72.6129 25.8259Z" fill="url(#paint16_linear_156_797)"/>
<path d="M70.584 27.3062C69.9762 28.894 70.0318 30.5633 70.8589 32.1185C71.3707 33.1807 72.1513 34.1631 72.918 35.1926C73.7505 36.3158 74.0158 37.7393 72.9554 38.8757C72.4787 39.3778 71.7875 39.814 70.9423 40.1264L70.7659 40.0472C71.0474 39.5971 71.3374 39.1585 71.4649 38.6921C71.628 38.1459 71.5821 37.6075 71.3906 37.0692C71.0015 36.0608 70.5447 34.9944 70.0499 33.9637C69.7889 33.4199 69.5521 32.8641 69.3847 32.2986C69.059 31.1712 69.0784 30.0008 69.4886 28.8831C69.6946 28.3272 70.0064 27.7895 70.3671 27.2687L70.584 27.3056V27.3062Z" fill="url(#paint17_linear_156_797)"/>
<path d="M68.0875 27.5738C66.7674 28.6451 65.9807 30.1187 65.9191 31.8793C65.8309 33.055 66.0158 34.296 66.165 35.5708C66.3245 36.9599 65.8424 38.3253 64.3561 38.7791C63.6921 38.9754 62.8758 39.0074 61.987 38.8558L61.8741 38.6987C62.3429 38.4498 62.813 38.2148 63.1574 37.8752C63.5712 37.4837 63.8014 36.9943 63.9041 36.4324C64.0715 35.3648 64.2092 34.2126 64.2956 33.0725C64.3416 32.4714 64.4141 31.8714 64.5524 31.298C64.834 30.1591 65.4357 29.1544 66.3499 28.3925C66.8066 28.0143 67.345 27.7043 67.9177 27.4337L68.0875 27.5738Z" fill="url(#paint18_linear_156_797)"/>
<path d="M65.791 26.557C64.112 26.8246 62.6939 27.7074 61.7605 29.2015C61.0965 30.1761 60.6355 31.3427 60.1274 32.5215C59.5709 33.8042 58.4707 34.7455 56.9566 34.3957C56.2835 34.2338 55.5603 33.8531 54.8667 33.2773L54.8474 33.0846C55.3779 33.1033 55.9029 33.1354 56.3705 33.0127C56.9246 32.881 57.3687 32.5723 57.7384 32.1366C58.4169 31.2956 59.1123 30.367 59.7576 29.4226C60.0978 28.9248 60.4609 28.4414 60.8669 28.0137C61.6801 27.1684 62.7036 26.5993 63.8763 26.3957C64.4606 26.2966 65.0823 26.2972 65.7137 26.3491L65.7904 26.5552L65.791 26.557Z" fill="url(#paint19_linear_156_797)"/>
<path d="M64.3107 24.5281C62.7229 23.9203 61.0536 23.9759 59.4984 24.803C58.4362 25.3148 57.4538 26.0954 56.4243 26.8621C55.3011 27.6947 53.8777 27.9599 52.7412 26.8996C52.2391 26.4229 51.8029 25.7317 51.4905 24.8864L51.5697 24.71C52.0198 24.9915 52.4584 25.2816 52.9249 25.409C53.471 25.5722 54.0094 25.5262 54.5477 25.3347C55.5561 24.9456 56.6225 24.4889 57.6532 23.994C58.197 23.733 58.7528 23.4962 59.3184 23.3288C60.4458 23.0032 61.6161 23.0225 62.7338 23.4327C63.2897 23.6388 63.8274 23.9505 64.3482 24.3112L64.3114 24.5281H64.3107Z" fill="url(#paint20_linear_156_797)"/>
<path d="M64.0431 22.0316C62.9719 20.7115 61.4983 19.9248 59.7377 19.8632C58.5619 19.775 57.3209 19.9599 56.0461 20.1091C54.6571 20.2686 53.2916 19.7865 52.8379 18.3002C52.6415 17.6362 52.6095 16.8199 52.7611 15.9312L52.9182 15.8182C53.1671 16.287 53.4022 16.7571 53.7417 17.1015C54.1332 17.5153 54.6226 17.7455 55.1845 17.8483C56.2521 18.0156 57.4043 18.1534 58.5444 18.2398C59.1456 18.2857 59.7455 18.3582 60.3189 18.4965C61.4578 18.7781 62.4625 19.3799 63.2244 20.294C63.6026 20.7508 63.9126 21.2891 64.1833 21.8619L64.0431 22.0316Z" fill="url(#paint21_linear_156_797)"/>
<path d="M65.0599 19.7351C64.7923 18.0561 63.9096 16.6381 62.4154 15.7046C61.4409 15.0406 60.2742 14.5796 59.0954 14.0715C57.8127 13.515 56.8714 12.4148 57.2212 10.9007C57.3831 10.2277 57.7638 9.50445 58.3396 8.81084L58.5323 8.79151C58.5136 9.32198 58.4816 9.84702 58.6042 10.3147C58.7359 10.8687 59.0447 11.3128 59.4803 11.6825C60.3213 12.361 61.2499 13.0565 62.1943 13.7017C62.6921 14.0419 63.1755 14.405 63.6032 14.811C64.4485 15.6242 65.0176 16.6477 65.2212 17.8205C65.3203 18.4047 65.3197 19.0264 65.2678 19.6578L65.0617 19.7345L65.0599 19.7351Z" fill="url(#paint22_linear_156_797)"/>
<path d="M67.0888 18.2549C67.6966 16.6671 67.641 14.9977 66.8139 13.4425C66.3021 12.3804 65.5215 11.398 64.7548 10.3684C63.9223 9.24525 63.657 7.82179 64.7174 6.68532C65.1941 6.18324 65.8853 5.74701 66.7305 5.43465L66.9069 5.5138C66.6254 5.96392 66.3354 6.40256 66.2079 6.86899C66.0448 7.41517 66.0907 7.9535 66.2822 8.49183C66.6713 9.50022 67.1281 10.5666 67.6229 11.5973C67.8839 12.1411 68.1207 12.697 68.2881 13.2625C68.6138 14.3899 68.5944 15.5602 68.1842 16.6779C67.9782 17.2338 67.6664 17.7715 67.3057 18.2923L67.0888 18.2555V18.2549Z" fill="url(#paint23_linear_156_797)"/>
</g>
<path d="M28.1829 36.6777C25.2713 36.6777 23.1089 34.4301 23.1089 31.5893V31.5609C23.1089 28.7484 25.2284 26.4446 28.2674 26.4446C30.1332 26.4446 31.2497 27.0669 32.1681 27.9714L30.7833 29.5689C30.0202 28.8759 29.2432 28.4517 28.2535 28.4517C26.5854 28.4517 25.3843 29.8371 25.3843 31.5331V31.5615C25.3843 33.258 26.5576 34.6712 28.2535 34.6712C29.384 34.6712 30.0764 34.2187 30.854 33.5124L32.2388 34.9111C31.2213 35.9998 30.0909 36.6783 28.1829 36.6783V36.6777Z" fill="#2E2E2E"/>
<path d="M33.983 36.5079V26.6144H36.1599V34.5292H41.0925V36.5079H33.9836H33.983Z" fill="#2E2E2E"/>
<path d="M42.835 36.5079V26.6144H45.0118V36.5079H42.835Z" fill="#2E2E2E"/>
<path d="M55.219 36.5079V30.0492L52.4349 34.2749H52.3787L49.6224 30.0915V36.5079H47.4884V26.6144H49.8351L52.4355 30.7984L55.0365 26.6144H57.3826V36.5079H55.2202H55.219Z" fill="#2E2E2E"/>
<path d="M67.1257 36.5079L66.2212 34.2894H62.0378L61.1333 36.5079H58.9148L63.1543 26.5437H65.1614L69.4016 36.5079H67.1257ZM64.1295 29.1586L62.8154 32.3668H65.4436L64.1295 29.1586Z" fill="#2E2E2E"/>
<path d="M28.2964 43.0658V50.9522H26.1196V43.0658H23.1089V41.0587H31.3059V43.0658H28.2958H28.2964Z" fill="#2E2E2E"/>
<path d="M32.9789 50.9522V41.0587H40.4412V42.9951H35.1413V45.0022H39.8056V46.9386H35.1413V49.0164H40.5119V50.9528H32.9789V50.9522Z" fill="#2E2E2E"/>
<path d="M47.0896 51.122C44.1781 51.122 42.0157 48.8744 42.0157 46.0335V46.0051C42.0157 43.1926 44.1352 40.8889 47.1742 40.8889C49.04 40.8889 50.1565 41.5112 51.0748 42.4157L49.6901 44.0131C48.927 43.3201 48.15 42.896 47.1603 42.896C45.4922 42.896 44.2911 44.2814 44.2911 45.9773V46.0057C44.2911 47.7023 45.4644 49.1155 47.1603 49.1155C48.2908 49.1155 48.9832 48.6629 49.7607 47.9566L51.1455 49.3553C50.1281 50.4441 48.9977 51.1226 47.0896 51.1226V51.122Z" fill="#2E2E2E"/>
<path d="M59.8289 50.9522L55.0383 44.6632V50.9522H52.8898V41.0587H54.8969L59.5328 47.1507V41.0587H61.6807V50.9522H59.8289Z" fill="#2E2E2E"/>
<path d="M64.1597 50.9522V41.0587H66.3366V50.9522H64.1597Z" fill="#2E2E2E"/>
<path d="M73.4485 51.122C70.5369 51.122 68.3745 48.8744 68.3745 46.0335V46.0051C68.3745 43.1926 70.494 40.8889 73.533 40.8889C75.3988 40.8889 76.5153 41.5112 77.4337 42.4157L76.0489 44.0131C75.2858 43.3201 74.5088 42.896 73.5191 42.896C71.851 42.896 70.6499 44.2814 70.6499 45.9773V46.0057C70.6499 47.7023 71.8232 49.1155 73.5191 49.1155C74.6496 49.1155 75.342 48.6629 76.1196 47.9566L77.5044 49.3553C76.4869 50.4441 75.3565 51.1226 73.4485 51.1226V51.122Z" fill="#2E2E2E"/>
<path d="M83.7716 51.122C80.7192 51.122 78.5285 48.846 78.5285 46.0335V46.0051C78.5285 43.1926 80.747 40.8889 83.8006 40.8889C86.8541 40.8889 89.0437 43.1648 89.0437 45.9773V46.0057C89.0437 48.8182 86.8251 51.122 83.7716 51.122ZM86.7683 46.0057C86.7683 44.3098 85.5243 42.896 83.7716 42.896C82.0188 42.896 80.8038 44.2814 80.8038 45.9773V46.0057C80.8038 47.7023 82.0478 49.1155 83.8006 49.1155C85.5533 49.1155 86.7683 47.7307 86.7683 46.0341V46.0057Z" fill="#2E2E2E"/>
<defs>
<linearGradient id="paint0_linear_156_797" x1="25.2627" y1="59.207" x2="15.0405" y2="72.8775" gradientUnits="userSpaceOnUse">
<stop stop-color="#E3312D"/>
<stop offset="0.22" stop-color="#E95F32"/>
<stop offset="0.56" stop-color="#F18F34"/>
<stop offset="0.86" stop-color="#FDC800"/>
<stop offset="0.9" stop-color="#FDCB03"/>
<stop offset="0.95" stop-color="#FDD70E"/>
<stop offset="0.99" stop-color="#FEE921"/>
<stop offset="1" stop-color="#FFEF26"/>
</linearGradient>
<linearGradient id="paint1_linear_156_797" x1="-81.9758" y1="-119.349" x2="-96.1919" y2="-111.134" gradientUnits="userSpaceOnUse">
<stop stop-color="#E3312D"/>
<stop offset="0.22" stop-color="#E95F32"/>
<stop offset="0.56" stop-color="#F18F34"/>
<stop offset="0.86" stop-color="#FDC800"/>
<stop offset="0.9" stop-color="#FDCB03"/>
<stop offset="0.95" stop-color="#FDD70E"/>
<stop offset="0.99" stop-color="#FEE921"/>
<stop offset="1" stop-color="#FFEF26"/>
</linearGradient>
<linearGradient id="paint2_linear_156_797" x1="18.7421" y1="57.923" x2="1.79198" y2="55.9056" gradientUnits="userSpaceOnUse">
<stop stop-color="#E3312D"/>
<stop offset="0.22" stop-color="#E95F32"/>
<stop offset="0.56" stop-color="#F18F34"/>
<stop offset="0.86" stop-color="#FDC800"/>
<stop offset="0.9" stop-color="#FDCB03"/>
<stop offset="0.95" stop-color="#FDD70E"/>
<stop offset="0.99" stop-color="#FEE921"/>
<stop offset="1" stop-color="#FFEF26"/>
</linearGradient>
<linearGradient id="paint3_linear_156_797" x1="20.3305" y1="48.2587" x2="5.86131" y2="56.8298" gradientUnits="userSpaceOnUse">
<stop stop-color="#E3312D"/>
<stop offset="0.22" stop-color="#E95F32"/>
<stop offset="0.56" stop-color="#F18F34"/>
<stop offset="0.86" stop-color="#FDC800"/>
<stop offset="0.9" stop-color="#FDCB03"/>
<stop offset="0.95" stop-color="#FDD70E"/>
<stop offset="0.99" stop-color="#FEE921"/>
<stop offset="1" stop-color="#FFEF26"/>
</linearGradient>
<linearGradient id="paint4_linear_156_797" x1="20.9039" y1="42.9853" x2="7.80677" y2="46.1042" gradientUnits="userSpaceOnUse">
<stop stop-color="#E3312D"/>
<stop offset="0.22" stop-color="#E95F32"/>
<stop offset="0.56" stop-color="#F18F34"/>
<stop offset="0.86" stop-color="#FDC800"/>
<stop offset="0.9" stop-color="#FDCB03"/>
<stop offset="0.95" stop-color="#FDD70E"/>
<stop offset="0.99" stop-color="#FEE921"/>
<stop offset="1" stop-color="#FFEF26"/>
</linearGradient>
<linearGradient id="paint5_linear_156_797" x1="18.1089" y1="48.546" x2="20.1263" y2="31.5964" gradientUnits="userSpaceOnUse">
<stop stop-color="#E3312D"/>
<stop offset="0.22" stop-color="#E95F32"/>
<stop offset="0.56" stop-color="#F18F34"/>
<stop offset="0.86" stop-color="#FDC800"/>
<stop offset="0.9" stop-color="#FDCB03"/>
<stop offset="0.95" stop-color="#FDD70E"/>
<stop offset="0.99" stop-color="#FEE921"/>
<stop offset="1" stop-color="#FFEF26"/>
</linearGradient>
<linearGradient id="paint6_linear_156_797" x1="200.258" y1="149.561" x2="208.462" y2="135.338" gradientUnits="userSpaceOnUse">
<stop stop-color="#E3312D"/>
<stop offset="0.22" stop-color="#E95F32"/>
<stop offset="0.56" stop-color="#F18F34"/>
<stop offset="0.86" stop-color="#FDC800"/>
<stop offset="0.9" stop-color="#FDCB03"/>
<stop offset="0.95" stop-color="#FDD70E"/>
<stop offset="0.99" stop-color="#FEE921"/>
<stop offset="1" stop-color="#FFEF26"/>
</linearGradient>
<linearGradient id="paint7_linear_156_797" x1="24.3977" y1="46.3977" x2="40.0856" y2="39.6697" gradientUnits="userSpaceOnUse">
<stop stop-color="#E3312D"/>
<stop offset="0.22" stop-color="#E95F32"/>
<stop offset="0.56" stop-color="#F18F34"/>
<stop offset="0.86" stop-color="#FDC800"/>
<stop offset="0.9" stop-color="#FDCB03"/>
<stop offset="0.95" stop-color="#FDD70E"/>
<stop offset="0.99" stop-color="#FEE921"/>
<stop offset="1" stop-color="#FFEF26"/>
</linearGradient>
<linearGradient id="paint8_linear_156_797" x1="27.4859" y1="47.9128" x2="44.4361" y2="49.9302" gradientUnits="userSpaceOnUse">
<stop stop-color="#E3312D"/>
<stop offset="0.22" stop-color="#E95F32"/>
<stop offset="0.56" stop-color="#F18F34"/>
<stop offset="0.86" stop-color="#FDC800"/>
<stop offset="0.9" stop-color="#FDCB03"/>
<stop offset="0.95" stop-color="#FDD70E"/>
<stop offset="0.99" stop-color="#FEE921"/>
<stop offset="1" stop-color="#FFEF26"/>
</linearGradient>
<linearGradient id="paint9_linear_156_797" x1="31.9359" y1="52.6757" x2="33.7014" y2="62.9163" gradientUnits="userSpaceOnUse">
<stop stop-color="#E3312D"/>
<stop offset="0.22" stop-color="#E95F32"/>
<stop offset="0.56" stop-color="#F18F34"/>
<stop offset="0.86" stop-color="#FDC800"/>
<stop offset="0.9" stop-color="#FDCB03"/>
<stop offset="0.95" stop-color="#FDD70E"/>
<stop offset="0.99" stop-color="#FEE921"/>
<stop offset="1" stop-color="#FFEF26"/>
</linearGradient>
<linearGradient id="paint10_linear_156_797" x1="29.5996" y1="54.2167" x2="36.3273" y2="69.9041" gradientUnits="userSpaceOnUse">
<stop stop-color="#E3312D"/>
<stop offset="0.22" stop-color="#E95F32"/>
<stop offset="0.56" stop-color="#F18F34"/>
<stop offset="0.86" stop-color="#FDC800"/>
<stop offset="0.9" stop-color="#FDCB03"/>
<stop offset="0.95" stop-color="#FDD70E"/>
<stop offset="0.99" stop-color="#FEE921"/>
<stop offset="1" stop-color="#FFEF26"/>
</linearGradient>
<linearGradient id="paint11_linear_156_797" x1="28.1191" y1="57.2904" x2="26.1018" y2="74.24" gradientUnits="userSpaceOnUse">
<stop stop-color="#E3312D"/>
<stop offset="0.22" stop-color="#E95F32"/>
<stop offset="0.56" stop-color="#F18F34"/>
<stop offset="0.86" stop-color="#FDC800"/>
<stop offset="0.9" stop-color="#FDCB03"/>
<stop offset="0.95" stop-color="#FDD70E"/>
<stop offset="0.99" stop-color="#FEE921"/>
<stop offset="1" stop-color="#FFEF26"/>
</linearGradient>
<linearGradient id="paint12_linear_156_797" x1="69.7992" y1="18.269" x2="70.9793" y2="2.96184" gradientUnits="userSpaceOnUse">
<stop stop-color="#29235C"/>
<stop offset="0.22" stop-color="#2D2E83"/>
<stop offset="0.56" stop-color="#1D71B8"/>
<stop offset="0.86" stop-color="#1D71B8"/>
</linearGradient>
<linearGradient id="paint13_linear_156_797" x1="71.7603" y1="11.1495" x2="86.3456" y2="11.9634" gradientUnits="userSpaceOnUse">
<stop stop-color="#29235C"/>
<stop offset="0.22" stop-color="#2D2E83"/>
<stop offset="0.56" stop-color="#1D71B8"/>
<stop offset="0.86" stop-color="#1D71B8"/>
</linearGradient>
<linearGradient id="paint14_linear_156_797" x1="73.1818" y1="17.9977" x2="90.1314" y2="20.0151" gradientUnits="userSpaceOnUse">
<stop stop-color="#29235C"/>
<stop offset="0.22" stop-color="#2D2E83"/>
<stop offset="0.56" stop-color="#1D71B8"/>
<stop offset="0.86" stop-color="#1D71B8"/>
</linearGradient>
<linearGradient id="paint15_linear_156_797" x1="73.3617" y1="23.574" x2="88.6686" y2="24.7539" gradientUnits="userSpaceOnUse">
<stop stop-color="#29235C"/>
<stop offset="0.22" stop-color="#2D2E83"/>
<stop offset="0.56" stop-color="#1D71B8"/>
<stop offset="0.86" stop-color="#1D71B8"/>
</linearGradient>
<linearGradient id="paint16_linear_156_797" x1="72.2798" y1="25.9034" x2="83.1718" y2="26.2409" gradientUnits="userSpaceOnUse">
<stop stop-color="#29235C"/>
<stop offset="0.22" stop-color="#2D2E83"/>
<stop offset="0.56" stop-color="#1D71B8"/>
<stop offset="0.86" stop-color="#1D71B8"/>
</linearGradient>
<linearGradient id="paint17_linear_156_797" x1="73.6192" y1="27.126" x2="71.6018" y2="44.0755" gradientUnits="userSpaceOnUse">
<stop stop-color="#29235C"/>
<stop offset="0.22" stop-color="#2D2E83"/>
<stop offset="0.56" stop-color="#1D71B8"/>
<stop offset="0.86" stop-color="#1D71B8"/>
</linearGradient>
<linearGradient id="paint18_linear_156_797" x1="70.806" y1="28.935" x2="60.5841" y2="42.605" gradientUnits="userSpaceOnUse">
<stop stop-color="#29235C"/>
<stop offset="0.22" stop-color="#2D2E83"/>
<stop offset="0.56" stop-color="#1D71B8"/>
<stop offset="0.86" stop-color="#1D71B8"/>
</linearGradient>
<linearGradient id="paint19_linear_156_797" x1="25.5814" y1="53.4134" x2="22.3721" y2="47.886" gradientUnits="userSpaceOnUse">
<stop stop-color="#29235C"/>
<stop offset="0.22" stop-color="#2D2E83"/>
<stop offset="0.56" stop-color="#1D71B8"/>
<stop offset="0.86" stop-color="#1D71B8"/>
</linearGradient>
<linearGradient id="paint20_linear_156_797" x1="64.4916" y1="27.5634" x2="47.542" y2="25.546" gradientUnits="userSpaceOnUse">
<stop stop-color="#29235C"/>
<stop offset="0.22" stop-color="#2D2E83"/>
<stop offset="0.56" stop-color="#1D71B8"/>
<stop offset="0.86" stop-color="#1D71B8"/>
</linearGradient>
<linearGradient id="paint21_linear_156_797" x1="53.0612" y1="22.108" x2="53.2475" y2="13.8052" gradientUnits="userSpaceOnUse">
<stop stop-color="#29235C"/>
<stop offset="0.22" stop-color="#2D2E83"/>
<stop offset="0.56" stop-color="#1D71B8"/>
<stop offset="0.86" stop-color="#1D71B8"/>
</linearGradient>
<linearGradient id="paint22_linear_156_797" x1="57.4275" y1="19.8697" x2="58.2416" y2="5.28416" gradientUnits="userSpaceOnUse">
<stop stop-color="#29235C"/>
<stop offset="0.22" stop-color="#2D2E83"/>
<stop offset="0.56" stop-color="#1D71B8"/>
<stop offset="0.86" stop-color="#1D71B8"/>
</linearGradient>
<linearGradient id="paint23_linear_156_797" x1="64.176" y1="18.4504" x2="66.1937" y2="1.50067" gradientUnits="userSpaceOnUse">
<stop stop-color="#29235C"/>
<stop offset="0.22" stop-color="#2D2E83"/>
<stop offset="0.56" stop-color="#1D71B8"/>
<stop offset="0.86" stop-color="#1D71B8"/>
</linearGradient>
</defs>
</svg>
