<svg width="100" height="78" viewBox="0 0 100 78" fill="none" xmlns="http://www.w3.org/2000/svg">
<mask id="mask0_156_3546" style="mask-type:luminance" maskUnits="userSpaceOnUse" x="2" y="29" width="42" height="44">
<path d="M3.00873 72.3675L43.3109 72.2714L43.265 53.0257L23.1366 53.074L13.1264 29.8491H2.90723L3.00873 72.3675Z" fill="white"/>
</mask>
<g mask="url(#mask0_156_3546)">
<path d="M22.3643 57.8672C21.0442 58.9384 20.2575 60.412 20.1959 62.1726C20.1077 63.3484 20.2926 64.5894 20.4418 65.8642C20.6013 67.2533 20.1192 68.6187 18.6329 69.0725C17.9689 69.2688 17.1526 69.3008 16.2639 69.1492L16.1509 68.9921C16.6197 68.7432 17.0898 68.5081 17.4342 68.1686C17.848 67.7771 18.0782 67.2877 18.1809 66.7258C18.3483 65.6582 18.4861 64.506 18.5725 63.3659C18.6184 62.7647 18.6909 62.1648 18.8292 61.5914C19.1108 60.4525 19.7126 59.4478 20.6267 58.6859C21.0835 58.3077 21.6218 57.9977 22.1945 57.7271L22.3643 57.8672Z" fill="url(#paint0_linear_156_3546)"/>
<path d="M20.0686 56.8505C18.3896 57.1181 16.9716 58.0008 16.0381 59.495C15.3741 60.4695 14.9131 61.6362 14.405 62.815C13.8485 64.0977 12.7483 65.039 11.2342 64.6892C10.5611 64.5272 9.83794 64.1466 9.14433 63.5708L9.125 63.3781C9.65548 63.3968 10.1805 63.4288 10.6482 63.3062C11.2022 63.1745 11.6463 62.8657 12.016 62.4301C12.6945 61.5891 13.3899 60.6605 14.0352 59.7161C14.3754 59.2183 14.7385 58.7349 15.1445 58.3072C15.9577 57.4619 16.9812 56.8928 18.154 56.6891C18.7382 56.5901 19.3599 56.5907 19.9913 56.6426L20.068 56.8487L20.0686 56.8505Z" fill="url(#paint1_linear_156_3546)"/>
<path d="M18.5883 54.8217C17.0005 54.2139 15.3311 54.2695 13.7759 55.0966C12.7138 55.6084 11.7314 56.389 10.7018 57.1557C9.57867 57.9883 8.1552 58.2535 7.01873 57.1932C6.51665 56.7165 6.08043 56.0253 5.76807 55.18L5.84721 55.0036C6.29733 55.2851 6.73597 55.5752 7.2024 55.7026C7.74859 55.8658 8.28692 55.8198 8.82525 55.6283C9.83363 55.2392 10.9 54.7825 11.9308 54.2876C12.4745 54.0266 13.0304 53.7898 13.5959 53.6224C14.7233 53.2968 15.8936 53.3161 17.0114 53.7263C17.5672 53.9324 18.1049 54.2441 18.6257 54.6048L18.5889 54.8217H18.5883Z" fill="url(#paint2_linear_156_3546)"/>
<path d="M18.3206 52.3248C17.2494 51.0046 15.7758 50.218 14.0152 50.1564C12.8395 50.0681 11.5985 50.253 10.3236 50.4023C8.93461 50.5618 7.56915 50.0796 7.11541 48.5933C6.91905 47.9293 6.88702 47.1131 7.03867 46.2243L7.19576 46.1113C7.44469 46.5802 7.67972 47.0502 8.01927 47.3946C8.41078 47.8085 8.90017 48.0387 9.46206 48.1414C10.5297 48.3088 11.6818 48.4465 12.8219 48.5329C13.4231 48.5788 14.0231 48.6513 14.5964 48.7897C15.7353 49.0712 16.7401 49.673 17.502 50.5871C17.8802 51.0439 18.1901 51.5822 18.4608 52.155L18.3206 52.3248Z" fill="url(#paint3_linear_156_3546)"/>
<path d="M19.3374 50.0286C19.0697 48.3495 18.187 46.9315 16.6929 45.9981C15.7183 45.3341 14.5516 44.8731 13.3729 44.3649C12.0902 43.8085 11.1489 42.7083 11.4987 41.1942C11.6606 40.5211 12.0413 39.7979 12.617 39.1043L12.8098 39.085C12.791 39.6154 12.759 40.1405 12.8817 40.6081C13.0134 41.1622 13.3221 41.6062 13.7577 41.976C14.5988 42.6545 15.5274 43.3499 16.4717 43.9952C16.9696 44.3353 17.4529 44.6985 17.8807 45.1045C18.726 45.9177 19.2951 46.9412 19.4987 48.1139C19.5978 48.6982 19.5972 49.3199 19.5452 49.9512L19.3392 50.028L19.3374 50.0286Z" fill="url(#paint4_linear_156_3546)"/>
<path d="M21.3663 48.5482C21.9742 46.9604 21.9186 45.2911 21.0914 43.7359C20.5797 42.6737 19.7991 41.6913 19.0324 40.6618C18.1998 39.5386 17.9346 38.1152 18.9949 36.9787C19.4716 36.4766 20.1628 36.0404 21.0081 35.728L21.1845 35.8072C20.9029 36.2573 20.6129 36.6959 20.4854 37.1624C20.3223 37.7085 20.3682 38.2469 20.5598 38.7852C20.9489 39.7936 21.4056 40.86 21.9004 41.8907C22.1615 42.4345 22.3983 42.9903 22.5657 43.5559C22.8913 44.6833 22.872 45.8536 22.4617 46.9713C22.2557 47.5272 21.944 48.0649 21.5833 48.5857L21.3663 48.5489V48.5482Z" fill="url(#paint5_linear_156_3546)"/>
<path d="M23.8628 48.2811C25.1829 47.2099 25.9696 45.7363 26.0312 43.9757C26.1194 42.7999 25.9345 41.5589 25.7853 40.2841C25.6258 38.8951 26.1079 37.5296 27.5942 37.0759C28.2582 36.8795 29.0745 36.8475 29.9633 36.9991L30.0762 37.1562C29.6074 37.4051 29.1373 37.6402 28.7929 37.9797C28.3791 38.3712 28.1489 38.8606 28.0462 39.4225C27.8788 40.4901 27.7411 41.6423 27.6547 42.7824C27.6087 43.3836 27.5362 43.9835 27.3979 44.5569C27.1163 45.6958 26.5146 46.7005 25.6004 47.4624C25.1437 47.8406 24.6053 48.1506 24.0326 48.4213L23.8628 48.2811Z" fill="url(#paint6_linear_156_3546)"/>
<path d="M26.1594 49.2976C27.8385 49.0299 29.2565 48.1472 30.1899 46.6531C30.8539 45.6785 31.3149 44.5118 31.8231 43.3331C32.3795 42.0504 33.4797 41.1091 34.9938 41.4589C35.6669 41.6208 36.3901 42.0015 37.0837 42.5772L37.103 42.77C36.5726 42.7513 36.0475 42.7192 35.5799 42.8419C35.0259 42.9736 34.5818 43.2823 34.212 43.7179C33.5335 44.559 32.8381 45.4876 32.1928 46.432C31.8527 46.9298 31.4895 47.4131 31.0835 47.8409C30.2703 48.6862 29.2468 49.2553 28.0741 49.4589C27.4898 49.558 26.8681 49.5574 26.2368 49.5054L26.16 49.2994L26.1594 49.2976Z" fill="url(#paint7_linear_156_3546)"/>
<path d="M27.6395 51.3263C29.2273 51.9341 30.8967 51.8785 32.4518 51.0514C33.514 50.5397 34.4964 49.7591 35.5259 48.9923C36.6491 48.1598 38.0726 47.8945 39.2091 48.9549C39.7111 49.4316 40.1474 50.1228 40.4597 50.968L40.3806 51.1444C39.9305 50.8629 39.4918 50.5729 39.0254 50.4454C38.4792 50.2823 37.9409 50.3282 37.4025 50.5197C36.3942 50.9088 35.3278 51.3656 34.297 51.8604C33.7533 52.1214 33.1974 52.3583 32.6319 52.5256C31.5045 52.8513 30.3342 52.8319 29.2164 52.4217C28.6606 52.2157 28.1229 51.9039 27.6021 51.5432L27.6389 51.3263H27.6395Z" fill="url(#paint8_linear_156_3546)"/>
<path d="M27.9073 53.8232C28.9785 55.1434 30.4521 55.93 32.2127 55.9917C33.3884 56.0799 34.6294 55.895 35.9043 55.7458C37.2933 55.5863 38.6587 56.0684 39.1125 57.5547C39.3089 58.2187 39.3409 59.0349 39.1892 59.9237L39.0321 60.0367C38.7832 59.5678 38.5482 59.0978 38.2086 58.7534C37.8171 58.3395 37.3277 58.1093 36.7658 58.0066C35.6982 57.8393 34.5461 57.7015 33.406 57.6151C32.8048 57.5692 32.2048 57.4967 31.6315 57.3583C30.4926 57.0768 29.4878 56.475 28.7259 55.5609C28.3477 55.1041 28.0378 54.5658 27.7671 53.993L27.9073 53.8232Z" fill="url(#paint9_linear_156_3546)"/>
<path d="M26.8905 56.1191C27.1582 57.7982 28.0409 59.2162 29.535 60.1497C30.5096 60.8137 31.6763 61.2747 32.855 61.7828C34.1377 62.3392 35.079 63.4395 34.7292 64.9535C34.5673 65.6266 34.1866 66.3498 33.6109 67.0434L33.4181 67.0628C33.4369 66.5323 33.4689 66.0072 33.3462 65.5396C33.2145 64.9856 32.9058 64.5415 32.4702 64.1717C31.6291 63.4932 30.7005 62.7978 29.7562 62.1525C29.2583 61.8124 28.775 61.4493 28.3472 61.0433C27.5019 60.23 26.9328 59.2065 26.7292 58.0338C26.6301 57.4496 26.6307 56.8278 26.6827 56.1965L26.8887 56.1197L26.8905 56.1191Z" fill="url(#paint10_linear_156_3546)"/>
<path d="M24.8615 57.5995C24.2537 59.1873 24.3093 60.8566 25.1364 62.4118C25.6482 63.474 26.4288 64.4564 27.1955 65.4859C28.0281 66.6091 28.2933 68.0325 27.233 69.169C26.7563 69.6711 26.0651 70.1073 25.2198 70.4197L25.0434 70.3405C25.3249 69.8904 25.6149 69.4518 25.7424 68.9853C25.9056 68.4392 25.8596 67.9008 25.6681 67.3625C25.279 66.3541 24.8223 65.2877 24.3274 64.257C24.0664 63.7132 23.8296 63.1574 23.6622 62.5919C23.3366 61.4644 23.3559 60.2941 23.7661 59.1764C23.9722 58.6205 24.2839 58.0828 24.6446 57.562L24.8615 57.5989V57.5995Z" fill="url(#paint11_linear_156_3546)"/>
</g>
<mask id="mask1_156_3546" style="mask-type:luminance" maskUnits="userSpaceOnUse" x="48" y="3" width="42" height="44">
<path d="M88.9416 3.64258L48.6394 3.73925L48.6853 22.9844L68.8138 22.9366L79.6692 46.1615H89.0431L88.9416 3.64258Z" fill="white"/>
</mask>
<g mask="url(#mask1_156_3546)">
<path d="M69.5859 18.1429C70.9061 17.0717 71.6927 15.5981 71.7544 13.8375C71.8426 12.6617 71.6577 11.4207 71.5085 10.1459C71.349 8.75688 71.8311 7.39142 73.3174 6.93767C73.9814 6.74131 74.7976 6.70929 75.6864 6.86094L75.7994 7.01803C75.3305 7.26695 74.8605 7.50198 74.5161 7.84153C74.1022 8.23305 73.872 8.72244 73.7693 9.28433C73.602 10.3519 73.4642 11.5041 73.3778 12.6442C73.3319 13.2454 73.2594 13.8453 73.121 14.4187C72.8395 15.5576 72.2377 16.5624 71.3236 17.3242C70.8668 17.7025 70.3285 18.0124 69.7557 18.2831L69.5859 18.1429Z" fill="url(#paint12_linear_156_3546)"/>
<path d="M71.8818 19.1599C73.5609 18.8923 74.9789 18.0095 75.9124 16.5154C76.5764 15.5408 77.0374 14.3742 77.5455 13.1954C78.1019 11.9127 79.2021 10.9714 80.7162 11.3212C81.3893 11.4831 82.1125 11.8638 82.8061 12.4395L82.8255 12.6323C82.295 12.6136 81.7699 12.5815 81.3023 12.7042C80.7483 12.8359 80.3042 13.1446 79.9344 13.5803C79.2559 14.4213 78.5605 15.3499 77.9152 16.2943C77.5751 16.7921 77.212 17.2755 76.806 17.7032C75.9927 18.5485 74.9692 19.1176 73.7965 19.3212C73.2123 19.4203 72.5905 19.4197 71.9592 19.3677L71.8824 19.1617L71.8818 19.1599Z" fill="url(#paint13_linear_156_3546)"/>
<path d="M73.3619 21.1886C74.9497 21.7964 76.6191 21.7408 78.1743 20.9137C79.2364 20.402 80.2188 19.6214 81.2484 18.8546C82.3715 18.0221 83.795 17.7568 84.9315 18.8172C85.4336 19.2939 85.8698 19.9851 86.1821 20.8303L86.103 21.0068C85.6529 20.7252 85.2142 20.4352 84.7478 20.3077C84.2016 20.1446 83.6633 20.1905 83.125 20.382C82.1166 20.7711 81.0502 21.2279 80.0194 21.7227C79.4757 21.9837 78.9198 22.2206 78.3543 22.3879C77.2269 22.7136 76.0566 22.6942 74.9388 22.284C74.383 22.078 73.8453 21.7662 73.3245 21.4055L73.3613 21.1886H73.3619Z" fill="url(#paint14_linear_156_3546)"/>
<path d="M73.6297 23.6855C74.7009 25.0057 76.1745 25.7923 77.9351 25.854C79.1109 25.9422 80.3518 25.7573 81.6267 25.6081C83.0157 25.4486 84.3812 25.9307 84.8349 27.417C85.0313 28.081 85.0633 28.8973 84.9116 29.786L84.7546 29.899C84.5056 29.4301 84.2706 28.9601 83.931 28.6157C83.5395 28.2018 83.0501 27.9716 82.4882 27.8689C81.4207 27.7016 80.2685 27.5638 79.1284 27.4774C78.5272 27.4315 77.9273 27.359 77.3539 27.2206C76.215 26.9391 75.2102 26.3373 74.4483 25.4232C74.0701 24.9664 73.7602 24.4281 73.4895 23.8553L73.6297 23.6855Z" fill="url(#paint15_linear_156_3546)"/>
<path d="M72.6129 25.9814C72.8806 27.6605 73.7633 29.0785 75.2574 30.012C76.232 30.676 77.3987 31.137 78.5774 31.6451C79.8601 32.2015 80.8014 33.3018 80.4516 34.8158C80.2897 35.4889 79.9091 36.2121 79.3333 36.9057L79.1405 36.9251C79.1593 36.3946 79.1913 35.8695 79.0686 35.4019C78.9369 34.8479 78.6282 34.4038 78.1926 34.034C77.3515 33.3555 76.4229 32.6601 75.4786 32.0148C74.9807 31.6747 74.4974 31.3116 74.0696 30.9056C73.2243 30.0923 72.6552 29.0688 72.4516 27.8961C72.3525 27.3119 72.3531 26.6902 72.4051 26.0588L72.6111 25.982L72.6129 25.9814Z" fill="url(#paint16_linear_156_3546)"/>
<path d="M70.5839 27.4618C69.9761 29.0496 70.0317 30.7189 70.8588 32.2741C71.3706 33.3363 72.1512 34.3187 72.9179 35.3482C73.7505 36.4714 74.0157 37.8949 72.9554 39.0313C72.4787 39.5334 71.7875 39.9696 70.9422 40.282L70.7658 40.2028C71.0474 39.7527 71.3374 39.3141 71.4648 38.8477C71.628 38.3015 71.5821 37.7631 71.3905 37.2248C71.0014 36.2164 70.5447 35.15 70.0498 34.1193C69.7888 33.5755 69.552 33.0197 69.3846 32.4542C69.059 31.3268 69.0783 30.1564 69.4886 29.0387C69.6946 28.4828 70.0063 27.9451 70.367 27.4243L70.5839 27.4612V27.4618Z" fill="url(#paint17_linear_156_3546)"/>
<path d="M68.0875 27.7295C66.7673 28.8007 65.9807 30.2744 65.9191 32.035C65.8308 33.2107 66.0157 34.4517 66.165 35.7265C66.3245 37.1156 65.8423 38.481 64.356 38.9348C63.692 39.1311 62.8758 39.1631 61.987 39.0115L61.874 38.8544C62.3429 38.6055 62.8129 38.3704 63.1573 38.0309C63.5712 37.6394 63.8014 37.15 63.9041 36.5881C64.0714 35.5205 64.2092 34.3683 64.2956 33.2282C64.3415 32.6271 64.414 32.0271 64.5524 31.4537C64.8339 30.3148 65.4357 29.3101 66.3498 28.5482C66.8066 28.17 67.3449 27.86 67.9177 27.5894L68.0875 27.7295Z" fill="url(#paint18_linear_156_3546)"/>
<path d="M65.791 26.7128C64.112 26.9804 62.694 27.8631 61.7605 29.3573C61.0965 30.3318 60.6355 31.4985 60.1274 32.6773C59.5709 33.96 58.4707 34.9013 56.9566 34.5515C56.2836 34.3896 55.5604 34.0089 54.8667 33.4331L54.8474 33.2404C55.3779 33.2591 55.9029 33.2911 56.3706 33.1685C56.9246 33.0368 57.3687 32.728 57.7384 32.2924C58.4169 31.4514 59.1124 30.5228 59.7576 29.5784C60.0978 29.0806 60.4609 28.5972 60.8669 28.1695C61.6801 27.3242 62.7036 26.7551 63.8764 26.5514C64.4606 26.4524 65.0823 26.453 65.7137 26.5049L65.7904 26.711L65.791 26.7128Z" fill="url(#paint19_linear_156_3546)"/>
<path d="M64.3107 24.684C62.7229 24.0762 61.0535 24.1318 59.4984 24.9589C58.4362 25.4707 57.4538 26.2513 56.4243 27.018C55.3011 27.8506 53.8776 28.1158 52.7411 27.0555C52.2391 26.5788 51.8028 25.8876 51.4905 25.0423L51.5696 24.8659C52.0197 25.1474 52.4584 25.4375 52.9248 25.5649C53.471 25.7281 54.0093 25.6822 54.5477 25.4906C55.556 25.1015 56.6224 24.6448 57.6532 24.1499C58.1969 23.8889 58.7528 23.6521 59.3183 23.4847C60.4457 23.1591 61.616 23.1784 62.7338 23.5886C63.2896 23.7947 63.8274 24.1064 64.3482 24.4671L64.3113 24.684H64.3107Z" fill="url(#paint20_linear_156_3546)"/>
<path d="M64.043 22.1871C62.9718 20.8669 61.4982 20.0803 59.7376 20.0187C58.5619 19.9304 57.3209 20.1153 56.046 20.2646C54.657 20.4241 53.2916 19.9419 52.8378 18.4556C52.6415 17.7916 52.6094 16.9754 52.7611 16.0866L52.9182 15.9736C53.1671 16.4425 53.4021 16.9125 53.7417 17.2569C54.1332 17.6708 54.6226 17.901 55.1845 18.0037C56.2521 18.1711 57.4043 18.3088 58.5444 18.3952C59.1455 18.4411 59.7455 18.5136 60.3188 18.652C61.4577 18.9335 62.4625 19.5353 63.2244 20.4494C63.6026 20.9062 63.9125 21.4445 64.1832 22.0173L64.043 22.1871Z" fill="url(#paint21_linear_156_3546)"/>
<path d="M65.0598 19.8909C64.7922 18.2119 63.9094 16.7938 62.4153 15.8604C61.4407 15.1964 60.2741 14.7354 59.0953 14.2272C57.8126 13.6708 56.8713 12.5706 57.2211 11.0565C57.383 10.3834 57.7637 9.66021 58.3395 8.9666L58.5322 8.94727C58.5135 9.47774 58.4814 10.0028 58.6041 10.4704C58.7358 11.0245 59.0445 11.4685 59.4802 11.8383C60.3212 12.5168 61.2498 13.2122 62.1942 13.8575C62.692 14.1976 63.1754 14.5608 63.6031 14.9668C64.4484 15.78 65.0175 16.8035 65.2211 17.9762C65.3202 18.5605 65.3196 19.1822 65.2677 19.8135L65.0616 19.8903L65.0598 19.8909Z" fill="url(#paint22_linear_156_3546)"/>
<path d="M67.0888 18.4106C67.6966 16.8228 67.641 15.1534 66.8139 13.5982C66.3021 12.5361 65.5215 11.5536 64.7548 10.5241C63.9222 9.40093 63.657 7.97747 64.7173 6.841C65.194 6.33892 65.8852 5.9027 66.7305 5.59033L66.9069 5.66948C66.6254 6.1196 66.3353 6.55824 66.2079 7.02467C66.0447 7.57085 66.0906 8.10918 66.2822 8.64751C66.6713 9.6559 67.128 10.7223 67.6229 11.753C67.8839 12.2968 68.1207 12.8526 68.2881 13.4182C68.6137 14.5456 68.5944 15.7159 68.1842 16.8336C67.9781 17.3895 67.6664 17.9272 67.3057 18.448L67.0888 18.4112V18.4106Z" fill="url(#paint23_linear_156_3546)"/>
</g>
<path d="M28.1828 36.8337C25.2713 36.8337 23.1089 34.5861 23.1089 31.7452V31.7168C23.1089 28.9043 25.2284 26.6006 28.2674 26.6006C30.1331 26.6006 31.2497 27.2229 32.168 28.1274L30.7833 29.7248C30.0202 29.0318 29.2432 28.6077 28.2535 28.6077C26.5854 28.6077 25.3843 29.9931 25.3843 31.689V31.7174C25.3843 33.414 26.5576 34.8272 28.2535 34.8272C29.384 34.8272 30.0764 34.3746 30.8539 33.6683L32.2387 35.067C31.2213 36.1558 30.0909 36.8343 28.1828 36.8343V36.8337Z" fill="white"/>
<path d="M33.9829 36.6641V26.7705H36.1598V34.6853H41.0924V36.6641H33.9835H33.9829Z" fill="white"/>
<path d="M42.835 36.6641V26.7705H45.0118V36.6641H42.835Z" fill="white"/>
<path d="M55.2188 36.6641V30.2053L52.4348 34.431H52.3786L49.6223 30.2476V36.6641H47.4883V26.7705H49.8349L52.4354 30.9545L55.0364 26.7705H57.3824V36.6641H55.22H55.2188Z" fill="white"/>
<path d="M67.1257 36.6639L66.2212 34.4454H62.0378L61.1334 36.6639H58.9148L63.1544 26.6997H65.1615L69.4017 36.6639H67.1257ZM64.1295 29.3146L62.8154 32.5229H65.4436L64.1295 29.3146Z" fill="white"/>
<path d="M28.2964 43.2219V51.1084H26.1195V43.2219H23.1089V41.2148H31.3059V43.2219H28.2958H28.2964Z" fill="white"/>
<path d="M32.9788 51.1084V41.2148H40.4411V43.1513H35.1411V45.1584H39.8055V47.0948H35.1411V49.1726H40.5117V51.109H32.9788V51.1084Z" fill="white"/>
<path d="M47.0896 51.278C44.178 51.278 42.0156 49.0304 42.0156 46.1896V46.1612C42.0156 43.3487 44.1351 41.0449 47.1742 41.0449C49.0399 41.0449 50.1564 41.6672 51.0748 42.5717L49.69 44.1692C48.9269 43.4762 48.1499 43.052 47.1603 43.052C45.4921 43.052 44.291 44.4374 44.291 46.1334V46.1618C44.291 47.8583 45.4643 49.2715 47.1603 49.2715C48.2907 49.2715 48.9831 48.819 49.7607 48.1127L51.1455 49.5114C50.128 50.6001 48.9976 51.2786 47.0896 51.2786V51.278Z" fill="white"/>
<path d="M59.829 51.1084L55.0384 44.8194V51.1084H52.8899V41.2148H54.897L59.5329 47.3068V41.2148H61.6808V51.1084H59.829Z" fill="white"/>
<path d="M64.1597 51.1084V41.2148H66.3365V51.1084H64.1597Z" fill="white"/>
<path d="M73.4485 51.278C70.5369 51.278 68.3745 49.0304 68.3745 46.1896V46.1612C68.3745 43.3487 70.494 41.0449 73.5331 41.0449C75.3988 41.0449 76.5153 41.6672 77.4337 42.5717L76.0489 44.1692C75.2858 43.4762 74.5088 43.052 73.5191 43.052C71.851 43.052 70.6499 44.4374 70.6499 46.1334V46.1618C70.6499 47.8583 71.8232 49.2715 73.5191 49.2715C74.6496 49.2715 75.342 48.819 76.1196 48.1127L77.5044 49.5114C76.4869 50.6001 75.3565 51.2786 73.4485 51.2786V51.278Z" fill="white"/>
<path d="M83.7714 51.278C80.7191 51.278 78.5283 49.002 78.5283 46.1896V46.1612C78.5283 43.3487 80.7469 41.0449 83.8004 41.0449C86.854 41.0449 89.0436 43.3209 89.0436 46.1334V46.1618C89.0436 48.9743 86.825 51.278 83.7714 51.278ZM86.7682 46.1618C86.7682 44.4658 85.5242 43.052 83.7714 43.052C82.0187 43.052 80.8037 44.4374 80.8037 46.1334V46.1618C80.8037 47.8583 82.0477 49.2715 83.8004 49.2715C85.5532 49.2715 86.7682 47.8867 86.7682 46.1902V46.1618Z" fill="white"/>
<defs>
<linearGradient id="paint0_linear_156_3546" x1="25.2624" y1="59.363" x2="15.0403" y2="73.0335" gradientUnits="userSpaceOnUse">
<stop stop-color="#E3312D"/>
<stop offset="0.22" stop-color="#E95F32"/>
<stop offset="0.56" stop-color="#F18F34"/>
<stop offset="0.86" stop-color="#FDC800"/>
<stop offset="0.9" stop-color="#FDCB03"/>
<stop offset="0.95" stop-color="#FDD70E"/>
<stop offset="0.99" stop-color="#FEE921"/>
<stop offset="1" stop-color="#FFEF26"/>
</linearGradient>
<linearGradient id="paint1_linear_156_3546" x1="-81.9759" y1="-119.193" x2="-96.1919" y2="-110.978" gradientUnits="userSpaceOnUse">
<stop stop-color="#E3312D"/>
<stop offset="0.22" stop-color="#E95F32"/>
<stop offset="0.56" stop-color="#F18F34"/>
<stop offset="0.86" stop-color="#FDC800"/>
<stop offset="0.9" stop-color="#FDCB03"/>
<stop offset="0.95" stop-color="#FDD70E"/>
<stop offset="0.99" stop-color="#FEE921"/>
<stop offset="1" stop-color="#FFEF26"/>
</linearGradient>
<linearGradient id="paint2_linear_156_3546" x1="18.742" y1="58.0792" x2="1.79187" y2="56.0618" gradientUnits="userSpaceOnUse">
<stop stop-color="#E3312D"/>
<stop offset="0.22" stop-color="#E95F32"/>
<stop offset="0.56" stop-color="#F18F34"/>
<stop offset="0.86" stop-color="#FDC800"/>
<stop offset="0.9" stop-color="#FDCB03"/>
<stop offset="0.95" stop-color="#FDD70E"/>
<stop offset="0.99" stop-color="#FEE921"/>
<stop offset="1" stop-color="#FFEF26"/>
</linearGradient>
<linearGradient id="paint3_linear_156_3546" x1="20.3304" y1="48.4144" x2="5.8612" y2="56.9856" gradientUnits="userSpaceOnUse">
<stop stop-color="#E3312D"/>
<stop offset="0.22" stop-color="#E95F32"/>
<stop offset="0.56" stop-color="#F18F34"/>
<stop offset="0.86" stop-color="#FDC800"/>
<stop offset="0.9" stop-color="#FDCB03"/>
<stop offset="0.95" stop-color="#FDD70E"/>
<stop offset="0.99" stop-color="#FEE921"/>
<stop offset="1" stop-color="#FFEF26"/>
</linearGradient>
<linearGradient id="paint4_linear_156_3546" x1="20.9037" y1="43.1413" x2="7.80658" y2="46.2602" gradientUnits="userSpaceOnUse">
<stop stop-color="#E3312D"/>
<stop offset="0.22" stop-color="#E95F32"/>
<stop offset="0.56" stop-color="#F18F34"/>
<stop offset="0.86" stop-color="#FDC800"/>
<stop offset="0.9" stop-color="#FDCB03"/>
<stop offset="0.95" stop-color="#FDD70E"/>
<stop offset="0.99" stop-color="#FEE921"/>
<stop offset="1" stop-color="#FFEF26"/>
</linearGradient>
<linearGradient id="paint5_linear_156_3546" x1="18.1089" y1="48.702" x2="20.1262" y2="31.7524" gradientUnits="userSpaceOnUse">
<stop stop-color="#E3312D"/>
<stop offset="0.22" stop-color="#E95F32"/>
<stop offset="0.56" stop-color="#F18F34"/>
<stop offset="0.86" stop-color="#FDC800"/>
<stop offset="0.9" stop-color="#FDCB03"/>
<stop offset="0.95" stop-color="#FDD70E"/>
<stop offset="0.99" stop-color="#FEE921"/>
<stop offset="1" stop-color="#FFEF26"/>
</linearGradient>
<linearGradient id="paint6_linear_156_3546" x1="200.258" y1="149.717" x2="208.462" y2="135.494" gradientUnits="userSpaceOnUse">
<stop stop-color="#E3312D"/>
<stop offset="0.22" stop-color="#E95F32"/>
<stop offset="0.56" stop-color="#F18F34"/>
<stop offset="0.86" stop-color="#FDC800"/>
<stop offset="0.9" stop-color="#FDCB03"/>
<stop offset="0.95" stop-color="#FDD70E"/>
<stop offset="0.99" stop-color="#FEE921"/>
<stop offset="1" stop-color="#FFEF26"/>
</linearGradient>
<linearGradient id="paint7_linear_156_3546" x1="24.3977" y1="46.5538" x2="40.0856" y2="39.8259" gradientUnits="userSpaceOnUse">
<stop stop-color="#E3312D"/>
<stop offset="0.22" stop-color="#E95F32"/>
<stop offset="0.56" stop-color="#F18F34"/>
<stop offset="0.86" stop-color="#FDC800"/>
<stop offset="0.9" stop-color="#FDCB03"/>
<stop offset="0.95" stop-color="#FDD70E"/>
<stop offset="0.99" stop-color="#FEE921"/>
<stop offset="1" stop-color="#FFEF26"/>
</linearGradient>
<linearGradient id="paint8_linear_156_3546" x1="27.4858" y1="48.0688" x2="44.4359" y2="50.0862" gradientUnits="userSpaceOnUse">
<stop stop-color="#E3312D"/>
<stop offset="0.22" stop-color="#E95F32"/>
<stop offset="0.56" stop-color="#F18F34"/>
<stop offset="0.86" stop-color="#FDC800"/>
<stop offset="0.9" stop-color="#FDCB03"/>
<stop offset="0.95" stop-color="#FDD70E"/>
<stop offset="0.99" stop-color="#FEE921"/>
<stop offset="1" stop-color="#FFEF26"/>
</linearGradient>
<linearGradient id="paint9_linear_156_3546" x1="31.9358" y1="52.8316" x2="33.7013" y2="63.0722" gradientUnits="userSpaceOnUse">
<stop stop-color="#E3312D"/>
<stop offset="0.22" stop-color="#E95F32"/>
<stop offset="0.56" stop-color="#F18F34"/>
<stop offset="0.86" stop-color="#FDC800"/>
<stop offset="0.9" stop-color="#FDCB03"/>
<stop offset="0.95" stop-color="#FDD70E"/>
<stop offset="0.99" stop-color="#FEE921"/>
<stop offset="1" stop-color="#FFEF26"/>
</linearGradient>
<linearGradient id="paint10_linear_156_3546" x1="29.5996" y1="54.3725" x2="36.3273" y2="70.06" gradientUnits="userSpaceOnUse">
<stop stop-color="#E3312D"/>
<stop offset="0.22" stop-color="#E95F32"/>
<stop offset="0.56" stop-color="#F18F34"/>
<stop offset="0.86" stop-color="#FDC800"/>
<stop offset="0.9" stop-color="#FDCB03"/>
<stop offset="0.95" stop-color="#FDD70E"/>
<stop offset="0.99" stop-color="#FEE921"/>
<stop offset="1" stop-color="#FFEF26"/>
</linearGradient>
<linearGradient id="paint11_linear_156_3546" x1="28.119" y1="57.4463" x2="26.1016" y2="74.3959" gradientUnits="userSpaceOnUse">
<stop stop-color="#E3312D"/>
<stop offset="0.22" stop-color="#E95F32"/>
<stop offset="0.56" stop-color="#F18F34"/>
<stop offset="0.86" stop-color="#FDC800"/>
<stop offset="0.9" stop-color="#FDCB03"/>
<stop offset="0.95" stop-color="#FDD70E"/>
<stop offset="0.99" stop-color="#FEE921"/>
<stop offset="1" stop-color="#FFEF26"/>
</linearGradient>
<linearGradient id="paint12_linear_156_3546" x1="69.7992" y1="18.4247" x2="70.9793" y2="3.11753" gradientUnits="userSpaceOnUse">
<stop stop-color="#29235C"/>
<stop offset="0.22" stop-color="#2D2E83"/>
<stop offset="0.56" stop-color="#1D71B8"/>
<stop offset="0.86" stop-color="#1D71B8"/>
</linearGradient>
<linearGradient id="paint13_linear_156_3546" x1="71.7603" y1="11.3053" x2="86.3457" y2="12.1192" gradientUnits="userSpaceOnUse">
<stop stop-color="#29235C"/>
<stop offset="0.22" stop-color="#2D2E83"/>
<stop offset="0.56" stop-color="#1D71B8"/>
<stop offset="0.86" stop-color="#1D71B8"/>
</linearGradient>
<linearGradient id="paint14_linear_156_3546" x1="73.1817" y1="18.1534" x2="90.1313" y2="20.1708" gradientUnits="userSpaceOnUse">
<stop stop-color="#29235C"/>
<stop offset="0.22" stop-color="#2D2E83"/>
<stop offset="0.56" stop-color="#1D71B8"/>
<stop offset="0.86" stop-color="#1D71B8"/>
</linearGradient>
<linearGradient id="paint15_linear_156_3546" x1="73.3616" y1="23.7295" x2="88.6686" y2="24.9094" gradientUnits="userSpaceOnUse">
<stop stop-color="#29235C"/>
<stop offset="0.22" stop-color="#2D2E83"/>
<stop offset="0.56" stop-color="#1D71B8"/>
<stop offset="0.86" stop-color="#1D71B8"/>
</linearGradient>
<linearGradient id="paint16_linear_156_3546" x1="72.2798" y1="26.0589" x2="83.1718" y2="26.3965" gradientUnits="userSpaceOnUse">
<stop stop-color="#29235C"/>
<stop offset="0.22" stop-color="#2D2E83"/>
<stop offset="0.56" stop-color="#1D71B8"/>
<stop offset="0.86" stop-color="#1D71B8"/>
</linearGradient>
<linearGradient id="paint17_linear_156_3546" x1="73.6192" y1="27.2816" x2="71.6018" y2="44.2311" gradientUnits="userSpaceOnUse">
<stop stop-color="#29235C"/>
<stop offset="0.22" stop-color="#2D2E83"/>
<stop offset="0.56" stop-color="#1D71B8"/>
<stop offset="0.86" stop-color="#1D71B8"/>
</linearGradient>
<linearGradient id="paint18_linear_156_3546" x1="70.806" y1="29.0907" x2="60.5841" y2="42.7607" gradientUnits="userSpaceOnUse">
<stop stop-color="#29235C"/>
<stop offset="0.22" stop-color="#2D2E83"/>
<stop offset="0.56" stop-color="#1D71B8"/>
<stop offset="0.86" stop-color="#1D71B8"/>
</linearGradient>
<linearGradient id="paint19_linear_156_3546" x1="25.5815" y1="53.5692" x2="22.3721" y2="48.0417" gradientUnits="userSpaceOnUse">
<stop stop-color="#29235C"/>
<stop offset="0.22" stop-color="#2D2E83"/>
<stop offset="0.56" stop-color="#1D71B8"/>
<stop offset="0.86" stop-color="#1D71B8"/>
</linearGradient>
<linearGradient id="paint20_linear_156_3546" x1="64.4915" y1="27.7193" x2="47.5419" y2="25.7019" gradientUnits="userSpaceOnUse">
<stop stop-color="#29235C"/>
<stop offset="0.22" stop-color="#2D2E83"/>
<stop offset="0.56" stop-color="#1D71B8"/>
<stop offset="0.86" stop-color="#1D71B8"/>
</linearGradient>
<linearGradient id="paint21_linear_156_3546" x1="53.0611" y1="22.2635" x2="53.2474" y2="13.9606" gradientUnits="userSpaceOnUse">
<stop stop-color="#29235C"/>
<stop offset="0.22" stop-color="#2D2E83"/>
<stop offset="0.56" stop-color="#1D71B8"/>
<stop offset="0.86" stop-color="#1D71B8"/>
</linearGradient>
<linearGradient id="paint22_linear_156_3546" x1="57.4274" y1="20.0254" x2="58.2415" y2="5.43991" gradientUnits="userSpaceOnUse">
<stop stop-color="#29235C"/>
<stop offset="0.22" stop-color="#2D2E83"/>
<stop offset="0.56" stop-color="#1D71B8"/>
<stop offset="0.86" stop-color="#1D71B8"/>
</linearGradient>
<linearGradient id="paint23_linear_156_3546" x1="64.1759" y1="18.6061" x2="66.1937" y2="1.65635" gradientUnits="userSpaceOnUse">
<stop stop-color="#29235C"/>
<stop offset="0.22" stop-color="#2D2E83"/>
<stop offset="0.56" stop-color="#1D71B8"/>
<stop offset="0.86" stop-color="#1D71B8"/>
</linearGradient>
</defs>
</svg>
